<ttFont>
    <TTGlyph name=".notdef" xMin="118" yMin="0" xMax="1418" yMax="1448">
      <contour>
        <pt x="596" y="1350" on="1"/>
        <pt x="262" y="100" on="1"/>
        <pt x="936" y="100" on="1"/>
        <pt x="1270" y="1350" on="1"/>
      </contour>
      <contour>
        <pt x="1404" y="1398" on="1"/>
        <pt x="1404" y="1398" on="0"/>
        <pt x="1044" y="54" on="1"/>
        <pt x="1039" y="37" on="0"/>
        <pt x="1033" y="26" on="1"/>
        <pt x="1018" y="0" on="0"/>
        <pt x="972" y="0" on="1"/>
        <pt x="176" y="0" on="1"/>
        <pt x="118" y="1" on="0"/>
        <pt x="136" y="68" on="1"/>
        <pt x="490" y="1396" on="1"/>
        <pt x="492" y="1404" on="0"/>
        <pt x="495" y="1412" on="1"/>
        <pt x="510" y="1448" on="0"/>
        <pt x="556" y="1448" on="1"/>
        <pt x="1366" y="1448" on="1"/>
        <pt x="1418" y="1448" on="0"/>
      </contour>
    </TTGlyph>
    <TTGlyph name="A" xMin="-162" yMin="-6" xMax="951" yMax="1447">
      <contour>
        <pt x="427" y="628" on="1"/>
        <pt x="644" y="628" on="1"/>
        <pt x="679" y="1142" on="1"/>
      </contour>
      <contour>
        <pt x="310" y="390" on="1"/>
        <pt x="138" y="38" on="1"/>
        <pt x="115" y="-6" on="0"/>
        <pt x="62" y="-2" on="1"/>
        <pt x="-94" y="4" on="1"/>
        <pt x="-95" y="4" on="0"/>
        <pt x="-98" y="4" on="1"/>
        <pt x="-162" y="9" on="0"/>
        <pt x="-138" y="78" on="1"/>
        <pt x="530" y="1364" on="1"/>
        <pt x="537" y="1378" on="0"/>
        <pt x="547" y="1392" on="1"/>
        <pt x="586" y="1444" on="0"/>
        <pt x="640" y="1444" on="1"/>
        <pt x="870" y="1446" on="1"/>
        <pt x="889" y="1447" on="0"/>
        <pt x="905" y="1440" on="1"/>
        <pt x="951" y="1419" on="0"/>
        <pt x="948" y="1350" on="1"/>
        <pt x="874" y="44" on="1"/>
        <pt x="868" y="2" on="0"/>
        <pt x="814" y="0" on="1"/>
        <pt x="652" y="0" on="1"/>
        <pt x="645" y="0" on="0"/>
        <pt x="638" y="1" on="1"/>
        <pt x="600" y="9" on="0"/>
        <pt x="606" y="54" on="1"/>
        <pt x="628" y="390" on="1"/>
      </contour>
    </TTGlyph>
    <TTGlyph name="AE" xMin="-224" yMin="-2" xMax="1661" yMax="1448">
      <contour>
        <pt x="469" y="628" on="1"/>
        <pt x="707" y="628" on="1"/>
        <pt x="800" y="1156" on="1"/>
      </contour>
      <contour>
        <pt x="319" y="390" on="1"/>
        <pt x="98" y="38" on="1"/>
        <pt x="73" y="-2" on="0"/>
        <pt x="26" y="-2" on="1"/>
        <pt x="24" y="-2" on="0"/>
        <pt x="22" y="-2" on="1"/>
        <pt x="-154" y="4" on="1"/>
        <pt x="-177" y="5" on="0"/>
        <pt x="-192" y="16" on="1"/>
        <pt x="-224" y="39" on="0"/>
        <pt x="-190" y="90" on="1"/>
        <pt x="658" y="1364" on="1"/>
        <pt x="714" y="1448" on="0"/>
        <pt x="776" y="1448" on="1"/>
        <pt x="1602" y="1448" on="1"/>
        <pt x="1661" y="1448" on="0"/>
        <pt x="1648" y="1384" on="1"/>
        <pt x="1622" y="1266" on="1"/>
        <pt x="1619" y="1254" on="0"/>
        <pt x="1611" y="1242" on="1"/>
        <pt x="1591" y="1210" on="0"/>
        <pt x="1554" y="1210" on="1"/>
        <pt x="1072" y="1210" on="1"/>
        <pt x="1020" y="904" on="1"/>
        <pt x="1434" y="904" on="1"/>
        <pt x="1489" y="904" on="0"/>
        <pt x="1476" y="840" on="1"/>
        <pt x="1452" y="722" on="1"/>
        <pt x="1450" y="711" on="0"/>
        <pt x="1442" y="698" on="1"/>
        <pt x="1421" y="666" on="0"/>
        <pt x="1388" y="666" on="1"/>
        <pt x="980" y="666" on="1"/>
        <pt x="907" y="238" on="1"/>
        <pt x="1306" y="238" on="1"/>
        <pt x="1365" y="238" on="0"/>
        <pt x="1352" y="174" on="1"/>
        <pt x="1326" y="56" on="1"/>
        <pt x="1323" y="44" on="0"/>
        <pt x="1315" y="32" on="1"/>
        <pt x="1295" y="0" on="0"/>
        <pt x="1258" y="0" on="1"/>
        <pt x="652" y="0" on="1"/>
        <pt x="633" y="0" on="0"/>
        <pt x="614" y="17" on="1"/>
        <pt x="601" y="28" on="0"/>
        <pt x="606" y="54" on="1"/>
        <pt x="665" y="390" on="1"/>
      </contour>
    </TTGlyph>
    <TTGlyph name="Aacute" xMin="-162" yMin="-6" xMax="1063" yMax="1816">
      <component glyphName="acute" x="494" y="368" flags="0x1004"/>
      <component glyphName="A" x="0" y="0" flags="0x1204"/>
    </TTGlyph>
    <TTGlyph name="Acircumflex" xMin="-162" yMin="-6" xMax="1048" yMax="1834">
      <component glyphName="circumflex" x="320" y="366" flags="0x1004"/>
      <component glyphName="A" x="0" y="0" flags="0x1004"/>
    </TTGlyph>
    <TTGlyph name="Adieresis" xMin="-162" yMin="-6" xMax="1138" yMax="1772">
      <component glyphName="dieresis" x="198" y="316" flags="0x1004"/>
      <component glyphName="A" x="0" y="0" flags="0x1004"/>
    </TTGlyph>
    <TTGlyph name="Agrave" xMin="-162" yMin="-6" xMax="951" yMax="1814">
      <component glyphName="grave" x="324" y="366" flags="0x1004"/>
      <component glyphName="A" x="0" y="0" flags="0x1004"/>
    </TTGlyph>
    <TTGlyph name="Aring" xMin="-150" yMin="-4" xMax="1105" yMax="1724">
      <contour>
        <pt x="670" y="1448" on="1"/>
        <pt x="654" y="1401" on="0"/>
        <pt x="662" y="1356" on="1"/>
        <pt x="674" y="1292" on="0"/>
        <pt x="726" y="1276" on="1"/>
        <pt x="759" y="1267" on="0"/>
        <pt x="794" y="1284" on="1"/>
        <pt x="851" y="1312" on="0"/>
        <pt x="876" y="1382" on="1"/>
        <pt x="892" y="1430" on="0"/>
        <pt x="882" y="1476" on="1"/>
        <pt x="863" y="1558" on="0"/>
        <pt x="792" y="1558" on="1"/>
        <pt x="771" y="1558" on="0"/>
        <pt x="748" y="1547" on="1"/>
        <pt x="692" y="1518" on="0"/>
      </contour>
      <contour>
        <pt x="458" y="1418" on="1"/>
        <pt x="474" y="1541" on="0"/>
        <pt x="571" y="1630" on="1"/>
        <pt x="674" y="1724" on="0"/>
        <pt x="808" y="1724" on="1"/>
        <pt x="936" y="1722" on="0"/>
        <pt x="1022" y="1633" on="1"/>
        <pt x="1105" y="1541" on="0"/>
        <pt x="1088" y="1418" on="1"/>
        <pt x="1069" y="1277" on="0"/>
        <pt x="950" y="1187" on="1"/>
        <pt x="884" y="58" on="1"/>
        <pt x="882" y="29" on="0"/>
        <pt x="870" y="12" on="1"/>
        <pt x="860" y="0" on="0"/>
        <pt x="822" y="0" on="1"/>
        <pt x="660" y="0" on="1"/>
        <pt x="610" y="1" on="0"/>
        <pt x="614" y="54" on="1"/>
        <pt x="637" y="390" on="1"/>
        <pt x="317" y="390" on="1"/>
        <pt x="149" y="38" on="1"/>
        <pt x="129" y="-4" on="0"/>
        <pt x="70" y="-2" on="1"/>
        <pt x="-86" y="4" on="1"/>
        <pt x="-107" y="5" on="0"/>
        <pt x="-122" y="14" on="1"/>
        <pt x="-150" y="33" on="0"/>
        <pt x="-127" y="78" on="1"/>
        <pt x="483" y="1261" on="1"/>
        <pt x="448" y="1332" on="0"/>
      </contour>
      <contour>
        <pt x="690" y="1157" on="1"/>
        <pt x="433" y="628" on="1"/>
        <pt x="653" y="628" on="1"/>
      </contour>
    </TTGlyph>
    <TTGlyph name="Atilde" xMin="-162" yMin="-6" xMax="1157" yMax="1838">
      <component glyphName="tildecomb" x="216" y="436" flags="0x1004"/>
      <component glyphName="A" x="0" y="0" flags="0x1004"/>
    </TTGlyph>
    <TTGlyph name="B" xMin="-33" yMin="0" xMax="1020" yMax="1448">
      <contour>
        <pt x="451" y="849" on="1"/>
        <pt x="488" y="846" on="1"/>
        <pt x="502" y="846" on="0"/>
        <pt x="514" y="847" on="1"/>
        <pt x="666" y="860" on="0"/>
        <pt x="706" y="1072" on="1"/>
        <pt x="712" y="1106" on="0"/>
        <pt x="711" y="1131" on="1"/>
        <pt x="707" y="1214" on="0"/>
        <pt x="614" y="1214" on="1"/>
        <pt x="544" y="1214" on="1"/>
      </contour>
      <contour>
        <pt x="270" y="1214" on="1"/>
        <pt x="218" y="1214" on="1"/>
        <pt x="200" y="1214" on="0"/>
        <pt x="184" y="1222" on="1"/>
        <pt x="150" y="1239" on="0"/>
        <pt x="158" y="1266" on="1"/>
        <pt x="196" y="1408" on="1"/>
        <pt x="198" y="1416" on="0"/>
        <pt x="203" y="1424" on="1"/>
        <pt x="219" y="1448" on="0"/>
        <pt x="242" y="1448" on="1"/>
        <pt x="378" y="1448" on="1"/>
        <pt x="548" y="1448" on="1"/>
        <pt x="636" y="1448" on="1"/>
        <pt x="768" y="1448" on="0"/>
        <pt x="859" y="1408" on="1"/>
        <pt x="1020" y="1336" on="0"/>
        <pt x="1020" y="1158" on="1"/>
        <pt x="1020" y="1131" on="0"/>
        <pt x="1017" y="1102" on="1"/>
        <pt x="1002" y="964" on="0"/>
        <pt x="940" y="864" on="1"/>
        <pt x="881" y="769" on="0"/>
        <pt x="783" y="731" on="1"/>
        <pt x="801" y="718" on="0"/>
        <pt x="816" y="701" on="1"/>
        <pt x="870" y="635" on="0"/>
        <pt x="852" y="470" on="1"/>
        <pt x="845" y="411" on="0"/>
        <pt x="821" y="344" on="1"/>
        <pt x="765" y="192" on="0"/>
        <pt x="668" y="108" on="1"/>
        <pt x="573" y="23" on="0"/>
        <pt x="440" y="6" on="1"/>
        <pt x="391" y="0" on="0"/>
        <pt x="226" y="0" on="1"/>
        <pt x="186" y="0" on="1"/>
        <pt x="134" y="0" on="1"/>
        <pt x="16" y="0" on="1"/>
        <pt x="3" y="0" on="0"/>
        <pt x="-7" y="6" on="1"/>
        <pt x="-33" y="23" on="0"/>
        <pt x="-24" y="62" on="1"/>
      </contour>
      <contour>
        <pt x="298" y="248" on="1"/>
        <pt x="344" y="250" on="1"/>
        <pt x="398" y="253" on="0"/>
        <pt x="437" y="267" on="1"/>
        <pt x="538" y="303" on="0"/>
        <pt x="582" y="438" on="1"/>
        <pt x="623" y="570" on="0"/>
        <pt x="566" y="618" on="1"/>
        <pt x="535" y="644" on="0"/>
        <pt x="399" y="644" on="1"/>
      </contour>
    </TTGlyph>
    <TTGlyph name="C" xMin="1" yMin="-16" xMax="932" yMax="1464">
      <contour>
        <pt x="929" y="1068" on="1"/>
        <pt x="932" y="1032" on="0"/>
        <pt x="888" y="1014" on="1"/>
        <pt x="712" y="962" on="1"/>
        <pt x="698" y="958" on="0"/>
        <pt x="680" y="964" on="1"/>
        <pt x="650" y="976" on="0"/>
        <pt x="648" y="1008" on="1"/>
        <pt x="646" y="1031" on="0"/>
        <pt x="644" y="1050" on="1"/>
        <pt x="636" y="1121" on="0"/>
        <pt x="606" y="1196" on="1"/>
        <pt x="594" y="1200" on="0"/>
        <pt x="582" y="1200" on="1"/>
        <pt x="459" y="1199" on="0"/>
        <pt x="342" y="752" on="1"/>
        <pt x="289" y="549" on="0"/>
        <pt x="289" y="404" on="1"/>
        <pt x="289" y="243" on="0"/>
        <pt x="340" y="228" on="1"/>
        <pt x="358" y="228" on="1"/>
        <pt x="376" y="241" on="0"/>
        <pt x="393" y="258" on="1"/>
        <pt x="434" y="301" on="0"/>
        <pt x="504" y="436" on="1"/>
        <pt x="518" y="463" on="0"/>
        <pt x="529" y="475" on="1"/>
        <pt x="548" y="495" on="0"/>
        <pt x="586" y="478" on="1"/>
        <pt x="750" y="406" on="1"/>
        <pt x="759" y="402" on="0"/>
        <pt x="765" y="393" on="1"/>
        <pt x="781" y="366" on="0"/>
        <pt x="756" y="326" on="1"/>
        <pt x="650" y="156" on="0"/>
        <pt x="564" y="82" on="1"/>
        <pt x="450" y="-16" on="0"/>
        <pt x="288" y="-16" on="1"/>
        <pt x="228" y="-16" on="0"/>
        <pt x="160" y="26" on="1"/>
        <pt x="89" y="71" on="0"/>
        <pt x="48" y="158" on="1"/>
        <pt x="1" y="262" on="0"/>
        <pt x="1" y="417" on="1"/>
        <pt x="1" y="587" on="0"/>
        <pt x="58" y="816" on="1"/>
        <pt x="128" y="1095" on="0"/>
        <pt x="253" y="1257" on="1"/>
        <pt x="413" y="1464" on="0"/>
        <pt x="598" y="1464" on="1"/>
        <pt x="775" y="1464" on="0"/>
        <pt x="855" y="1334" on="1"/>
        <pt x="915" y="1237" on="0"/>
      </contour>
    </TTGlyph>
    <TTGlyph name="Ccaron" xMin="1" yMin="-16" xMax="981" yMax="1814">
      <component glyphName="caron" x="258" y="366" flags="0x1004"/>
      <component glyphName="C" x="0" y="0" flags="0x1004"/>
    </TTGlyph>
    <TTGlyph name="Ccedilla" xMin="-59" yMin="-407" xMax="932" yMax="1464">
      <component glyphName="cedilla" x="-166" y="4" flags="0x1004"/>
      <component glyphName="C" x="0" y="0" flags="0x1004"/>
    </TTGlyph>
    <TTGlyph name="D" xMin="-34" yMin="-8" xMax="948" yMax="1462">
      <contour>
        <pt x="540" y="1201" on="1"/>
        <pt x="540" y="1201" on="0"/>
        <pt x="298" y="252" on="1"/>
        <pt x="316" y="250" on="0"/>
        <pt x="368" y="250" on="1"/>
        <pt x="506" y="251" on="0"/>
        <pt x="616" y="682" on="1"/>
        <pt x="663" y="873" on="0"/>
        <pt x="660" y="1023" on="1"/>
        <pt x="656" y="1176" on="0"/>
        <pt x="600" y="1192" on="1"/>
        <pt x="579" y="1198" on="0"/>
      </contour>
      <contour>
        <pt x="262" y="1191" on="1"/>
        <pt x="239" y="1188" on="0"/>
        <pt x="218" y="1184" on="1"/>
        <pt x="167" y="1174" on="0"/>
        <pt x="162" y="1174" on="1"/>
        <pt x="152" y="1174" on="0"/>
        <pt x="143" y="1178" on="1"/>
        <pt x="114" y="1190" on="0"/>
        <pt x="120" y="1230" on="1"/>
        <pt x="140" y="1388" on="1"/>
        <pt x="146" y="1417" on="0"/>
        <pt x="186" y="1428" on="1"/>
        <pt x="188" y="1428" on="0"/>
        <pt x="192" y="1429" on="1"/>
        <pt x="348" y="1462" on="0"/>
        <pt x="526" y="1462" on="1"/>
        <pt x="659" y="1462" on="0"/>
        <pt x="752" y="1416" on="1"/>
        <pt x="948" y="1319" on="0"/>
        <pt x="948" y="1034" on="1"/>
        <pt x="948" y="855" on="0"/>
        <pt x="884" y="610" on="1"/>
        <pt x="843" y="455" on="0"/>
        <pt x="783" y="334" on="1"/>
        <pt x="612" y="-8" on="0"/>
        <pt x="320" y="-8" on="1"/>
        <pt x="314" y="-8" on="0"/>
        <pt x="306" y="-8" on="1"/>
        <pt x="111" y="-8" on="0"/>
        <pt x="36" y="6" on="1"/>
        <pt x="23" y="9" on="0"/>
        <pt x="13" y="13" on="1"/>
        <pt x="-34" y="33" on="0"/>
        <pt x="-16" y="104" on="1"/>
      </contour>
    </TTGlyph>
    <TTGlyph name="E" xMin="-34" yMin="0" xMax="1033" yMax="1448">
      <contour>
        <pt x="465" y="904" on="1"/>
        <pt x="806" y="904" on="1"/>
        <pt x="861" y="903" on="0"/>
        <pt x="848" y="840" on="1"/>
        <pt x="824" y="722" on="1"/>
        <pt x="821" y="710" on="0"/>
        <pt x="814" y="698" on="1"/>
        <pt x="792" y="666" on="0"/>
        <pt x="760" y="666" on="1"/>
        <pt x="405" y="666" on="1"/>
        <pt x="295" y="238" on="1"/>
        <pt x="678" y="238" on="1"/>
        <pt x="737" y="237" on="0"/>
        <pt x="724" y="174" on="1"/>
        <pt x="698" y="56" on="1"/>
        <pt x="695" y="44" on="0"/>
        <pt x="687" y="32" on="1"/>
        <pt x="664" y="0" on="0"/>
        <pt x="630" y="0" on="1"/>
        <pt x="16" y="0" on="1"/>
        <pt x="3" y="0" on="0"/>
        <pt x="-8" y="6" on="1"/>
        <pt x="-34" y="23" on="0"/>
        <pt x="-24" y="62" on="1"/>
        <pt x="269" y="1210" on="1"/>
        <pt x="198" y="1210" on="1"/>
        <pt x="190" y="1210" on="0"/>
        <pt x="183" y="1211" on="1"/>
        <pt x="143" y="1218" on="0"/>
        <pt x="160" y="1282" on="1"/>
        <pt x="192" y="1408" on="1"/>
        <pt x="196" y="1426" on="0"/>
        <pt x="207" y="1448" on="0"/>
        <pt x="232" y="1448" on="1"/>
        <pt x="974" y="1448" on="1"/>
        <pt x="1033" y="1447" on="0"/>
        <pt x="1020" y="1384" on="1"/>
        <pt x="994" y="1266" on="1"/>
        <pt x="991" y="1254" on="0"/>
        <pt x="983" y="1242" on="1"/>
        <pt x="960" y="1210" on="0"/>
        <pt x="926" y="1210" on="1"/>
        <pt x="543" y="1210" on="1"/>
      </contour>
    </TTGlyph>
    <TTGlyph name="Eacute" xMin="-34" yMin="0" xMax="1033" yMax="1814">
      <component glyphName="acute" x="356" y="366" flags="0x1004"/>
      <component glyphName="E" x="0" y="0" flags="0x1004"/>
    </TTGlyph>
    <TTGlyph name="Ecircumflex" xMin="-34" yMin="0" xMax="1033" yMax="1836">
      <component glyphName="circumflex" x="220" y="368" flags="0x1004"/>
      <component glyphName="E" x="0" y="0" flags="0x1004"/>
    </TTGlyph>
    <TTGlyph name="Edieresis" xMin="-34" yMin="0" xMax="1033" yMax="1786">
      <component glyphName="dieresis" x="68" y="330" flags="0x1004"/>
      <component glyphName="E" x="0" y="0" flags="0x1204"/>
    </TTGlyph>
    <TTGlyph name="Egrave" xMin="-34" yMin="0" xMax="1033" yMax="1816">
      <component glyphName="grave" x="244" y="368" flags="0x1004"/>
      <component glyphName="E" x="0" y="0" flags="0x1004"/>
    </TTGlyph>
    <TTGlyph name="Eth" xMin="-48" yMin="-8" xMax="948" yMax="1462">
      <contour>
        <pt x="21" y="826" on="1"/>
        <pt x="21" y="826" on="0"/>
        <pt x="169" y="826" on="1"/>
        <pt x="262" y="1191" on="1"/>
        <pt x="239" y="1188" on="0"/>
        <pt x="218" y="1184" on="1"/>
        <pt x="166" y="1174" on="0"/>
        <pt x="162" y="1174" on="1"/>
        <pt x="152" y="1174" on="0"/>
        <pt x="143" y="1178" on="1"/>
        <pt x="119" y="1188" on="0"/>
        <pt x="119" y="1218" on="1"/>
        <pt x="119" y="1224" on="0"/>
        <pt x="120" y="1230" on="1"/>
        <pt x="140" y="1388" on="1"/>
        <pt x="146" y="1417" on="0"/>
        <pt x="186" y="1428" on="1"/>
        <pt x="192" y="1429" on="1"/>
        <pt x="351" y="1462" on="0"/>
        <pt x="526" y="1462" on="1"/>
        <pt x="659" y="1462" on="0"/>
        <pt x="752" y="1416" on="1"/>
        <pt x="948" y="1319" on="0"/>
        <pt x="948" y="1034" on="1"/>
        <pt x="948" y="855" on="0"/>
        <pt x="884" y="610" on="1"/>
        <pt x="843" y="455" on="0"/>
        <pt x="783" y="334" on="1"/>
        <pt x="612" y="-8" on="0"/>
        <pt x="320" y="-8" on="1"/>
        <pt x="306" y="-8" on="1"/>
        <pt x="110" y="-8" on="0"/>
        <pt x="36" y="6" on="1"/>
        <pt x="23" y="9" on="0"/>
        <pt x="13" y="13" on="1"/>
        <pt x="-21" y="27" on="0"/>
        <pt x="-21" y="68" on="1"/>
        <pt x="-21" y="84" on="0"/>
        <pt x="-16" y="104" on="1"/>
        <pt x="108" y="588" on="1"/>
        <pt x="-5" y="588" on="1"/>
        <pt x="-12" y="588" on="0"/>
        <pt x="-20" y="589" on="1"/>
        <pt x="-48" y="593" on="0"/>
        <pt x="-48" y="627" on="1"/>
        <pt x="-48" y="641" on="0"/>
        <pt x="-43" y="660" on="1"/>
        <pt x="-11" y="786" on="1"/>
        <pt x="-6" y="805" on="0"/>
        <pt x="-4" y="811" on="1"/>
        <pt x="2" y="826" on="0"/>
      </contour>
      <contour>
        <pt x="540" y="1201" on="1"/>
        <pt x="444" y="826" on="1"/>
        <pt x="512" y="826" on="1"/>
        <pt x="560" y="826" on="0"/>
        <pt x="560" y="783" on="1"/>
        <pt x="560" y="774" on="0"/>
        <pt x="558" y="762" on="1"/>
        <pt x="532" y="644" on="1"/>
        <pt x="529" y="632" on="0"/>
        <pt x="521" y="620" on="1"/>
        <pt x="498" y="588" on="0"/>
        <pt x="464" y="588" on="1"/>
        <pt x="384" y="588" on="1"/>
        <pt x="298" y="252" on="1"/>
        <pt x="316" y="250" on="0"/>
        <pt x="368" y="250" on="1"/>
        <pt x="506" y="251" on="0"/>
        <pt x="616" y="682" on="1"/>
        <pt x="660" y="859" on="0"/>
        <pt x="660" y="1001" on="1"/>
        <pt x="660" y="1012" on="0"/>
        <pt x="660" y="1023" on="1"/>
        <pt x="656" y="1176" on="0"/>
        <pt x="600" y="1192" on="1"/>
        <pt x="579" y="1198" on="0"/>
      </contour>
    </TTGlyph>
    <TTGlyph name="Euro" xMin="-172" yMin="-22" xMax="902" yMax="1463">
      <contour>
        <pt x="-104" y="642" on="1"/>
        <pt x="-104" y="642" on="0"/>
        <pt x="24" y="642" on="1"/>
        <pt x="32" y="697" on="0"/>
        <pt x="38" y="726" on="1"/>
        <pt x="-74" y="726" on="1"/>
        <pt x="-81" y="726" on="0"/>
        <pt x="-89" y="727" on="1"/>
        <pt x="-130" y="735" on="0"/>
        <pt x="-112" y="798" on="1"/>
        <pt x="-94" y="862" on="1"/>
        <pt x="-94" y="862" on="0"/>
        <pt x="-87" y="887" on="1"/>
        <pt x="-81" y="902" on="0"/>
        <pt x="-62" y="902" on="1"/>
        <pt x="82" y="902" on="1"/>
        <pt x="166" y="1174" on="0"/>
        <pt x="313" y="1326" on="1"/>
        <pt x="446" y="1463" on="0"/>
        <pt x="597" y="1463" on="1"/>
        <pt x="771" y="1463" on="0"/>
        <pt x="848" y="1355" on="1"/>
        <pt x="902" y="1279" on="0"/>
        <pt x="902" y="1092" on="1"/>
        <pt x="902" y="1044" on="0"/>
        <pt x="862" y="1028" on="1"/>
        <pt x="670" y="968" on="1"/>
        <pt x="664" y="966" on="0"/>
        <pt x="658" y="966" on="1"/>
        <pt x="633" y="964" on="0"/>
        <pt x="636" y="1000" on="1"/>
        <pt x="640" y="1097" on="0"/>
        <pt x="637" y="1113" on="1"/>
        <pt x="627" y="1174" on="0"/>
        <pt x="577" y="1174" on="1"/>
        <pt x="480" y="1174" on="0"/>
        <pt x="386" y="902" on="1"/>
        <pt x="790" y="902" on="1"/>
        <pt x="850" y="902" on="0"/>
        <pt x="836" y="838" on="1"/>
        <pt x="824" y="782" on="1"/>
        <pt x="821" y="769" on="0"/>
        <pt x="813" y="758" on="1"/>
        <pt x="791" y="726" on="0"/>
        <pt x="756" y="726" on="1"/>
        <pt x="335" y="726" on="1"/>
        <pt x="324" y="684" on="0"/>
        <pt x="317" y="642" on="1"/>
        <pt x="718" y="642" on="1"/>
        <pt x="778" y="642" on="0"/>
        <pt x="764" y="578" on="1"/>
        <pt x="752" y="522" on="1"/>
        <pt x="749" y="509" on="0"/>
        <pt x="741" y="498" on="1"/>
        <pt x="719" y="466" on="0"/>
        <pt x="684" y="466" on="1"/>
        <pt x="296" y="466" on="1"/>
        <pt x="293" y="406" on="0"/>
        <pt x="297" y="357" on="1"/>
        <pt x="307" y="230" on="0"/>
        <pt x="354" y="230" on="1"/>
        <pt x="404" y="230" on="0"/>
        <pt x="429" y="244" on="1"/>
        <pt x="448" y="254" on="0"/>
        <pt x="484" y="300" on="1"/>
        <pt x="514" y="338" on="0"/>
        <pt x="536" y="364" on="1"/>
        <pt x="552" y="387" on="0"/>
        <pt x="561" y="394" on="1"/>
        <pt x="574" y="404" on="0"/>
        <pt x="618" y="398" on="1"/>
        <pt x="756" y="378" on="1"/>
        <pt x="765" y="377" on="0"/>
        <pt x="773" y="372" on="1"/>
        <pt x="788" y="361" on="0"/>
        <pt x="772" y="312" on="1"/>
        <pt x="741" y="198" on="0"/>
        <pt x="600" y="62" on="1"/>
        <pt x="513" y="-22" on="0"/>
        <pt x="332" y="-22" on="1"/>
        <pt x="260" y="-22" on="0"/>
        <pt x="163" y="51" on="1"/>
        <pt x="10" y="168" on="0"/>
        <pt x="11" y="466" on="1"/>
        <pt x="-116" y="466" on="1"/>
        <pt x="-123" y="466" on="0"/>
        <pt x="-131" y="467" on="1"/>
        <pt x="-172" y="475" on="0"/>
        <pt x="-154" y="538" on="1"/>
        <pt x="-136" y="602" on="1"/>
        <pt x="-136" y="602" on="0"/>
        <pt x="-129" y="627" on="1"/>
        <pt x="-123" y="642" on="0"/>
      </contour>
    </TTGlyph>
    <TTGlyph name="F" xMin="-33" yMin="0" xMax="1033" yMax="1448">
      <contour>
        <pt x="440" y="804" on="1"/>
        <pt x="780" y="804" on="1"/>
        <pt x="835" y="803" on="0"/>
        <pt x="822" y="740" on="1"/>
        <pt x="798" y="622" on="1"/>
        <pt x="795" y="610" on="0"/>
        <pt x="788" y="598" on="1"/>
        <pt x="766" y="566" on="0"/>
        <pt x="734" y="566" on="1"/>
        <pt x="379" y="566" on="1"/>
        <pt x="246" y="44" on="1"/>
        <pt x="234" y="1" on="0"/>
        <pt x="186" y="0" on="1"/>
        <pt x="16" y="0" on="1"/>
        <pt x="3" y="0" on="0"/>
        <pt x="-7" y="6" on="1"/>
        <pt x="-33" y="23" on="0"/>
        <pt x="-24" y="62" on="1"/>
        <pt x="269" y="1210" on="1"/>
        <pt x="198" y="1210" on="1"/>
        <pt x="190" y="1210" on="0"/>
        <pt x="183" y="1211" on="1"/>
        <pt x="143" y="1218" on="0"/>
        <pt x="160" y="1282" on="1"/>
        <pt x="192" y="1408" on="1"/>
        <pt x="196" y="1426" on="0"/>
        <pt x="201" y="1435" on="1"/>
        <pt x="208" y="1448" on="0"/>
        <pt x="232" y="1448" on="1"/>
        <pt x="378" y="1448" on="1"/>
        <pt x="548" y="1448" on="1"/>
        <pt x="974" y="1448" on="1"/>
        <pt x="1033" y="1447" on="0"/>
        <pt x="1020" y="1384" on="1"/>
        <pt x="994" y="1266" on="1"/>
        <pt x="991" y="1254" on="0"/>
        <pt x="983" y="1242" on="1"/>
        <pt x="960" y="1210" on="0"/>
        <pt x="926" y="1210" on="1"/>
        <pt x="543" y="1210" on="1"/>
      </contour>
    </TTGlyph>
    <TTGlyph name="G" xMin="2" yMin="-12" xMax="932" yMax="1464">
      <contour>
        <pt x="438" y="698" on="1"/>
        <pt x="438" y="698" on="0"/>
        <pt x="868" y="698" on="1"/>
        <pt x="899" y="697" on="0"/>
        <pt x="886" y="654" on="1"/>
        <pt x="854" y="542" on="1"/>
        <pt x="842" y="502" on="0"/>
        <pt x="828" y="491" on="1"/>
        <pt x="825" y="480" on="0"/>
        <pt x="820" y="466" on="1"/>
        <pt x="775" y="325" on="0"/>
        <pt x="709" y="221" on="1"/>
        <pt x="562" y="-12" on="0"/>
        <pt x="350" y="-12" on="1"/>
        <pt x="204" y="-11" on="0"/>
        <pt x="120" y="63" on="1"/>
        <pt x="2" y="169" on="0"/>
        <pt x="2" y="442" on="1"/>
        <pt x="2" y="595" on="0"/>
        <pt x="58" y="816" on="1"/>
        <pt x="125" y="1084" on="0"/>
        <pt x="253" y="1257" on="1"/>
        <pt x="407" y="1464" on="0"/>
        <pt x="598" y="1464" on="1"/>
        <pt x="709" y="1461" on="0"/>
        <pt x="796" y="1412" on="1"/>
        <pt x="822" y="1396" on="0"/>
        <pt x="844" y="1373" on="1"/>
        <pt x="932" y="1281" on="0"/>
        <pt x="932" y="1056" on="1"/>
        <pt x="932" y="1008" on="0"/>
        <pt x="892" y="992" on="1"/>
        <pt x="666" y="924" on="1"/>
        <pt x="660" y="922" on="0"/>
        <pt x="654" y="922" on="1"/>
        <pt x="630" y="921" on="0"/>
        <pt x="632" y="956" on="1"/>
        <pt x="636" y="1051" on="0"/>
        <pt x="636" y="1066" on="1"/>
        <pt x="635" y="1161" on="0"/>
        <pt x="596" y="1172" on="1"/>
        <pt x="587" y="1175" on="0"/>
        <pt x="578" y="1175" on="1"/>
        <pt x="455" y="1179" on="0"/>
        <pt x="342" y="752" on="1"/>
        <pt x="293" y="564" on="0"/>
        <pt x="292" y="421" on="1"/>
        <pt x="292" y="270" on="0"/>
        <pt x="348" y="256" on="1"/>
        <pt x="380" y="249" on="0"/>
        <pt x="417" y="273" on="1"/>
        <pt x="496" y="327" on="0"/>
        <pt x="544" y="486" on="1"/>
        <pt x="396" y="486" on="1"/>
        <pt x="361" y="488" on="0"/>
        <pt x="372" y="542" on="1"/>
        <pt x="408" y="674" on="1"/>
        <pt x="409" y="678" on="0"/>
        <pt x="411" y="683" on="1"/>
        <pt x="418" y="698" on="0"/>
      </contour>
    </TTGlyph>
    <TTGlyph name="H" xMin="-25" yMin="0" xMax="1263" yMax="1448">
      <contour>
        <pt x="326" y="1404" on="1"/>
        <pt x="338" y="1447" on="0"/>
        <pt x="386" y="1448" on="1"/>
        <pt x="556" y="1448" on="1"/>
        <pt x="569" y="1448" on="0"/>
        <pt x="579" y="1442" on="1"/>
        <pt x="605" y="1425" on="0"/>
        <pt x="596" y="1386" on="1"/>
        <pt x="473" y="904" on="1"/>
        <pt x="857" y="904" on="1"/>
        <pt x="984" y="1404" on="1"/>
        <pt x="996" y="1447" on="0"/>
        <pt x="1044" y="1448" on="1"/>
        <pt x="1214" y="1448" on="1"/>
        <pt x="1227" y="1448" on="0"/>
        <pt x="1237" y="1442" on="1"/>
        <pt x="1263" y="1425" on="0"/>
        <pt x="1254" y="1386" on="1"/>
        <pt x="912" y="44" on="1"/>
        <pt x="900" y="1" on="0"/>
        <pt x="852" y="0" on="1"/>
        <pt x="682" y="0" on="1"/>
        <pt x="669" y="0" on="0"/>
        <pt x="659" y="6" on="1"/>
        <pt x="633" y="23" on="0"/>
        <pt x="642" y="62" on="1"/>
        <pt x="796" y="666" on="1"/>
        <pt x="413" y="666" on="1"/>
        <pt x="254" y="44" on="1"/>
        <pt x="242" y="1" on="0"/>
        <pt x="194" y="0" on="1"/>
        <pt x="24" y="0" on="1"/>
        <pt x="11" y="0" on="0"/>
        <pt x="1" y="6" on="1"/>
        <pt x="-25" y="23" on="0"/>
        <pt x="-16" y="62" on="1"/>
      </contour>
    </TTGlyph>
    <TTGlyph name="I" xMin="-33" yMin="0" xMax="597" yMax="1448">
      <contour>
        <pt x="318" y="1404" on="1"/>
        <pt x="330" y="1447" on="0"/>
        <pt x="378" y="1448" on="1"/>
        <pt x="548" y="1448" on="1"/>
        <pt x="561" y="1448" on="0"/>
        <pt x="571" y="1442" on="1"/>
        <pt x="597" y="1425" on="0"/>
        <pt x="588" y="1386" on="1"/>
        <pt x="246" y="44" on="1"/>
        <pt x="234" y="1" on="0"/>
        <pt x="186" y="0" on="1"/>
        <pt x="16" y="0" on="1"/>
        <pt x="3" y="0" on="0"/>
        <pt x="-7" y="6" on="1"/>
        <pt x="-33" y="23" on="0"/>
        <pt x="-24" y="62" on="1"/>
      </contour>
    </TTGlyph>
    <TTGlyph name="Iacute" xMin="-33" yMin="0" xMax="797" yMax="1814">
      <component glyphName="I" x="0" y="0" flags="0x1004"/>
      <component glyphName="acute" x="228" y="366" flags="0x1004"/>
    </TTGlyph>
    <TTGlyph name="Icircumflex" xMin="-33" yMin="0" xMax="782" yMax="1834">
      <component glyphName="I" x="0" y="0" flags="0x1004"/>
      <component glyphName="circumflex" x="54" y="366" flags="0x1004"/>
    </TTGlyph>
    <TTGlyph name="Idieresis" xMin="-33" yMin="0" xMax="792" yMax="1784">
      <component glyphName="I" x="0" y="0" flags="0x1004"/>
      <component glyphName="dieresiscomb" x="-32" y="328" flags="0x1004"/>
    </TTGlyph>
    <TTGlyph name="Igrave" xMin="-33" yMin="0" xMax="619" yMax="1814">
      <component glyphName="I" x="0" y="0" flags="0x1004"/>
      <component glyphName="grave" x="56" y="366" flags="0x1004"/>
    </TTGlyph>
    <TTGlyph name="J" xMin="-232" yMin="-378" xMax="658" yMax="1448">
      <contour>
        <pt x="436" y="1448" on="1"/>
        <pt x="436" y="1448" on="0"/>
        <pt x="608" y="1448" on="1"/>
        <pt x="621" y="1448" on="0"/>
        <pt x="632" y="1441" on="1"/>
        <pt x="658" y="1424" on="0"/>
        <pt x="648" y="1388" on="1"/>
        <pt x="306" y="44" on="1"/>
        <pt x="262" y="-120" on="0"/>
        <pt x="134" y="-236" on="1"/>
        <pt x="29" y="-330" on="0"/>
        <pt x="-94" y="-366" on="1"/>
        <pt x="-139" y="-378" on="0"/>
        <pt x="-156" y="-350" on="1"/>
        <pt x="-210" y="-238" on="1"/>
        <pt x="-211" y="-236" on="0"/>
        <pt x="-213" y="-232" on="1"/>
        <pt x="-232" y="-187" on="0"/>
        <pt x="-194" y="-172" on="1"/>
        <pt x="-153" y="-156" on="0"/>
        <pt x="-114" y="-130" on="1"/>
        <pt x="6" y="-48" on="0"/>
        <pt x="40" y="82" on="1"/>
        <pt x="378" y="1404" on="1"/>
        <pt x="390" y="1446" on="0"/>
      </contour>
    </TTGlyph>
    <TTGlyph name="K" xMin="-34" yMin="0" xMax="1168" yMax="1448">
      <contour>
        <pt x="318" y="1404" on="1"/>
        <pt x="330" y="1447" on="0"/>
        <pt x="378" y="1448" on="1"/>
        <pt x="548" y="1448" on="1"/>
        <pt x="560" y="1448" on="0"/>
        <pt x="571" y="1442" on="1"/>
        <pt x="598" y="1425" on="0"/>
        <pt x="588" y="1386" on="1"/>
        <pt x="455" y="865" on="1"/>
        <pt x="858" y="1422" on="1"/>
        <pt x="866" y="1433" on="0"/>
        <pt x="876" y="1440" on="1"/>
        <pt x="888" y="1448" on="0"/>
        <pt x="918" y="1448" on="1"/>
        <pt x="1114" y="1448" on="1"/>
        <pt x="1138" y="1448" on="0"/>
        <pt x="1150" y="1434" on="1"/>
        <pt x="1168" y="1410" on="0"/>
        <pt x="1138" y="1374" on="1"/>
        <pt x="654" y="736" on="1"/>
        <pt x="820" y="60" on="1"/>
        <pt x="837" y="2" on="0"/>
        <pt x="774" y="0" on="1"/>
        <pt x="616" y="0" on="1"/>
        <pt x="558" y="0" on="0"/>
        <pt x="542" y="50" on="1"/>
        <pt x="401" y="651" on="1"/>
        <pt x="246" y="44" on="1"/>
        <pt x="234" y="1" on="0"/>
        <pt x="186" y="0" on="1"/>
        <pt x="16" y="0" on="1"/>
        <pt x="4" y="0" on="0"/>
        <pt x="-7" y="6" on="1"/>
        <pt x="-34" y="23" on="0"/>
        <pt x="-24" y="62" on="1"/>
      </contour>
    </TTGlyph>
    <TTGlyph name="L" xMin="-33" yMin="0" xMax="737" yMax="1448">
      <contour>
        <pt x="318" y="1404" on="1"/>
        <pt x="330" y="1447" on="0"/>
        <pt x="378" y="1448" on="1"/>
        <pt x="548" y="1448" on="1"/>
        <pt x="561" y="1448" on="0"/>
        <pt x="571" y="1442" on="1"/>
        <pt x="597" y="1425" on="0"/>
        <pt x="588" y="1386" on="1"/>
        <pt x="295" y="238" on="1"/>
        <pt x="678" y="238" on="1"/>
        <pt x="737" y="237" on="0"/>
        <pt x="724" y="174" on="1"/>
        <pt x="698" y="56" on="1"/>
        <pt x="695" y="44" on="0"/>
        <pt x="687" y="32" on="1"/>
        <pt x="664" y="0" on="0"/>
        <pt x="630" y="0" on="1"/>
        <pt x="16" y="0" on="1"/>
        <pt x="3" y="0" on="0"/>
        <pt x="-7" y="6" on="1"/>
        <pt x="-33" y="23" on="0"/>
        <pt x="-24" y="62" on="1"/>
      </contour>
    </TTGlyph>
    <TTGlyph name="M" xMin="-33" yMin="0" xMax="1349" yMax="1448">
      <contour>
        <pt x="318" y="1404" on="1"/>
        <pt x="330" y="1447" on="0"/>
        <pt x="378" y="1448" on="1"/>
        <pt x="570" y="1448" on="1"/>
        <pt x="576" y="1448" on="0"/>
        <pt x="583" y="1447" on="1"/>
        <pt x="613" y="1442" on="0"/>
        <pt x="618" y="1402" on="1"/>
        <pt x="654" y="1012" on="0"/>
        <pt x="641" y="709" on="1"/>
        <pt x="1048" y="1410" on="1"/>
        <pt x="1050" y="1413" on="0"/>
        <pt x="1052" y="1417" on="1"/>
        <pt x="1073" y="1448" on="0"/>
        <pt x="1108" y="1448" on="1"/>
        <pt x="1300" y="1448" on="1"/>
        <pt x="1313" y="1448" on="0"/>
        <pt x="1323" y="1442" on="1"/>
        <pt x="1349" y="1425" on="0"/>
        <pt x="1340" y="1386" on="1"/>
        <pt x="998" y="44" on="1"/>
        <pt x="986" y="1" on="0"/>
        <pt x="938" y="0" on="1"/>
        <pt x="768" y="0" on="1"/>
        <pt x="755" y="0" on="0"/>
        <pt x="745" y="6" on="1"/>
        <pt x="719" y="23" on="0"/>
        <pt x="728" y="62" on="1"/>
        <pt x="883" y="671" on="1"/>
        <pt x="752" y="454" on="1"/>
        <pt x="751" y="452" on="0"/>
        <pt x="749" y="449" on="1"/>
        <pt x="696" y="362" on="0"/>
        <pt x="624" y="362" on="1"/>
        <pt x="492" y="376" on="1"/>
        <pt x="424" y="385" on="0"/>
        <pt x="428" y="456" on="1"/>
        <pt x="437" y="594" on="0"/>
        <pt x="431" y="771" on="1"/>
        <pt x="246" y="44" on="1"/>
        <pt x="234" y="1" on="0"/>
        <pt x="186" y="0" on="1"/>
        <pt x="16" y="0" on="1"/>
        <pt x="3" y="0" on="0"/>
        <pt x="-7" y="6" on="1"/>
        <pt x="-33" y="23" on="0"/>
        <pt x="-24" y="62" on="1"/>
      </contour>
    </TTGlyph>
    <TTGlyph name="N" xMin="-34" yMin="0" xMax="1256" yMax="1448">
      <contour>
        <pt x="318" y="1404" on="1"/>
        <pt x="330" y="1447" on="0"/>
        <pt x="378" y="1448" on="1"/>
        <pt x="543" y="1448" on="1"/>
        <pt x="563" y="1448" on="0"/>
        <pt x="580" y="1434" on="1"/>
        <pt x="584" y="1431" on="0"/>
        <pt x="588" y="1426" on="1"/>
        <pt x="593" y="1419" on="0"/>
        <pt x="602" y="1386" on="1"/>
        <pt x="776" y="620" on="1"/>
        <pt x="976" y="1404" on="1"/>
        <pt x="988" y="1447" on="0"/>
        <pt x="1036" y="1448" on="1"/>
        <pt x="1206" y="1448" on="1"/>
        <pt x="1218" y="1448" on="0"/>
        <pt x="1229" y="1442" on="1"/>
        <pt x="1256" y="1425" on="0"/>
        <pt x="1246" y="1386" on="1"/>
        <pt x="904" y="44" on="1"/>
        <pt x="892" y="1" on="0"/>
        <pt x="844" y="0" on="1"/>
        <pt x="674" y="0" on="1"/>
        <pt x="653" y="0" on="0"/>
        <pt x="644" y="12" on="1"/>
        <pt x="636" y="24" on="0"/>
        <pt x="632" y="40" on="1"/>
        <pt x="450" y="845" on="1"/>
        <pt x="246" y="44" on="1"/>
        <pt x="234" y="1" on="0"/>
        <pt x="186" y="0" on="1"/>
        <pt x="16" y="0" on="1"/>
        <pt x="4" y="0" on="0"/>
        <pt x="-7" y="6" on="1"/>
        <pt x="-34" y="23" on="0"/>
        <pt x="-24" y="62" on="1"/>
      </contour>
    </TTGlyph>
    <TTGlyph name="Ntilde" xMin="-34" yMin="0" xMax="1256" yMax="1851">
      <component glyphName="tilde" x="256" y="436" flags="0x1004"/>
      <component glyphName="N" x="0" y="0" flags="0x1004"/>
    </TTGlyph>
    <TTGlyph name="O" xMin="4" yMin="-10" xMax="932" yMax="1464">
      <contour>
        <pt x="342" y="752" on="1"/>
        <pt x="282" y="524" on="0"/>
        <pt x="282" y="381" on="1"/>
        <pt x="282" y="228" on="0"/>
        <pt x="350" y="228" on="1"/>
        <pt x="365" y="228" on="0"/>
        <pt x="380" y="232" on="1"/>
        <pt x="423" y="246" on="0"/>
        <pt x="472" y="328" on="1"/>
        <pt x="534" y="436" on="0"/>
        <pt x="596" y="682" on="1"/>
        <pt x="659" y="939" on="0"/>
        <pt x="659" y="1197" on="0"/>
        <pt x="596" y="1198" on="1"/>
        <pt x="524" y="1198" on="0"/>
        <pt x="472" y="1112" on="1"/>
        <pt x="409" y="1008" on="0"/>
      </contour>
      <contour>
        <pt x="58" y="816" on="1"/>
        <pt x="126" y="1079" on="0"/>
        <pt x="251" y="1251" on="1"/>
        <pt x="407" y="1464" on="0"/>
        <pt x="600" y="1464" on="1"/>
        <pt x="609" y="1464" on="0"/>
        <pt x="618" y="1464" on="1"/>
        <pt x="779" y="1455" on="0"/>
        <pt x="856" y="1364" on="1"/>
        <pt x="932" y="1274" on="0"/>
        <pt x="932" y="1058" on="1"/>
        <pt x="932" y="879" on="0"/>
        <pt x="864" y="610" on="1"/>
        <pt x="815" y="416" on="0"/>
        <pt x="739" y="275" on="1"/>
        <pt x="584" y="-10" on="0"/>
        <pt x="352" y="-10" on="1"/>
        <pt x="193" y="-10" on="0"/>
        <pt x="109" y="71" on="1"/>
        <pt x="4" y="175" on="0"/>
        <pt x="4" y="440" on="1"/>
        <pt x="4" y="606" on="0"/>
      </contour>
    </TTGlyph>
    <TTGlyph name="Oacute" xMin="4" yMin="-10" xMax="955" yMax="1814">
      <component glyphName="acute" x="386" y="366" flags="0x1004"/>
      <component glyphName="O" x="0" y="0" flags="0x1004"/>
    </TTGlyph>
    <TTGlyph name="Ocircumflex" xMin="4" yMin="-10" xMax="952" yMax="1836">
      <component glyphName="circumflex" x="224" y="368" flags="0x1004"/>
      <component glyphName="O" x="0" y="0" flags="0x1004"/>
    </TTGlyph>
    <TTGlyph name="Odieresis" xMin="4" yMin="-10" xMax="1034" yMax="1784">
      <component glyphName="dieresis" x="94" y="328" flags="0x1004"/>
      <component glyphName="O" x="0" y="0" flags="0x1004"/>
    </TTGlyph>
    <TTGlyph name="Ograve" xMin="4" yMin="-10" xMax="932" yMax="1816">
      <component glyphName="grave" x="210" y="368" flags="0x1004"/>
      <component glyphName="O" x="0" y="0" flags="0x1004"/>
    </TTGlyph>
    <TTGlyph name="Oslash" xMin="-144" yMin="-10" xMax="1138" yMax="1493">
      <contour>
        <pt x="342" y="752" on="1"/>
        <pt x="342" y="752" on="0"/>
        <pt x="338" y="737" on="1"/>
        <pt x="656" y="1124" on="1"/>
        <pt x="645" y="1196" on="0"/>
        <pt x="600" y="1198" on="1"/>
        <pt x="576" y="1198" on="0"/>
        <pt x="558" y="1193" on="1"/>
        <pt x="514" y="1180" on="0"/>
        <pt x="472" y="1112" on="1"/>
        <pt x="409" y="1009" on="0"/>
      </contour>
      <contour>
        <pt x="58" y="816" on="1"/>
        <pt x="126" y="1079" on="0"/>
        <pt x="251" y="1251" on="1"/>
        <pt x="407" y="1464" on="0"/>
        <pt x="600" y="1464" on="1"/>
        <pt x="609" y="1464" on="0"/>
        <pt x="618" y="1464" on="1"/>
        <pt x="721" y="1458" on="0"/>
        <pt x="798" y="1414" on="1"/>
        <pt x="831" y="1394" on="0"/>
        <pt x="855" y="1366" on="1"/>
        <pt x="928" y="1454" on="1"/>
        <pt x="930" y="1456" on="0"/>
        <pt x="932" y="1459" on="1"/>
        <pt x="963" y="1493" on="0"/>
        <pt x="1000" y="1468" on="1"/>
        <pt x="1086" y="1410" on="1"/>
        <pt x="1138" y="1378" on="0"/>
        <pt x="1110" y="1342" on="1"/>
        <pt x="930" y="1124" on="1"/>
        <pt x="932" y="1083" on="0"/>
        <pt x="932" y="1058" on="1"/>
        <pt x="932" y="879" on="0"/>
        <pt x="864" y="610" on="1"/>
        <pt x="815" y="416" on="0"/>
        <pt x="739" y="275" on="1"/>
        <pt x="584" y="-10" on="0"/>
        <pt x="352" y="-10" on="1"/>
        <pt x="236" y="-10" on="0"/>
        <pt x="164" y="30" on="1"/>
        <pt x="115" y="58" on="0"/>
        <pt x="84" y="100" on="1"/>
        <pt x="54" y="64" on="1"/>
        <pt x="11" y="13" on="0"/>
        <pt x="-14" y="32" on="1"/>
        <pt x="-102" y="102" on="1"/>
        <pt x="-115" y="113" on="0"/>
        <pt x="-122" y="121" on="1"/>
        <pt x="-144" y="148" on="0"/>
        <pt x="-110" y="192" on="1"/>
        <pt x="8" y="336" on="1"/>
        <pt x="4" y="380" on="0"/>
        <pt x="4" y="440" on="1"/>
        <pt x="4" y="606" on="0"/>
      </contour>
      <contour>
        <pt x="284" y="342" on="1"/>
        <pt x="294" y="230" on="0"/>
        <pt x="350" y="228" on="1"/>
        <pt x="365" y="228" on="0"/>
        <pt x="380" y="232" on="1"/>
        <pt x="423" y="246" on="0"/>
        <pt x="472" y="328" on="1"/>
        <pt x="534" y="436" on="0"/>
        <pt x="596" y="682" on="1"/>
        <pt x="609" y="735" on="1"/>
      </contour>
    </TTGlyph>
    <TTGlyph name="Otilde" xMin="4" yMin="-10" xMax="1065" yMax="1831">
      <component glyphName="tilde" x="126" y="416" flags="0x1004"/>
      <component glyphName="O" x="0" y="0" flags="0x1004"/>
    </TTGlyph>
    <TTGlyph name="P" xMin="-33" yMin="0" xMax="972" yMax="1448">
      <contour>
        <pt x="436" y="791" on="1"/>
        <pt x="510" y="796" on="1"/>
        <pt x="519" y="797" on="0"/>
        <pt x="529" y="798" on="1"/>
        <pt x="622" y="812" on="0"/>
        <pt x="672" y="904" on="1"/>
        <pt x="677" y="920" on="0"/>
        <pt x="684" y="943" on="1"/>
        <pt x="720" y="1079" on="0"/>
        <pt x="720" y="1164" on="1"/>
        <pt x="720" y="1175" on="0"/>
        <pt x="711" y="1186" on="1"/>
        <pt x="691" y="1210" on="0"/>
        <pt x="660" y="1210" on="1"/>
        <pt x="649" y="1211" on="0"/>
        <pt x="603" y="1211" on="1"/>
        <pt x="565" y="1211" on="0"/>
        <pt x="544" y="1212" on="1"/>
      </contour>
      <contour>
        <pt x="270" y="1214" on="1"/>
        <pt x="202" y="1214" on="1"/>
        <pt x="188" y="1214" on="0"/>
        <pt x="176" y="1221" on="1"/>
        <pt x="150" y="1237" on="0"/>
        <pt x="160" y="1270" on="1"/>
        <pt x="196" y="1408" on="1"/>
        <pt x="198" y="1416" on="0"/>
        <pt x="203" y="1424" on="1"/>
        <pt x="219" y="1448" on="0"/>
        <pt x="242" y="1448" on="1"/>
        <pt x="668" y="1448" on="1"/>
        <pt x="754" y="1448" on="0"/>
        <pt x="821" y="1422" on="1"/>
        <pt x="972" y="1362" on="0"/>
        <pt x="972" y="1188" on="1"/>
        <pt x="972" y="1077" on="0"/>
        <pt x="925" y="930" on="1"/>
        <pt x="872" y="765" on="0"/>
        <pt x="765" y="680" on="1"/>
        <pt x="652" y="586" on="0"/>
        <pt x="383" y="583" on="1"/>
        <pt x="246" y="44" on="1"/>
        <pt x="234" y="1" on="0"/>
        <pt x="186" y="0" on="1"/>
        <pt x="16" y="0" on="1"/>
        <pt x="3" y="0" on="0"/>
        <pt x="-7" y="6" on="1"/>
        <pt x="-33" y="23" on="0"/>
        <pt x="-24" y="62" on="1"/>
      </contour>
    </TTGlyph>
    <TTGlyph name="Q" xMin="4" yMin="-244" xMax="932" yMax="1464">
      <contour>
        <pt x="150" y="-136" on="1"/>
        <pt x="150" y="-136" on="0"/>
        <pt x="174" y="-30" on="1"/>
        <pt x="179" y="-6" on="0"/>
        <pt x="198" y="8" on="1"/>
        <pt x="199" y="8" on="0"/>
        <pt x="202" y="10" on="1"/>
        <pt x="204" y="12" on="0"/>
        <pt x="206" y="12" on="1"/>
        <pt x="184" y="20" on="0"/>
        <pt x="164" y="30" on="1"/>
        <pt x="134" y="47" on="0"/>
        <pt x="109" y="71" on="1"/>
        <pt x="4" y="175" on="0"/>
        <pt x="4" y="440" on="1"/>
        <pt x="4" y="606" on="0"/>
        <pt x="58" y="816" on="1"/>
        <pt x="125" y="1075" on="0"/>
        <pt x="251" y="1251" on="1"/>
        <pt x="403" y="1463" on="0"/>
        <pt x="618" y="1464" on="1"/>
        <pt x="713" y="1463" on="0"/>
        <pt x="798" y="1414" on="1"/>
        <pt x="831" y="1394" on="0"/>
        <pt x="856" y="1364" on="1"/>
        <pt x="932" y="1274" on="0"/>
        <pt x="932" y="1058" on="1"/>
        <pt x="932" y="879" on="0"/>
        <pt x="864" y="610" on="1"/>
        <pt x="833" y="488" on="0"/>
        <pt x="791" y="386" on="1"/>
        <pt x="662" y="73" on="0"/>
        <pt x="458" y="7" on="1"/>
        <pt x="560" y="-23" on="0"/>
        <pt x="676" y="14" on="1"/>
        <pt x="687" y="18" on="0"/>
        <pt x="697" y="13" on="1"/>
        <pt x="719" y="0" on="0"/>
        <pt x="710" y="-44" on="1"/>
        <pt x="688" y="-156" on="1"/>
        <pt x="687" y="-159" on="0"/>
        <pt x="686" y="-163" on="1"/>
        <pt x="679" y="-188" on="0"/>
        <pt x="650" y="-198" on="1"/>
        <pt x="512" y="-244" on="0"/>
        <pt x="422" y="-202" on="1"/>
        <pt x="317" y="-153" on="0"/>
        <pt x="180" y="-202" on="1"/>
        <pt x="171" y="-205" on="0"/>
        <pt x="164" y="-204" on="1"/>
        <pt x="137" y="-198" on="0"/>
      </contour>
      <contour>
        <pt x="342" y="752" on="1"/>
        <pt x="282" y="524" on="0"/>
        <pt x="282" y="381" on="1"/>
        <pt x="282" y="228" on="0"/>
        <pt x="350" y="228" on="1"/>
        <pt x="365" y="228" on="0"/>
        <pt x="380" y="232" on="1"/>
        <pt x="423" y="246" on="0"/>
        <pt x="472" y="328" on="1"/>
        <pt x="534" y="436" on="0"/>
        <pt x="596" y="682" on="1"/>
        <pt x="660" y="943" on="0"/>
        <pt x="660" y="1072" on="1"/>
        <pt x="660" y="1197" on="0"/>
        <pt x="600" y="1198" on="1"/>
        <pt x="524" y="1198" on="0"/>
        <pt x="472" y="1112" on="1"/>
        <pt x="409" y="1009" on="0"/>
      </contour>
    </TTGlyph>
    <TTGlyph name="R" xMin="-33" yMin="0" xMax="972" yMax="1448">
      <contour>
        <pt x="435" y="785" on="1"/>
        <pt x="510" y="796" on="1"/>
        <pt x="539" y="800" on="0"/>
        <pt x="543" y="802" on="1"/>
        <pt x="625" y="830" on="0"/>
        <pt x="651" y="871" on="1"/>
        <pt x="676" y="913" on="0"/>
        <pt x="684" y="943" on="1"/>
        <pt x="720" y="1077" on="0"/>
        <pt x="720" y="1164" on="1"/>
        <pt x="720" y="1180" on="0"/>
        <pt x="704" y="1193" on="1"/>
        <pt x="690" y="1205" on="0"/>
        <pt x="670" y="1209" on="1"/>
        <pt x="658" y="1211" on="0"/>
        <pt x="603" y="1212" on="1"/>
        <pt x="576" y="1212" on="0"/>
        <pt x="544" y="1212" on="1"/>
      </contour>
      <contour>
        <pt x="270" y="1214" on="1"/>
        <pt x="202" y="1214" on="1"/>
        <pt x="188" y="1214" on="0"/>
        <pt x="176" y="1221" on="1"/>
        <pt x="150" y="1237" on="0"/>
        <pt x="160" y="1270" on="1"/>
        <pt x="196" y="1408" on="1"/>
        <pt x="198" y="1416" on="0"/>
        <pt x="203" y="1424" on="1"/>
        <pt x="219" y="1448" on="0"/>
        <pt x="242" y="1448" on="1"/>
        <pt x="668" y="1448" on="1"/>
        <pt x="754" y="1448" on="0"/>
        <pt x="821" y="1422" on="1"/>
        <pt x="972" y="1362" on="0"/>
        <pt x="972" y="1188" on="1"/>
        <pt x="972" y="1069" on="0"/>
        <pt x="925" y="930" on="1"/>
        <pt x="874" y="779" on="0"/>
        <pt x="812" y="724" on="1"/>
        <pt x="745" y="658" on="0"/>
        <pt x="683" y="626" on="1"/>
        <pt x="764" y="84" on="1"/>
        <pt x="766" y="68" on="0"/>
        <pt x="766" y="54" on="1"/>
        <pt x="763" y="0" on="0"/>
        <pt x="710" y="0" on="1"/>
        <pt x="552" y="0" on="1"/>
        <pt x="542" y="0" on="0"/>
        <pt x="532" y="4" on="1"/>
        <pt x="490" y="23" on="0"/>
        <pt x="480" y="100" on="1"/>
        <pt x="420" y="583" on="1"/>
        <pt x="383" y="583" on="1"/>
        <pt x="246" y="44" on="1"/>
        <pt x="234" y="1" on="0"/>
        <pt x="186" y="0" on="1"/>
        <pt x="16" y="0" on="1"/>
        <pt x="3" y="0" on="0"/>
        <pt x="-7" y="6" on="1"/>
        <pt x="-33" y="23" on="0"/>
        <pt x="-24" y="62" on="1"/>
      </contour>
    </TTGlyph>
    <TTGlyph name="S" xMin="36" yMin="-32" xMax="982" yMax="1470">
      <contour>
        <pt x="700" y="1470" on="1"/>
        <pt x="742" y="1470" on="0"/>
        <pt x="779" y="1460" on="1"/>
        <pt x="982" y="1402" on="0"/>
        <pt x="976" y="1056" on="1"/>
        <pt x="975" y="1004" on="0"/>
        <pt x="928" y="992" on="1"/>
        <pt x="782" y="954" on="1"/>
        <pt x="771" y="951" on="0"/>
        <pt x="757" y="952" on="1"/>
        <pt x="714" y="957" on="0"/>
        <pt x="712" y="996" on="1"/>
        <pt x="705" y="1162" on="0"/>
        <pt x="649" y="1235" on="1"/>
        <pt x="642" y="1235" on="0"/>
        <pt x="636" y="1232" on="1"/>
        <pt x="612" y="1218" on="0"/>
        <pt x="580" y="1164" on="1"/>
        <pt x="514" y="1055" on="0"/>
        <pt x="514" y="960" on="1"/>
        <pt x="514" y="913" on="0"/>
        <pt x="532" y="888" on="1"/>
        <pt x="552" y="862" on="0"/>
        <pt x="624" y="842" on="1"/>
        <pt x="660" y="832" on="1"/>
        <pt x="715" y="817" on="0"/>
        <pt x="748" y="794" on="1"/>
        <pt x="834" y="733" on="0"/>
        <pt x="834" y="560" on="1"/>
        <pt x="834" y="473" on="0"/>
        <pt x="803" y="382" on="1"/>
        <pt x="746" y="213" on="0"/>
        <pt x="615" y="93" on="1"/>
        <pt x="478" y="-32" on="0"/>
        <pt x="336" y="-32" on="1"/>
        <pt x="262" y="-32" on="0"/>
        <pt x="204" y="-7" on="1"/>
        <pt x="36" y="66" on="0"/>
        <pt x="38" y="334" on="1"/>
        <pt x="38" y="345" on="0"/>
        <pt x="40" y="357" on="1"/>
        <pt x="49" y="416" on="0"/>
        <pt x="86" y="428" on="1"/>
        <pt x="240" y="482" on="1"/>
        <pt x="261" y="489" on="0"/>
        <pt x="282" y="488" on="1"/>
        <pt x="318" y="485" on="0"/>
        <pt x="318" y="452" on="1"/>
        <pt x="312" y="215" on="0"/>
        <pt x="348" y="172" on="1"/>
        <pt x="367" y="172" on="0"/>
        <pt x="382" y="178" on="1"/>
        <pt x="416" y="195" on="0"/>
        <pt x="449" y="237" on="1"/>
        <pt x="526" y="335" on="0"/>
        <pt x="526" y="470" on="1"/>
        <pt x="526" y="526" on="0"/>
        <pt x="518" y="552" on="1"/>
        <pt x="500" y="605" on="0"/>
        <pt x="416" y="626" on="1"/>
        <pt x="384" y="634" on="1"/>
        <pt x="358" y="641" on="0"/>
        <pt x="330" y="653" on="1"/>
        <pt x="200" y="714" on="0"/>
        <pt x="200" y="854" on="1"/>
        <pt x="200" y="931" on="0"/>
        <pt x="226" y="1017" on="1"/>
        <pt x="279" y="1192" on="0"/>
        <pt x="402" y="1321" on="1"/>
        <pt x="543" y="1470" on="0"/>
      </contour>
    </TTGlyph>
    <TTGlyph name="Scaron" xMin="36" yMin="-32" xMax="1077" yMax="1840">
      <component glyphName="caron" x="354" y="392" flags="0x1004"/>
      <component glyphName="S" x="0" y="0" flags="0x1004"/>
    </TTGlyph>
    <TTGlyph name="T" xMin="76" yMin="0" xMax="1103" yMax="1448">
      <contour>
        <pt x="1044" y="1448" on="1"/>
        <pt x="1103" y="1448" on="0"/>
        <pt x="1090" y="1384" on="1"/>
        <pt x="1064" y="1266" on="1"/>
        <pt x="1061" y="1254" on="0"/>
        <pt x="1053" y="1242" on="1"/>
        <pt x="1030" y="1210" on="0"/>
        <pt x="996" y="1210" on="1"/>
        <pt x="709" y="1210" on="1"/>
        <pt x="412" y="44" on="1"/>
        <pt x="400" y="1" on="0"/>
        <pt x="352" y="0" on="1"/>
        <pt x="180" y="0" on="1"/>
        <pt x="162" y="0" on="0"/>
        <pt x="134" y="28" on="0"/>
        <pt x="140" y="52" on="1"/>
        <pt x="435" y="1210" on="1"/>
        <pt x="130" y="1210" on="1"/>
        <pt x="123" y="1210" on="0"/>
        <pt x="115" y="1211" on="1"/>
        <pt x="76" y="1218" on="0"/>
        <pt x="92" y="1282" on="1"/>
        <pt x="124" y="1408" on="1"/>
        <pt x="128" y="1423" on="0"/>
        <pt x="133" y="1432" on="1"/>
        <pt x="144" y="1448" on="0"/>
        <pt x="184" y="1448" on="1"/>
      </contour>
    </TTGlyph>
    <TTGlyph name="Thorn" xMin="-33" yMin="0" xMax="940" yMax="1448">
      <contour>
        <pt x="318" y="1404" on="1"/>
        <pt x="330" y="1447" on="0"/>
        <pt x="378" y="1448" on="1"/>
        <pt x="548" y="1448" on="1"/>
        <pt x="561" y="1448" on="0"/>
        <pt x="571" y="1442" on="1"/>
        <pt x="597" y="1425" on="0"/>
        <pt x="588" y="1386" on="1"/>
        <pt x="569" y="1310" on="1"/>
        <pt x="636" y="1310" on="1"/>
        <pt x="722" y="1310" on="0"/>
        <pt x="789" y="1284" on="1"/>
        <pt x="940" y="1224" on="0"/>
        <pt x="940" y="1050" on="1"/>
        <pt x="940" y="931" on="0"/>
        <pt x="893" y="792" on="1"/>
        <pt x="842" y="641" on="0"/>
        <pt x="780" y="586" on="1"/>
        <pt x="749" y="555" on="0"/>
        <pt x="733" y="542" on="1"/>
        <pt x="617" y="448" on="0"/>
        <pt x="348" y="445" on="1"/>
        <pt x="246" y="44" on="1"/>
        <pt x="234" y="1" on="0"/>
        <pt x="186" y="0" on="1"/>
        <pt x="16" y="0" on="1"/>
        <pt x="3" y="0" on="0"/>
        <pt x="-7" y="6" on="1"/>
        <pt x="-33" y="23" on="0"/>
        <pt x="-24" y="62" on="1"/>
      </contour>
      <contour>
        <pt x="401" y="653" on="1"/>
        <pt x="478" y="658" on="1"/>
        <pt x="487" y="659" on="0"/>
        <pt x="497" y="660" on="1"/>
        <pt x="590" y="674" on="0"/>
        <pt x="640" y="766" on="1"/>
        <pt x="645" y="782" on="0"/>
        <pt x="652" y="805" on="1"/>
        <pt x="688" y="941" on="0"/>
        <pt x="688" y="1026" on="1"/>
        <pt x="688" y="1037" on="0"/>
        <pt x="679" y="1048" on="1"/>
        <pt x="659" y="1072" on="0"/>
        <pt x="628" y="1072" on="1"/>
        <pt x="601" y="1073" on="0"/>
        <pt x="509" y="1075" on="1"/>
      </contour>
    </TTGlyph>
    <TTGlyph name="U" xMin="25" yMin="-14" xMax="1161" yMax="1448">
      <contour>
        <pt x="432" y="-14" on="1"/>
        <pt x="242" y="-14" on="0"/>
        <pt x="160" y="70" on="1"/>
        <pt x="141" y="89" on="0"/>
        <pt x="126" y="113" on="1"/>
        <pt x="25" y="267" on="0"/>
        <pt x="112" y="604" on="1"/>
        <pt x="318" y="1404" on="1"/>
        <pt x="330" y="1447" on="0"/>
        <pt x="378" y="1448" on="1"/>
        <pt x="556" y="1448" on="1"/>
        <pt x="569" y="1448" on="0"/>
        <pt x="579" y="1442" on="1"/>
        <pt x="605" y="1425" on="0"/>
        <pt x="596" y="1386" on="1"/>
        <pt x="394" y="582" on="1"/>
        <pt x="346" y="391" on="0"/>
        <pt x="354" y="304" on="1"/>
        <pt x="363" y="204" on="0"/>
        <pt x="450" y="204" on="1"/>
        <pt x="498" y="204" on="0"/>
        <pt x="535" y="237" on="1"/>
        <pt x="611" y="307" on="0"/>
        <pt x="682" y="588" on="1"/>
        <pt x="890" y="1404" on="1"/>
        <pt x="902" y="1447" on="0"/>
        <pt x="950" y="1448" on="1"/>
        <pt x="1112" y="1448" on="1"/>
        <pt x="1125" y="1448" on="0"/>
        <pt x="1135" y="1442" on="1"/>
        <pt x="1161" y="1425" on="0"/>
        <pt x="1152" y="1386" on="1"/>
        <pt x="956" y="610" on="1"/>
        <pt x="891" y="353" on="0"/>
        <pt x="812" y="218" on="1"/>
        <pt x="675" y="-14" on="0"/>
      </contour>
    </TTGlyph>
    <TTGlyph name="Uacute" xMin="25" yMin="-14" xMax="1161" yMax="1814">
      <component glyphName="acute" x="478" y="366" flags="0x1004"/>
      <component glyphName="U" x="0" y="0" flags="0x1004"/>
    </TTGlyph>
    <TTGlyph name="Ucircumflex" xMin="25" yMin="-14" xMax="1161" yMax="1836">
      <component glyphName="circumflex" x="334" y="368" flags="0x1004"/>
      <component glyphName="U" x="0" y="0" flags="0x1004"/>
    </TTGlyph>
    <TTGlyph name="Udieresis" xMin="25" yMin="-14" xMax="1161" yMax="1810">
      <component glyphName="dieresis" x="212" y="354" flags="0x1004"/>
      <component glyphName="U" x="0" y="0" flags="0x1004"/>
    </TTGlyph>
    <TTGlyph name="Ugrave" xMin="25" yMin="-14" xMax="1161" yMax="1816">
      <component glyphName="grave" x="340" y="368" flags="0x1004"/>
      <component glyphName="U" x="0" y="0" flags="0x1004"/>
    </TTGlyph>
    <TTGlyph name="V" xMin="97" yMin="-2" xMax="1206" yMax="1450">
      <contour>
        <pt x="369" y="302" on="1"/>
        <pt x="910" y="1406" on="1"/>
        <pt x="932" y="1450" on="0"/>
        <pt x="986" y="1446" on="1"/>
        <pt x="1142" y="1440" on="1"/>
        <pt x="1172" y="1440" on="0"/>
        <pt x="1186" y="1422" on="1"/>
        <pt x="1206" y="1404" on="0"/>
        <pt x="1186" y="1366" on="1"/>
        <pt x="518" y="80" on="1"/>
        <pt x="509" y="64" on="0"/>
        <pt x="501" y="52" on="1"/>
        <pt x="462" y="0" on="0"/>
        <pt x="408" y="0" on="1"/>
        <pt x="178" y="-2" on="1"/>
        <pt x="145" y="0" on="0"/>
        <pt x="126" y="17" on="1"/>
        <pt x="97" y="42" on="0"/>
        <pt x="100" y="94" on="1"/>
        <pt x="174" y="1400" on="1"/>
        <pt x="176" y="1443" on="0"/>
        <pt x="234" y="1444" on="1"/>
        <pt x="396" y="1444" on="1"/>
        <pt x="416" y="1444" on="0"/>
        <pt x="429" y="1433" on="1"/>
        <pt x="444" y="1421" on="0"/>
        <pt x="442" y="1390" on="1"/>
      </contour>
    </TTGlyph>
    <TTGlyph name="W" xMin="52" yMin="0" xMax="1578" yMax="1448">
      <contour>
        <pt x="526" y="1448" on="1"/>
        <pt x="533" y="1448" on="0"/>
        <pt x="540" y="1446" on="1"/>
        <pt x="576" y="1433" on="0"/>
        <pt x="542" y="1370" on="1"/>
        <pt x="538" y="1363" on="0"/>
        <pt x="534" y="1354" on="1"/>
        <pt x="469" y="1223" on="0"/>
        <pt x="402" y="964" on="1"/>
        <pt x="297" y="557" on="0"/>
        <pt x="327" y="327" on="1"/>
        <pt x="430" y="468" on="0"/>
        <pt x="529" y="669" on="1"/>
        <pt x="681" y="980" on="0"/>
        <pt x="732" y="1232" on="1"/>
        <pt x="736" y="1234" on="1"/>
        <pt x="757" y="1338" on="0"/>
        <pt x="774" y="1396" on="1"/>
        <pt x="778" y="1407" on="0"/>
        <pt x="783" y="1417" on="1"/>
        <pt x="800" y="1448" on="0"/>
        <pt x="844" y="1448" on="1"/>
        <pt x="1024" y="1448" on="1"/>
        <pt x="1063" y="1443" on="0"/>
        <pt x="1050" y="1388" on="1"/>
        <pt x="953" y="1102" on="0"/>
        <pt x="932" y="830" on="1"/>
        <pt x="902" y="443" on="0"/>
        <pt x="935" y="295" on="1"/>
        <pt x="937" y="297" on="0"/>
        <pt x="939" y="300" on="1"/>
        <pt x="1094" y="497" on="0"/>
        <pt x="1207" y="885" on="1"/>
        <pt x="1294" y="1184" on="0"/>
        <pt x="1304" y="1400" on="1"/>
        <pt x="1305" y="1418" on="0"/>
        <pt x="1307" y="1426" on="1"/>
        <pt x="1312" y="1448" on="0"/>
        <pt x="1344" y="1448" on="1"/>
        <pt x="1524" y="1448" on="1"/>
        <pt x="1547" y="1448" on="0"/>
        <pt x="1560" y="1443" on="1"/>
        <pt x="1578" y="1435" on="0"/>
        <pt x="1578" y="1398" on="1"/>
        <pt x="1578" y="1278" on="0"/>
        <pt x="1534" y="1084" on="1"/>
        <pt x="1455" y="736" on="0"/>
        <pt x="1307" y="443" on="1"/>
        <pt x="1127" y="84" on="0"/>
        <pt x="930" y="0" on="1"/>
        <pt x="792" y="0" on="1"/>
        <pt x="786" y="0" on="0"/>
        <pt x="780" y="1" on="1"/>
        <pt x="755" y="5" on="0"/>
        <pt x="742" y="40" on="1"/>
        <pt x="688" y="194" on="0"/>
        <pt x="676" y="450" on="1"/>
        <pt x="661" y="423" on="0"/>
        <pt x="644" y="395" on="1"/>
        <pt x="495" y="145" on="0"/>
        <pt x="346" y="0" on="1"/>
        <pt x="196" y="0" on="1"/>
        <pt x="153" y="1" on="0"/>
        <pt x="138" y="40" on="1"/>
        <pt x="125" y="80" on="0"/>
        <pt x="114" y="126" on="1"/>
        <pt x="52" y="400" on="0"/>
        <pt x="102" y="783" on="1"/>
        <pt x="150" y="1157" on="0"/>
        <pt x="276" y="1420" on="1"/>
        <pt x="290" y="1447" on="0"/>
        <pt x="330" y="1448" on="1"/>
      </contour>
      <contour>
        <pt x="979" y="214" on="1"/>
        <pt x="986" y="210" on="0"/>
        <pt x="992" y="210" on="1"/>
      </contour>
    </TTGlyph>
    <TTGlyph name="X" xMin="-81" yMin="0" xMax="1033" yMax="1450">
      <contour>
        <pt x="526" y="0" on="1"/>
        <pt x="452" y="0" on="0"/>
        <pt x="444" y="68" on="1"/>
        <pt x="403" y="411" on="1"/>
        <pt x="232" y="34" on="1"/>
        <pt x="226" y="21" on="0"/>
        <pt x="212" y="11" on="1"/>
        <pt x="197" y="0" on="0"/>
        <pt x="166" y="0" on="1"/>
        <pt x="-26" y="0" on="1"/>
        <pt x="-56" y="0" on="0"/>
        <pt x="-67" y="18" on="1"/>
        <pt x="-81" y="41" on="0"/>
        <pt x="-58" y="84" on="1"/>
        <pt x="300" y="751" on="1"/>
        <pt x="166" y="1370" on="1"/>
        <pt x="158" y="1406" on="0"/>
        <pt x="169" y="1428" on="1"/>
        <pt x="179" y="1450" on="0"/>
        <pt x="218" y="1450" on="1"/>
        <pt x="366" y="1450" on="1"/>
        <pt x="433" y="1450" on="0"/>
        <pt x="448" y="1382" on="1"/>
        <pt x="514" y="1003" on="1"/>
        <pt x="712" y="1416" on="1"/>
        <pt x="718" y="1428" on="0"/>
        <pt x="733" y="1440" on="1"/>
        <pt x="746" y="1450" on="0"/>
        <pt x="779" y="1450" on="1"/>
        <pt x="968" y="1450" on="1"/>
        <pt x="1000" y="1450" on="0"/>
        <pt x="1012" y="1436" on="1"/>
        <pt x="1033" y="1410" on="0"/>
        <pt x="1006" y="1366" on="1"/>
        <pt x="598" y="671" on="1"/>
        <pt x="726" y="80" on="1"/>
        <pt x="735" y="40" on="0"/>
        <pt x="721" y="18" on="1"/>
        <pt x="710" y="0" on="0"/>
        <pt x="676" y="0" on="1"/>
      </contour>
    </TTGlyph>
    <TTGlyph name="Y" xMin="149" yMin="0" xMax="1103" yMax="1455">
      <contour>
        <pt x="523" y="895" on="1"/>
        <pt x="720" y="1194" on="0"/>
        <pt x="824" y="1422" on="1"/>
        <pt x="838" y="1450" on="0"/>
        <pt x="884" y="1448" on="1"/>
        <pt x="1054" y="1440" on="1"/>
        <pt x="1066" y="1439" on="0"/>
        <pt x="1076" y="1432" on="1"/>
        <pt x="1103" y="1411" on="0"/>
        <pt x="1078" y="1368" on="1"/>
        <pt x="1064" y="1344" on="0"/>
        <pt x="1049" y="1319" on="1"/>
        <pt x="827" y="939" on="0"/>
        <pt x="567" y="590" on="1"/>
        <pt x="428" y="44" on="1"/>
        <pt x="416" y="1" on="0"/>
        <pt x="368" y="0" on="1"/>
        <pt x="198" y="0" on="1"/>
        <pt x="185" y="0" on="0"/>
        <pt x="175" y="6" on="1"/>
        <pt x="149" y="23" on="0"/>
        <pt x="158" y="62" on="1"/>
        <pt x="298" y="614" on="1"/>
        <pt x="298" y="704" on="0"/>
        <pt x="282" y="862" on="1"/>
        <pt x="249" y="1183" on="0"/>
        <pt x="204" y="1358" on="1"/>
        <pt x="194" y="1385" on="0"/>
        <pt x="201" y="1409" on="1"/>
        <pt x="212" y="1444" on="0"/>
        <pt x="248" y="1446" on="1"/>
        <pt x="408" y="1454" on="1"/>
        <pt x="425" y="1455" on="0"/>
        <pt x="435" y="1453" on="1"/>
        <pt x="459" y="1448" on="0"/>
        <pt x="466" y="1406" on="1"/>
        <pt x="511" y="1141" on="0"/>
      </contour>
    </TTGlyph>
    <TTGlyph name="Yacute" xMin="149" yMin="0" xMax="1103" yMax="1814">
      <component glyphName="acute" x="410" y="366" flags="0x1004"/>
      <component glyphName="Y" x="0" y="0" flags="0x1004"/>
    </TTGlyph>
    <TTGlyph name="Ydieresis" xMin="149" yMin="0" xMax="1103" yMax="1780">
      <component glyphName="dieresis" x="90" y="324" flags="0x1004"/>
      <component glyphName="Y" x="0" y="0" flags="0x1004"/>
    </TTGlyph>
    <TTGlyph name="Z" xMin="-57" yMin="0" xMax="1046" yMax="1448">
      <contour>
        <pt x="312" y="1448" on="1"/>
        <pt x="312" y="1448" on="0"/>
        <pt x="994" y="1448" on="1"/>
        <pt x="1033" y="1448" on="0"/>
        <pt x="1042" y="1416" on="1"/>
        <pt x="1046" y="1401" on="0"/>
        <pt x="1042" y="1382" on="1"/>
        <pt x="1038" y="1376" on="1"/>
        <pt x="1014" y="1266" on="1"/>
        <pt x="1011" y="1254" on="0"/>
        <pt x="1003" y="1242" on="1"/>
        <pt x="980" y="1210" on="0"/>
        <pt x="946" y="1210" on="1"/>
        <pt x="937" y="1210" on="1"/>
        <pt x="341" y="238" on="1"/>
        <pt x="698" y="238" on="1"/>
        <pt x="757" y="238" on="0"/>
        <pt x="744" y="174" on="1"/>
        <pt x="718" y="56" on="1"/>
        <pt x="715" y="44" on="0"/>
        <pt x="707" y="32" on="1"/>
        <pt x="684" y="0" on="0"/>
        <pt x="650" y="0" on="1"/>
        <pt x="22" y="0" on="1"/>
        <pt x="-30" y="0" on="0"/>
        <pt x="-44" y="34" on="1"/>
        <pt x="-57" y="65" on="0"/>
        <pt x="-38" y="95" on="1"/>
        <pt x="654" y="1210" on="1"/>
        <pt x="286" y="1210" on="1"/>
        <pt x="279" y="1210" on="0"/>
        <pt x="271" y="1211" on="1"/>
        <pt x="232" y="1218" on="0"/>
        <pt x="248" y="1282" on="1"/>
        <pt x="280" y="1408" on="1"/>
        <pt x="285" y="1427" on="0"/>
        <pt x="287" y="1433" on="1"/>
        <pt x="293" y="1448" on="0"/>
      </contour>
    </TTGlyph>
    <TTGlyph name="Zcaron" xMin="-57" yMin="0" xMax="1046" yMax="1814">
      <component glyphName="caron" x="312" y="366" flags="0x1004"/>
      <component glyphName="Z" x="0" y="0" flags="0x1004"/>
    </TTGlyph>
    <TTGlyph name="a" xMin="9" yMin="-12" xMax="875" yMax="1086">
      <contour>
        <pt x="388" y="138" on="1"/>
        <pt x="389" y="138" on="1"/>
        <pt x="385" y="147" on="1"/>
        <pt x="366" y="124" on="1"/>
        <pt x="330" y="81" on="0"/>
        <pt x="304" y="53" on="1"/>
        <pt x="246" y="-6" on="0"/>
        <pt x="200" y="-6" on="1"/>
        <pt x="186" y="-6" on="1"/>
        <pt x="152" y="-4" on="0"/>
        <pt x="86" y="60" on="1"/>
        <pt x="9" y="136" on="0"/>
        <pt x="9" y="228" on="1"/>
        <pt x="9" y="406" on="0"/>
        <pt x="133" y="739" on="1"/>
        <pt x="214" y="959" on="0"/>
        <pt x="300" y="1024" on="1"/>
        <pt x="368" y="1075" on="0"/>
        <pt x="460" y="1076" on="1"/>
        <pt x="546" y="1076" on="0"/>
        <pt x="624" y="1021" on="1"/>
        <pt x="628" y="1038" on="1"/>
        <pt x="634" y="1062" on="0"/>
        <pt x="641" y="1070" on="1"/>
        <pt x="656" y="1086" on="0"/>
        <pt x="676" y="1086" on="1"/>
        <pt x="804" y="1086" on="1"/>
        <pt x="875" y="1086" on="0"/>
        <pt x="860" y="1020" on="1"/>
        <pt x="640" y="285" on="1"/>
        <pt x="668" y="313" on="0"/>
        <pt x="684" y="340" on="1"/>
        <pt x="704" y="372" on="0"/>
        <pt x="734" y="354" on="1"/>
        <pt x="822" y="296" on="1"/>
        <pt x="851" y="274" on="0"/>
        <pt x="836" y="250" on="1"/>
        <pt x="809" y="211" on="0"/>
        <pt x="779" y="176" on="1"/>
        <pt x="629" y="3" on="0"/>
        <pt x="476" y="-10" on="1"/>
        <pt x="453" y="-12" on="0"/>
        <pt x="440" y="12" on="1"/>
      </contour>
      <contour>
        <pt x="582" y="854" on="1"/>
        <pt x="578" y="855" on="0"/>
        <pt x="574" y="857" on="1"/>
        <pt x="537" y="868" on="0"/>
        <pt x="512" y="867" on="1"/>
        <pt x="489" y="867" on="0"/>
        <pt x="476" y="858" on="1"/>
        <pt x="441" y="831" on="0"/>
        <pt x="385" y="690" on="1"/>
        <pt x="313" y="509" on="0"/>
        <pt x="284" y="358" on="1"/>
        <pt x="278" y="324" on="0"/>
        <pt x="277" y="313" on="1"/>
        <pt x="277" y="298" on="0"/>
        <pt x="289" y="298" on="1"/>
        <pt x="296" y="298" on="0"/>
        <pt x="302" y="300" on="1"/>
        <pt x="339" y="317" on="0"/>
        <pt x="400" y="418" on="1"/>
        <pt x="506" y="601" on="0"/>
        <pt x="572" y="824" on="1"/>
      </contour>
    </TTGlyph>
    <TTGlyph name="aacute" xMin="7" yMin="-12" xMax="919" yMax="1452">
      <component glyphName="acute" x="350" y="4" flags="0x1004"/>
      <component glyphName="a" x="-2" y="0" flags="0x1004"/>
    </TTGlyph>
    <TTGlyph name="acircumflex" xMin="7" yMin="-12" xMax="884" yMax="1492">
      <component glyphName="circumflex" x="156" y="24" flags="0x1004"/>
      <component glyphName="a" x="-2" y="0" flags="0x1004"/>
    </TTGlyph>
    <TTGlyph name="acute" xMin="119" yMin="1150" xMax="569" yMax="1448">
      <contour>
        <pt x="526" y="1448" on="1"/>
        <pt x="538" y="1448" on="0"/>
        <pt x="547" y="1442" on="1"/>
        <pt x="569" y="1427" on="0"/>
        <pt x="540" y="1398" on="1"/>
        <pt x="320" y="1178" on="1"/>
        <pt x="292" y="1151" on="0"/>
        <pt x="252" y="1150" on="1"/>
        <pt x="154" y="1150" on="1"/>
        <pt x="146" y="1150" on="0"/>
        <pt x="140" y="1152" on="1"/>
        <pt x="119" y="1160" on="0"/>
        <pt x="134" y="1184" on="1"/>
        <pt x="272" y="1414" on="1"/>
        <pt x="294" y="1447" on="0"/>
        <pt x="334" y="1448" on="1"/>
      </contour>
    </TTGlyph>
    <TTGlyph name="adieresis" xMin="7" yMin="-12" xMax="956" yMax="1468">
      <component glyphName="dieresis" x="16" y="12" flags="0x1004"/>
      <component glyphName="a" x="-2" y="0" flags="0x1004"/>
    </TTGlyph>
    <TTGlyph name="ae" xMin="-30" yMin="-50" xMax="1004" yMax="1110">
      <contour>
        <pt x="611" y="551" on="1"/>
        <pt x="667" y="578" on="0"/>
        <pt x="712" y="629" on="1"/>
        <pt x="788" y="719" on="0"/>
        <pt x="788" y="824" on="1"/>
        <pt x="788" y="842" on="0"/>
        <pt x="786" y="854" on="1"/>
        <pt x="782" y="878" on="0"/>
        <pt x="762" y="878" on="1"/>
        <pt x="751" y="878" on="0"/>
        <pt x="732" y="857" on="1"/>
        <pt x="695" y="817" on="0"/>
        <pt x="680" y="776" on="1"/>
        <pt x="643" y="683" on="0"/>
      </contour>
      <contour>
        <pt x="563" y="337" on="1"/>
        <pt x="563" y="337" on="0"/>
        <pt x="560" y="322" on="1"/>
        <pt x="546" y="256" on="0"/>
        <pt x="558" y="234" on="1"/>
        <pt x="564" y="224" on="0"/>
        <pt x="594" y="214" on="1"/>
        <pt x="596" y="215" on="0"/>
        <pt x="600" y="216" on="1"/>
        <pt x="634" y="229" on="0"/>
        <pt x="728" y="328" on="1"/>
        <pt x="729" y="329" on="0"/>
        <pt x="731" y="331" on="1"/>
        <pt x="749" y="344" on="0"/>
        <pt x="768" y="332" on="1"/>
        <pt x="866" y="272" on="1"/>
        <pt x="870" y="269" on="0"/>
        <pt x="875" y="265" on="1"/>
        <pt x="893" y="245" on="0"/>
        <pt x="884" y="228" on="1"/>
        <pt x="880" y="220" on="0"/>
        <pt x="873" y="210" on="1"/>
        <pt x="825" y="139" on="0"/>
        <pt x="716" y="52" on="1"/>
        <pt x="592" y="-46" on="0"/>
        <pt x="546" y="-38" on="1"/>
        <pt x="410" y="-2" on="0"/>
        <pt x="358" y="63" on="1"/>
        <pt x="335" y="37" on="0"/>
        <pt x="307" y="18" on="1"/>
        <pt x="209" y="-50" on="0"/>
        <pt x="110" y="-8" on="1"/>
        <pt x="108" y="-7" on="0"/>
        <pt x="104" y="-6" on="1"/>
        <pt x="-30" y="55" on="0"/>
        <pt x="-30" y="198" on="1"/>
        <pt x="-26" y="348" on="0"/>
        <pt x="113" y="497" on="1"/>
        <pt x="239" y="624" on="0"/>
        <pt x="407" y="679" on="1"/>
        <pt x="414" y="714" on="1"/>
        <pt x="427" y="774" on="0"/>
        <pt x="419" y="801" on="1"/>
        <pt x="412" y="825" on="0"/>
        <pt x="380" y="836" on="1"/>
        <pt x="378" y="835" on="0"/>
        <pt x="374" y="834" on="1"/>
        <pt x="340" y="821" on="0"/>
        <pt x="246" y="722" on="1"/>
        <pt x="245" y="721" on="0"/>
        <pt x="243" y="719" on="1"/>
        <pt x="225" y="706" on="0"/>
        <pt x="206" y="718" on="1"/>
        <pt x="108" y="778" on="1"/>
        <pt x="104" y="781" on="0"/>
        <pt x="99" y="785" on="1"/>
        <pt x="81" y="805" on="0"/>
        <pt x="90" y="822" on="1"/>
        <pt x="94" y="830" on="0"/>
        <pt x="101" y="840" on="1"/>
        <pt x="149" y="911" on="0"/>
        <pt x="258" y="998" on="1"/>
        <pt x="382" y="1096" on="0"/>
        <pt x="428" y="1088" on="1"/>
        <pt x="564" y="1052" on="0"/>
        <pt x="616" y="988" on="1"/>
        <pt x="622" y="994" on="0"/>
        <pt x="629" y="1001" on="1"/>
        <pt x="743" y="1110" on="0"/>
        <pt x="864" y="1058" on="1"/>
        <pt x="866" y="1057" on="0"/>
        <pt x="870" y="1056" on="1"/>
        <pt x="1004" y="995" on="0"/>
        <pt x="1004" y="852" on="1"/>
        <pt x="1004" y="829" on="0"/>
        <pt x="1000" y="805" on="1"/>
        <pt x="978" y="658" on="0"/>
        <pt x="847" y="520" on="1"/>
        <pt x="720" y="386" on="0"/>
      </contour>
      <contour>
        <pt x="357" y="464" on="1"/>
        <pt x="323" y="448" on="0"/>
        <pt x="294" y="426" on="1"/>
        <pt x="186" y="344" on="0"/>
        <pt x="186" y="226" on="1"/>
        <pt x="186" y="208" on="0"/>
        <pt x="188" y="196" on="1"/>
        <pt x="192" y="172" on="0"/>
        <pt x="212" y="172" on="1"/>
        <pt x="223" y="173" on="0"/>
        <pt x="242" y="189" on="1"/>
        <pt x="280" y="224" on="0"/>
        <pt x="294" y="260" on="1"/>
        <pt x="327" y="344" on="0"/>
      </contour>
    </TTGlyph>
    <TTGlyph name="agrave" xMin="7" yMin="-12" xMax="873" yMax="1446">
      <component glyphName="grave" x="158" y="-2" flags="0x1004"/>
      <component glyphName="a" x="-2" y="0" flags="0x1004"/>
    </TTGlyph>
    <TTGlyph name="ampersand" xMin="31" yMin="-134" xMax="1213" yMax="1350">
      <contour>
        <pt x="814" y="864" on="1"/>
        <pt x="814" y="864" on="0"/>
        <pt x="1182" y="864" on="1"/>
        <pt x="1213" y="861" on="0"/>
        <pt x="1200" y="820" on="1"/>
        <pt x="1172" y="728" on="1"/>
        <pt x="1169" y="718" on="0"/>
        <pt x="1168" y="714" on="1"/>
        <pt x="1154" y="672" on="0"/>
        <pt x="1130" y="672" on="1"/>
        <pt x="1033" y="672" on="1"/>
        <pt x="1026" y="649" on="0"/>
        <pt x="1018" y="623" on="1"/>
        <pt x="968" y="473" on="0"/>
        <pt x="898" y="360" on="1"/>
        <pt x="875" y="322" on="0"/>
        <pt x="844" y="278" on="1"/>
        <pt x="970" y="95" on="0"/>
        <pt x="1070" y="-24" on="1"/>
        <pt x="1076" y="-32" on="0"/>
        <pt x="1079" y="-43" on="1"/>
        <pt x="1086" y="-76" on="0"/>
        <pt x="1044" y="-88" on="1"/>
        <pt x="1035" y="-91" on="0"/>
        <pt x="1023" y="-94" on="1"/>
        <pt x="863" y="-134" on="0"/>
        <pt x="766" y="-88" on="1"/>
        <pt x="707" y="-25" on="0"/>
        <pt x="640" y="65" on="1"/>
        <pt x="512" y="-24" on="0"/>
        <pt x="367" y="-24" on="1"/>
        <pt x="335" y="-24" on="0"/>
        <pt x="302" y="-20" on="1"/>
        <pt x="192" y="-4" on="0"/>
        <pt x="122" y="56" on="1"/>
        <pt x="31" y="135" on="0"/>
        <pt x="31" y="265" on="1"/>
        <pt x="31" y="295" on="0"/>
        <pt x="36" y="328" on="1"/>
        <pt x="47" y="411" on="0"/>
        <pt x="88" y="480" on="1"/>
        <pt x="149" y="582" on="0"/>
        <pt x="297" y="670" on="1"/>
        <pt x="288" y="694" on="0"/>
        <pt x="281" y="714" on="1"/>
        <pt x="235" y="846" on="0"/>
        <pt x="250" y="952" on="1"/>
        <pt x="255" y="987" on="0"/>
        <pt x="267" y="1024" on="1"/>
        <pt x="314" y="1165" on="0"/>
        <pt x="434" y="1257" on="1"/>
        <pt x="556" y="1350" on="0"/>
        <pt x="699" y="1350" on="1"/>
        <pt x="730" y="1350" on="0"/>
        <pt x="762" y="1346" on="1"/>
        <pt x="763" y="1346" on="0"/>
        <pt x="764" y="1346" on="1"/>
        <pt x="791" y="1342" on="0"/>
        <pt x="791" y="1313" on="1"/>
        <pt x="791" y="1307" on="0"/>
        <pt x="790" y="1300" on="1"/>
        <pt x="764" y="1220" on="1"/>
        <pt x="753" y="1189" on="0"/>
        <pt x="716" y="1180" on="1"/>
        <pt x="666" y="1179" on="0"/>
        <pt x="610" y="1133" on="1"/>
        <pt x="524" y="1062" on="0"/>
        <pt x="524" y="958" on="1"/>
        <pt x="524" y="865" on="0"/>
        <pt x="590" y="700" on="1"/>
        <pt x="617" y="632" on="0"/>
        <pt x="718" y="470" on="1"/>
        <pt x="774" y="568" on="0"/>
        <pt x="803" y="672" on="1"/>
        <pt x="776" y="672" on="1"/>
        <pt x="745" y="672" on="0"/>
        <pt x="742" y="687" on="1"/>
        <pt x="742" y="690" on="0"/>
        <pt x="752" y="728" on="1"/>
        <pt x="784" y="840" on="1"/>
        <pt x="785" y="844" on="0"/>
        <pt x="787" y="849" on="1"/>
        <pt x="794" y="864" on="0"/>
      </contour>
      <contour>
        <pt x="390" y="465" on="1"/>
        <pt x="307" y="393" on="0"/>
        <pt x="306" y="302" on="1"/>
        <pt x="306" y="284" on="0"/>
        <pt x="310" y="266" on="1"/>
        <pt x="328" y="190" on="0"/>
        <pt x="404" y="190" on="1"/>
        <pt x="454" y="190" on="0"/>
        <pt x="521" y="239" on="1"/>
        <pt x="460" y="336" on="0"/>
      </contour>
    </TTGlyph>
    <TTGlyph name="aogonek" xMin="1" yMin="-400" xMax="866" yMax="1086">
      <contour>
        <pt x="562" y="825" on="1"/>
        <pt x="500" y="865" on="0"/>
        <pt x="460" y="838" on="1"/>
        <pt x="424" y="810" on="0"/>
        <pt x="367" y="672" on="1"/>
        <pt x="293" y="493" on="0"/>
        <pt x="268" y="360" on="1"/>
        <pt x="265" y="339" on="0"/>
        <pt x="265" y="328" on="1"/>
        <pt x="266" y="312" on="0"/>
        <pt x="286" y="312" on="1"/>
        <pt x="315" y="312" on="0"/>
        <pt x="376" y="419" on="1"/>
        <pt x="469" y="580" on="0"/>
        <pt x="562" y="824" on="1"/>
      </contour>
      <contour>
        <pt x="614" y="1021" on="1"/>
        <pt x="614" y="1021" on="0"/>
        <pt x="616" y="1030" on="1"/>
        <pt x="618" y="1037" on="0"/>
        <pt x="619" y="1043" on="1"/>
        <pt x="631" y="1084" on="0"/>
        <pt x="666" y="1084" on="1"/>
        <pt x="794" y="1086" on="1"/>
        <pt x="866" y="1085" on="0"/>
        <pt x="850" y="1020" on="1"/>
        <pt x="580" y="56" on="1"/>
        <pt x="575" y="39" on="0"/>
        <pt x="566" y="24" on="1"/>
        <pt x="565" y="11" on="0"/>
        <pt x="550" y="4" on="1"/>
        <pt x="489" y="-16" on="0"/>
        <pt x="444" y="-45" on="1"/>
        <pt x="348" y="-107" on="0"/>
        <pt x="348" y="-186" on="1"/>
        <pt x="348" y="-198" on="0"/>
        <pt x="352" y="-209" on="1"/>
        <pt x="367" y="-247" on="0"/>
        <pt x="420" y="-244" on="1"/>
        <pt x="440" y="-243" on="0"/>
        <pt x="488" y="-228" on="1"/>
        <pt x="516" y="-222" on="0"/>
        <pt x="528" y="-252" on="1"/>
        <pt x="548" y="-322" on="1"/>
        <pt x="557" y="-350" on="0"/>
        <pt x="522" y="-366" on="1"/>
        <pt x="511" y="-370" on="1"/>
        <pt x="500" y="-374" on="0"/>
        <pt x="485" y="-380" on="0"/>
        <pt x="451" y="-390" on="0"/>
        <pt x="420" y="-396" on="0"/>
        <pt x="375" y="-400" on="0"/>
        <pt x="352" y="-400" on="1"/>
        <pt x="257" y="-400" on="0"/>
        <pt x="204" y="-356" on="1"/>
        <pt x="201" y="-354" on="0"/>
        <pt x="198" y="-351" on="1"/>
        <pt x="148" y="-305" on="0"/>
        <pt x="148" y="-232" on="1"/>
        <pt x="148" y="-195" on="0"/>
        <pt x="159" y="-159" on="1"/>
        <pt x="198" y="-33" on="0"/>
        <pt x="358" y="51" on="1"/>
        <pt x="358" y="58" on="0"/>
        <pt x="362" y="72" on="1"/>
        <pt x="391" y="174" on="1"/>
        <pt x="314" y="82" on="1"/>
        <pt x="238" y="-9" on="0"/>
        <pt x="150" y="-10" on="1"/>
        <pt x="61" y="-9" on="0"/>
        <pt x="28" y="58" on="1"/>
        <pt x="1" y="115" on="0"/>
        <pt x="16" y="254" on="1"/>
        <pt x="16" y="257" on="0"/>
        <pt x="17" y="262" on="1"/>
        <pt x="42" y="491" on="0"/>
        <pt x="139" y="739" on="1"/>
        <pt x="227" y="963" on="0"/>
        <pt x="306" y="1024" on="1"/>
        <pt x="374" y="1075" on="0"/>
        <pt x="450" y="1076" on="1"/>
        <pt x="536" y="1076" on="0"/>
      </contour>
    </TTGlyph>
    <TTGlyph name="aring" xMin="7" yMin="-12" xMax="945" yMax="1798">
      <component glyphName="ring" x="-152" y="68" flags="0x1004"/>
      <component glyphName="a" x="-2" y="0" flags="0x1004"/>
    </TTGlyph>
    <TTGlyph name="asciicircum" xMin="-16" yMin="426" xMax="860" yMax="1272">
      <contour>
        <pt x="672" y="1272" on="1"/>
        <pt x="690" y="1272" on="1"/>
        <pt x="786" y="1272" on="1"/>
        <pt x="800" y="1272" on="0"/>
        <pt x="815" y="1266" on="1"/>
        <pt x="860" y="1247" on="0"/>
        <pt x="858" y="1194" on="1"/>
        <pt x="840" y="460" on="1"/>
        <pt x="835" y="431" on="0"/>
        <pt x="782" y="426" on="1"/>
        <pt x="630" y="426" on="1"/>
        <pt x="580" y="427" on="0"/>
        <pt x="578" y="462" on="1"/>
        <pt x="612" y="1118" on="1"/>
        <pt x="254" y="460" on="1"/>
        <pt x="249" y="431" on="0"/>
        <pt x="196" y="426" on="1"/>
        <pt x="36" y="426" on="1"/>
        <pt x="-14" y="427" on="0"/>
        <pt x="-16" y="462" on="1"/>
        <pt x="418" y="1184" on="1"/>
        <pt x="429" y="1203" on="0"/>
        <pt x="445" y="1220" on="1"/>
        <pt x="494" y="1272" on="0"/>
        <pt x="554" y="1272" on="1"/>
      </contour>
    </TTGlyph>
    <TTGlyph name="asciitilde" xMin="91" yMin="619" xMax="851" yMax="936">
      <contour>
        <pt x="108" y="738" on="1"/>
        <pt x="108" y="738" on="0"/>
        <pt x="138" y="856" on="1"/>
        <pt x="138" y="857" on="0"/>
        <pt x="139" y="859" on="1"/>
        <pt x="146" y="883" on="0"/>
        <pt x="170" y="896" on="1"/>
        <pt x="202" y="909" on="0"/>
        <pt x="250" y="917" on="1"/>
        <pt x="377" y="936" on="0"/>
        <pt x="480" y="904" on="1"/>
        <pt x="487" y="902" on="0"/>
        <pt x="495" y="900" on="1"/>
        <pt x="631" y="862" on="0"/>
        <pt x="794" y="904" on="1"/>
        <pt x="811" y="908" on="0"/>
        <pt x="824" y="902" on="1"/>
        <pt x="851" y="887" on="0"/>
        <pt x="840" y="840" on="1"/>
        <pt x="812" y="716" on="1"/>
        <pt x="811" y="712" on="0"/>
        <pt x="809" y="707" on="1"/>
        <pt x="799" y="682" on="0"/>
        <pt x="760" y="670" on="1"/>
        <pt x="582" y="619" on="0"/>
        <pt x="464" y="666" on="1"/>
        <pt x="326" y="722" on="0"/>
        <pt x="146" y="666" on="1"/>
        <pt x="131" y="661" on="0"/>
        <pt x="121" y="665" on="1"/>
        <pt x="91" y="677" on="0"/>
      </contour>
    </TTGlyph>
    <TTGlyph name="asterisk" xMin="82" yMin="694" xMax="868" yMax="1484">
      <contour>
        <pt x="342" y="1064" on="1"/>
        <pt x="128" y="1080" on="1"/>
        <pt x="116" y="1081" on="0"/>
        <pt x="106" y="1089" on="1"/>
        <pt x="82" y="1110" on="0"/>
        <pt x="94" y="1150" on="1"/>
        <pt x="126" y="1264" on="1"/>
        <pt x="129" y="1275" on="0"/>
        <pt x="137" y="1286" on="1"/>
        <pt x="159" y="1315" on="0"/>
        <pt x="186" y="1302" on="1"/>
        <pt x="406" y="1204" on="1"/>
        <pt x="416" y="1434" on="1"/>
        <pt x="417" y="1439" on="0"/>
        <pt x="419" y="1444" on="1"/>
        <pt x="434" y="1484" on="0"/>
        <pt x="490" y="1484" on="1"/>
        <pt x="596" y="1484" on="1"/>
        <pt x="611" y="1484" on="0"/>
        <pt x="625" y="1477" on="1"/>
        <pt x="664" y="1458" on="0"/>
        <pt x="646" y="1418" on="1"/>
        <pt x="550" y="1202" on="1"/>
        <pt x="800" y="1296" on="1"/>
        <pt x="820" y="1304" on="0"/>
        <pt x="838" y="1296" on="1"/>
        <pt x="868" y="1282" on="0"/>
        <pt x="868" y="1240" on="1"/>
        <pt x="868" y="1156" on="1"/>
        <pt x="867" y="1101" on="0"/>
        <pt x="818" y="1092" on="1"/>
        <pt x="552" y="1060" on="1"/>
        <pt x="698" y="852" on="1"/>
        <pt x="703" y="845" on="0"/>
        <pt x="706" y="835" on="1"/>
        <pt x="714" y="801" on="0"/>
        <pt x="680" y="780" on="1"/>
        <pt x="578" y="718" on="1"/>
        <pt x="573" y="715" on="0"/>
        <pt x="566" y="712" on="1"/>
        <pt x="520" y="694" on="0"/>
        <pt x="506" y="742" on="1"/>
        <pt x="438" y="976" on="1"/>
        <pt x="272" y="752" on="1"/>
        <pt x="260" y="736" on="0"/>
        <pt x="244" y="728" on="1"/>
        <pt x="214" y="715" on="0"/>
        <pt x="192" y="742" on="1"/>
        <pt x="122" y="820" on="1"/>
        <pt x="86" y="864" on="0"/>
        <pt x="128" y="898" on="1"/>
      </contour>
    </TTGlyph>
    <TTGlyph name="at" xMin="109" yMin="-354" xMax="1745" yMax="1400">
      <contour>
        <pt x="1117" y="941" on="1"/>
        <pt x="1117" y="941" on="0"/>
        <pt x="1120" y="956" on="1"/>
        <pt x="1121" y="960" on="0"/>
        <pt x="1123" y="968" on="1"/>
        <pt x="1134" y="1008" on="0"/>
        <pt x="1170" y="1008" on="1"/>
        <pt x="1284" y="1008" on="1"/>
        <pt x="1355" y="1008" on="0"/>
        <pt x="1338" y="946" on="1"/>
        <pt x="1174" y="338" on="1"/>
        <pt x="1166" y="308" on="0"/>
        <pt x="1168" y="284" on="1"/>
        <pt x="1173" y="240" on="0"/>
        <pt x="1214" y="240" on="1"/>
        <pt x="1250" y="240" on="0"/>
        <pt x="1288" y="258" on="1"/>
        <pt x="1432" y="330" on="0"/>
        <pt x="1492" y="615" on="1"/>
        <pt x="1510" y="703" on="0"/>
        <pt x="1511" y="780" on="1"/>
        <pt x="1511" y="934" on="0"/>
        <pt x="1436" y="1043" on="1"/>
        <pt x="1314" y="1220" on="0"/>
        <pt x="1028" y="1220" on="1"/>
        <pt x="816" y="1220" on="0"/>
        <pt x="649" y="1077" on="1"/>
        <pt x="467" y="921" on="0"/>
        <pt x="398" y="656" on="1"/>
        <pt x="367" y="535" on="0"/>
        <pt x="366" y="409" on="1"/>
        <pt x="366" y="242" on="0"/>
        <pt x="430" y="110" on="1"/>
        <pt x="558" y="-157" on="0"/>
        <pt x="904" y="-168" on="1"/>
        <pt x="931" y="-169" on="0"/>
        <pt x="952" y="-175" on="1"/>
        <pt x="1028" y="-196" on="0"/>
        <pt x="964" y="-268" on="1"/>
        <pt x="918" y="-318" on="1"/>
        <pt x="907" y="-330" on="0"/>
        <pt x="893" y="-339" on="1"/>
        <pt x="868" y="-354" on="0"/>
        <pt x="804" y="-354" on="1"/>
        <pt x="558" y="-354" on="0"/>
        <pt x="383" y="-216" on="1"/>
        <pt x="202" y="-72" on="0"/>
        <pt x="138" y="185" on="1"/>
        <pt x="109" y="302" on="0"/>
        <pt x="109" y="420" on="1"/>
        <pt x="109" y="578" on="0"/>
        <pt x="160" y="733" on="1"/>
        <pt x="267" y="1058" on="0"/>
        <pt x="518" y="1238" on="1"/>
        <pt x="746" y="1400" on="0"/>
        <pt x="1026" y="1400" on="1"/>
        <pt x="1153" y="1400" on="0"/>
        <pt x="1262" y="1375" on="1"/>
        <pt x="1542" y="1311" on="0"/>
        <pt x="1665" y="1099" on="1"/>
        <pt x="1745" y="961" on="0"/>
        <pt x="1744" y="783" on="1"/>
        <pt x="1744" y="670" on="0"/>
        <pt x="1712" y="542" on="1"/>
        <pt x="1644" y="271" on="0"/>
        <pt x="1466" y="122" on="1"/>
        <pt x="1337" y="14" on="0"/>
        <pt x="1206" y="14" on="1"/>
        <pt x="1160" y="14" on="0"/>
        <pt x="1125" y="22" on="1"/>
        <pt x="1031" y="42" on="0"/>
        <pt x="981" y="132" on="1"/>
        <pt x="970" y="117" on="0"/>
        <pt x="957" y="102" on="1"/>
        <pt x="880" y="20" on="0"/>
        <pt x="782" y="20" on="1"/>
        <pt x="754" y="20" on="0"/>
        <pt x="723" y="30" on="1"/>
        <pt x="637" y="59" on="0"/>
        <pt x="600" y="140" on="1"/>
        <pt x="559" y="237" on="0"/>
        <pt x="559" y="342" on="1"/>
        <pt x="559" y="531" on="0"/>
        <pt x="667" y="742" on="1"/>
        <pt x="743" y="890" on="0"/>
        <pt x="822" y="950" on="1"/>
        <pt x="894" y="1000" on="0"/>
        <pt x="960" y="1000" on="1"/>
        <pt x="1032" y="1000" on="0"/>
      </contour>
      <contour>
        <pt x="1067" y="713" on="1"/>
        <pt x="1057" y="720" on="0"/>
        <pt x="1046" y="727" on="1"/>
        <pt x="1011" y="747" on="0"/>
        <pt x="984" y="747" on="1"/>
        <pt x="964" y="747" on="0"/>
        <pt x="948" y="736" on="1"/>
        <pt x="910" y="707" on="0"/>
        <pt x="860" y="607" on="1"/>
        <pt x="784" y="454" on="0"/>
        <pt x="784" y="342" on="1"/>
        <pt x="786" y="259" on="0"/>
        <pt x="830" y="254" on="1"/>
        <pt x="884" y="255" on="0"/>
        <pt x="944" y="352" on="1"/>
        <pt x="1014" y="465" on="0"/>
      </contour>
    </TTGlyph>
    <TTGlyph name="atilde" xMin="7" yMin="-12" xMax="943" yMax="1470">
      <component glyphName="tildecomb" x="2" y="68" flags="0x1004"/>
      <component glyphName="a" x="-2" y="0" flags="0x1004"/>
    </TTGlyph>
    <TTGlyph name="b" xMin="-35" yMin="-8" xMax="856" yMax="1518">
      <contour>
        <pt x="604" y="1472" on="1"/>
        <pt x="604" y="1472" on="0"/>
        <pt x="456" y="891" on="1"/>
        <pt x="500" y="944" on="1"/>
        <pt x="537" y="989" on="0"/>
        <pt x="562" y="1015" on="1"/>
        <pt x="620" y="1074" on="0"/>
        <pt x="666" y="1074" on="1"/>
        <pt x="680" y="1074" on="1"/>
        <pt x="714" y="1072" on="0"/>
        <pt x="780" y="1008" on="1"/>
        <pt x="856" y="929" on="0"/>
        <pt x="856" y="833" on="1"/>
        <pt x="856" y="657" on="0"/>
        <pt x="733" y="329" on="1"/>
        <pt x="651" y="109" on="0"/>
        <pt x="566" y="44" on="1"/>
        <pt x="498" y="-7" on="0"/>
        <pt x="406" y="-8" on="1"/>
        <pt x="320" y="-8" on="0"/>
        <pt x="241" y="48" on="1"/>
        <pt x="240" y="44" on="1"/>
        <pt x="228" y="1" on="0"/>
        <pt x="180" y="0" on="1"/>
        <pt x="26" y="0" on="1"/>
        <pt x="4" y="0" on="0"/>
        <pt x="-10" y="10" on="1"/>
        <pt x="-35" y="26" on="0"/>
        <pt x="-26" y="64" on="1"/>
        <pt x="334" y="1474" on="1"/>
        <pt x="346" y="1517" on="0"/>
        <pt x="394" y="1518" on="1"/>
        <pt x="560" y="1518" on="1"/>
        <pt x="613" y="1518" on="0"/>
      </contour>
      <contour>
        <pt x="284" y="214" on="1"/>
        <pt x="326" y="200" on="0"/>
        <pt x="354" y="200" on="1"/>
        <pt x="377" y="200" on="0"/>
        <pt x="390" y="210" on="1"/>
        <pt x="425" y="237" on="0"/>
        <pt x="481" y="378" on="1"/>
        <pt x="543" y="535" on="0"/>
        <pt x="582" y="710" on="1"/>
        <pt x="587" y="734" on="0"/>
        <pt x="588" y="755" on="1"/>
        <pt x="588" y="769" on="0"/>
        <pt x="575" y="770" on="1"/>
        <pt x="567" y="770" on="0"/>
        <pt x="564" y="768" on="1"/>
        <pt x="527" y="751" on="0"/>
        <pt x="466" y="650" on="1"/>
        <pt x="360" y="467" on="0"/>
        <pt x="294" y="244" on="1"/>
      </contour>
    </TTGlyph>
    <TTGlyph name="backslash" xMin="146" yMin="0" xMax="543" yMax="1520">
      <contour>
        <pt x="152" y="1442" on="1"/>
        <pt x="152" y="1443" on="0"/>
        <pt x="152" y="1444" on="1"/>
        <pt x="146" y="1520" on="0"/>
        <pt x="208" y="1520" on="1"/>
        <pt x="360" y="1520" on="1"/>
        <pt x="414" y="1519" on="0"/>
        <pt x="420" y="1458" on="1"/>
        <pt x="420" y="1458" on="0"/>
        <pt x="538" y="60" on="1"/>
        <pt x="543" y="2" on="0"/>
        <pt x="484" y="0" on="1"/>
        <pt x="326" y="0" on="1"/>
        <pt x="280" y="1" on="0"/>
        <pt x="272" y="62" on="1"/>
      </contour>
    </TTGlyph>
    <TTGlyph name="bar" xMin="-159" yMin="-400" xMax="579" yMax="1518">
      <contour>
        <pt x="570" y="1472" on="1"/>
        <pt x="570" y="1472" on="0"/>
        <pt x="102" y="-356" on="1"/>
        <pt x="90" y="-399" on="0"/>
        <pt x="42" y="-400" on="1"/>
        <pt x="-96" y="-400" on="1"/>
        <pt x="-109" y="-400" on="0"/>
        <pt x="-120" y="-397" on="1"/>
        <pt x="-159" y="-384" on="0"/>
        <pt x="-148" y="-336" on="1"/>
        <pt x="316" y="1474" on="1"/>
        <pt x="328" y="1517" on="0"/>
        <pt x="376" y="1518" on="1"/>
        <pt x="526" y="1518" on="1"/>
        <pt x="579" y="1517" on="0"/>
      </contour>
    </TTGlyph>
    <TTGlyph name="braceleft" xMin="-63" yMin="-328" xMax="979" yMax="1732">
      <contour>
        <pt x="414" y="-324" on="1"/>
        <pt x="186" y="-328" on="1"/>
        <pt x="109" y="-328" on="0"/>
        <pt x="45" y="-281" on="1"/>
        <pt x="-40" y="-218" on="0"/>
        <pt x="-54" y="-112" on="1"/>
        <pt x="-63" y="-66" on="0"/>
        <pt x="-51" y="-7" on="1"/>
        <pt x="-33" y="75" on="0"/>
        <pt x="54" y="238" on="1"/>
        <pt x="132" y="383" on="0"/>
        <pt x="148" y="438" on="1"/>
        <pt x="182" y="552" on="0"/>
        <pt x="94" y="586" on="1"/>
        <pt x="48" y="604" on="1"/>
        <pt x="1" y="623" on="0"/>
        <pt x="14" y="682" on="1"/>
        <pt x="50" y="832" on="1"/>
        <pt x="50" y="833" on="0"/>
        <pt x="51" y="836" on="1"/>
        <pt x="64" y="878" on="0"/>
        <pt x="122" y="892" on="1"/>
        <pt x="202" y="912" on="1"/>
        <pt x="212" y="915" on="0"/>
        <pt x="221" y="918" on="1"/>
        <pt x="308" y="951" on="0"/>
        <pt x="312" y="1073" on="1"/>
        <pt x="313" y="1100" on="0"/>
        <pt x="302" y="1224" on="1"/>
        <pt x="291" y="1354" on="0"/>
        <pt x="308" y="1450" on="1"/>
        <pt x="360" y="1728" on="0"/>
        <pt x="680" y="1732" on="1"/>
        <pt x="920" y="1732" on="1"/>
        <pt x="979" y="1731" on="0"/>
        <pt x="966" y="1668" on="1"/>
        <pt x="940" y="1550" on="1"/>
        <pt x="937" y="1538" on="0"/>
        <pt x="929" y="1526" on="1"/>
        <pt x="906" y="1494" on="0"/>
        <pt x="874" y="1494" on="1"/>
        <pt x="716" y="1494" on="1"/>
        <pt x="672" y="1494" on="0"/>
        <pt x="638" y="1484" on="1"/>
        <pt x="507" y="1445" on="0"/>
        <pt x="532" y="1234" on="1"/>
        <pt x="536" y="1196" on="0"/>
        <pt x="539" y="1168" on="1"/>
        <pt x="563" y="932" on="0"/>
        <pt x="508" y="854" on="1"/>
        <pt x="467" y="795" on="0"/>
        <pt x="407" y="761" on="1"/>
        <pt x="383" y="748" on="0"/>
        <pt x="290" y="712" on="1"/>
        <pt x="322" y="686" on="0"/>
        <pt x="351" y="649" on="1"/>
        <pt x="436" y="542" on="0"/>
        <pt x="416" y="456" on="1"/>
        <pt x="400" y="385" on="0"/>
        <pt x="331" y="257" on="1"/>
        <pt x="251" y="111" on="0"/>
        <pt x="236" y="76" on="1"/>
        <pt x="200" y="-7" on="0"/>
        <pt x="208" y="-45" on="1"/>
        <pt x="217" y="-86" on="0"/>
        <pt x="294" y="-86" on="1"/>
        <pt x="474" y="-86" on="1"/>
        <pt x="533" y="-87" on="0"/>
        <pt x="520" y="-150" on="1"/>
        <pt x="494" y="-268" on="1"/>
        <pt x="491" y="-280" on="0"/>
        <pt x="483" y="-292" on="1"/>
        <pt x="460" y="-324" on="0"/>
        <pt x="426" y="-324" on="1"/>
      </contour>
    </TTGlyph>
    <TTGlyph name="braceright" xMin="-295" yMin="-328" xMax="747" yMax="1732">
      <contour>
        <pt x="270" y="1728" on="1"/>
        <pt x="498" y="1732" on="1"/>
        <pt x="575" y="1732" on="0"/>
        <pt x="639" y="1685" on="1"/>
        <pt x="724" y="1622" on="0"/>
        <pt x="738" y="1516" on="1"/>
        <pt x="747" y="1470" on="0"/>
        <pt x="735" y="1411" on="1"/>
        <pt x="717" y="1329" on="0"/>
        <pt x="630" y="1166" on="1"/>
        <pt x="552" y="1021" on="0"/>
        <pt x="536" y="966" on="1"/>
        <pt x="502" y="852" on="0"/>
        <pt x="590" y="818" on="1"/>
        <pt x="636" y="800" on="1"/>
        <pt x="683" y="781" on="0"/>
        <pt x="670" y="722" on="1"/>
        <pt x="634" y="572" on="1"/>
        <pt x="634" y="571" on="0"/>
        <pt x="633" y="568" on="1"/>
        <pt x="620" y="526" on="0"/>
        <pt x="562" y="512" on="1"/>
        <pt x="482" y="492" on="1"/>
        <pt x="472" y="489" on="0"/>
        <pt x="463" y="486" on="1"/>
        <pt x="376" y="453" on="0"/>
        <pt x="372" y="331" on="1"/>
        <pt x="371" y="304" on="0"/>
        <pt x="382" y="180" on="1"/>
        <pt x="393" y="50" on="0"/>
        <pt x="376" y="-46" on="1"/>
        <pt x="324" y="-324" on="0"/>
        <pt x="4" y="-328" on="1"/>
        <pt x="-236" y="-328" on="1"/>
        <pt x="-295" y="-327" on="0"/>
        <pt x="-282" y="-264" on="1"/>
        <pt x="-256" y="-146" on="1"/>
        <pt x="-253" y="-134" on="0"/>
        <pt x="-245" y="-122" on="1"/>
        <pt x="-222" y="-90" on="0"/>
        <pt x="-190" y="-90" on="1"/>
        <pt x="-32" y="-90" on="1"/>
        <pt x="12" y="-90" on="0"/>
        <pt x="46" y="-80" on="1"/>
        <pt x="177" y="-41" on="0"/>
        <pt x="152" y="170" on="1"/>
        <pt x="148" y="208" on="0"/>
        <pt x="145" y="236" on="1"/>
        <pt x="121" y="472" on="0"/>
        <pt x="176" y="550" on="1"/>
        <pt x="217" y="609" on="0"/>
        <pt x="277" y="643" on="1"/>
        <pt x="301" y="656" on="0"/>
        <pt x="394" y="692" on="1"/>
        <pt x="362" y="718" on="0"/>
        <pt x="333" y="755" on="1"/>
        <pt x="248" y="862" on="0"/>
        <pt x="268" y="948" on="1"/>
        <pt x="284" y="1019" on="0"/>
        <pt x="353" y="1147" on="1"/>
        <pt x="433" y="1293" on="0"/>
        <pt x="448" y="1328" on="1"/>
        <pt x="484" y="1411" on="0"/>
        <pt x="476" y="1449" on="1"/>
        <pt x="467" y="1490" on="0"/>
        <pt x="390" y="1490" on="1"/>
        <pt x="210" y="1490" on="1"/>
        <pt x="151" y="1491" on="0"/>
        <pt x="164" y="1554" on="1"/>
        <pt x="190" y="1672" on="1"/>
        <pt x="193" y="1684" on="0"/>
        <pt x="201" y="1696" on="1"/>
        <pt x="224" y="1728" on="0"/>
        <pt x="258" y="1728" on="1"/>
      </contour>
    </TTGlyph>
    <TTGlyph name="bracketleft" xMin="-161" yMin="-328" xMax="889" yMax="1724">
      <contour>
        <pt x="152" y="-90" on="1"/>
        <pt x="328" y="-90" on="1"/>
        <pt x="387" y="-91" on="0"/>
        <pt x="374" y="-154" on="1"/>
        <pt x="348" y="-272" on="1"/>
        <pt x="345" y="-284" on="0"/>
        <pt x="337" y="-296" on="1"/>
        <pt x="314" y="-328" on="0"/>
        <pt x="280" y="-328" on="1"/>
        <pt x="-82" y="-328" on="1"/>
        <pt x="-95" y="-328" on="0"/>
        <pt x="-107" y="-326" on="1"/>
        <pt x="-161" y="-315" on="0"/>
        <pt x="-140" y="-238" on="1"/>
        <pt x="-140" y="-238" on="0"/>
        <pt x="352" y="1662" on="1"/>
        <pt x="370" y="1723" on="0"/>
        <pt x="434" y="1724" on="1"/>
        <pt x="830" y="1724" on="1"/>
        <pt x="889" y="1723" on="0"/>
        <pt x="876" y="1660" on="1"/>
        <pt x="850" y="1542" on="1"/>
        <pt x="847" y="1530" on="0"/>
        <pt x="839" y="1518" on="1"/>
        <pt x="816" y="1486" on="0"/>
        <pt x="782" y="1486" on="1"/>
        <pt x="560" y="1486" on="1"/>
      </contour>
    </TTGlyph>
    <TTGlyph name="bracketright" xMin="-267" yMin="-328" xMax="777" yMax="1724">
      <contour>
        <pt x="464" y="1486" on="1"/>
        <pt x="288" y="1486" on="1"/>
        <pt x="229" y="1487" on="0"/>
        <pt x="242" y="1550" on="1"/>
        <pt x="268" y="1668" on="1"/>
        <pt x="271" y="1680" on="0"/>
        <pt x="279" y="1692" on="1"/>
        <pt x="302" y="1724" on="0"/>
        <pt x="336" y="1724" on="1"/>
        <pt x="698" y="1724" on="1"/>
        <pt x="711" y="1724" on="0"/>
        <pt x="723" y="1722" on="1"/>
        <pt x="777" y="1711" on="0"/>
        <pt x="756" y="1634" on="1"/>
        <pt x="756" y="1634" on="0"/>
        <pt x="270" y="-266" on="1"/>
        <pt x="254" y="-327" on="0"/>
        <pt x="188" y="-328" on="1"/>
        <pt x="-208" y="-328" on="1"/>
        <pt x="-267" y="-327" on="0"/>
        <pt x="-254" y="-264" on="1"/>
        <pt x="-228" y="-146" on="1"/>
        <pt x="-225" y="-134" on="0"/>
        <pt x="-217" y="-122" on="1"/>
        <pt x="-194" y="-90" on="0"/>
        <pt x="-160" y="-90" on="1"/>
        <pt x="61" y="-90" on="1"/>
      </contour>
    </TTGlyph>
    <TTGlyph name="breve" xMin="72" yMin="1126" xMax="840" yMax="1444">
      <contour>
        <pt x="458" y="1126" on="1"/>
        <pt x="324" y="1126" on="0"/>
        <pt x="227" y="1190" on="1"/>
        <pt x="97" y="1276" on="0"/>
        <pt x="72" y="1444" on="1"/>
        <pt x="236" y="1444" on="1"/>
        <pt x="242" y="1388" on="0"/>
        <pt x="279" y="1344" on="1"/>
        <pt x="343" y="1268" on="0"/>
        <pt x="458" y="1268" on="1"/>
        <pt x="529" y="1268" on="0"/>
        <pt x="585" y="1301" on="1"/>
        <pt x="667" y="1350" on="0"/>
        <pt x="678" y="1444" on="1"/>
        <pt x="840" y="1444" on="1"/>
        <pt x="826" y="1323" on="0"/>
        <pt x="747" y="1240" on="1"/>
        <pt x="639" y="1126" on="0"/>
      </contour>
    </TTGlyph>
    <TTGlyph name="brokenbar" xMin="-161" yMin="-402" xMax="581" yMax="1524">
      <contour>
        <pt x="572" y="1478" on="1"/>
        <pt x="572" y="1478" on="0"/>
        <pt x="374" y="718" on="1"/>
        <pt x="362" y="675" on="0"/>
        <pt x="314" y="674" on="1"/>
        <pt x="164" y="674" on="1"/>
        <pt x="111" y="675" on="0"/>
        <pt x="120" y="720" on="1"/>
        <pt x="318" y="1480" on="1"/>
        <pt x="330" y="1523" on="0"/>
        <pt x="378" y="1524" on="1"/>
        <pt x="528" y="1524" on="1"/>
        <pt x="581" y="1523" on="0"/>
      </contour>
      <contour>
        <pt x="300" y="402" on="1"/>
        <pt x="102" y="-358" on="1"/>
        <pt x="90" y="-401" on="0"/>
        <pt x="42" y="-402" on="1"/>
        <pt x="-108" y="-402" on="1"/>
        <pt x="-161" y="-401" on="0"/>
        <pt x="-152" y="-356" on="1"/>
        <pt x="46" y="404" on="1"/>
        <pt x="58" y="447" on="0"/>
        <pt x="106" y="448" on="1"/>
        <pt x="256" y="448" on="1"/>
        <pt x="309" y="447" on="0"/>
      </contour>
    </TTGlyph>
    <TTGlyph name="bullet" xMin="336" yMin="232" xMax="944" yMax="838">
      <contour>
        <pt x="336" y="536" on="1"/>
        <pt x="336" y="659" on="0"/>
        <pt x="423" y="748" on="1"/>
        <pt x="512" y="838" on="0"/>
        <pt x="640" y="838" on="1"/>
        <pt x="764" y="838" on="0"/>
        <pt x="853" y="752" on="1"/>
        <pt x="944" y="663" on="0"/>
        <pt x="944" y="536" on="1"/>
        <pt x="944" y="411" on="0"/>
        <pt x="857" y="322" on="1"/>
        <pt x="768" y="232" on="0"/>
        <pt x="640" y="232" on="1"/>
        <pt x="516" y="232" on="0"/>
        <pt x="427" y="318" on="1"/>
        <pt x="336" y="407" on="0"/>
      </contour>
    </TTGlyph>
    <TTGlyph name="c" xMin="-17" yMin="-22" xMax="742" yMax="1089">
      <contour>
        <pt x="604" y="1058" on="1"/>
        <pt x="681" y="1026" on="0"/>
        <pt x="714" y="990" on="1"/>
        <pt x="720" y="983" on="0"/>
        <pt x="725" y="975" on="1"/>
        <pt x="742" y="943" on="0"/>
        <pt x="722" y="920" on="1"/>
        <pt x="630" y="822" on="1"/>
        <pt x="628" y="820" on="0"/>
        <pt x="622" y="814" on="1"/>
        <pt x="598" y="793" on="0"/>
        <pt x="572" y="808" on="1"/>
        <pt x="492" y="855" on="0"/>
        <pt x="462" y="855" on="1"/>
        <pt x="462" y="855" on="0"/>
        <pt x="456" y="854" on="1"/>
        <pt x="422" y="844" on="0"/>
        <pt x="364" y="728" on="1"/>
        <pt x="286" y="574" on="0"/>
        <pt x="260" y="454" on="1"/>
        <pt x="230" y="321" on="0"/>
        <pt x="230" y="262" on="1"/>
        <pt x="230" y="207" on="0"/>
        <pt x="246" y="202" on="1"/>
        <pt x="362" y="302" on="1"/>
        <pt x="392" y="328" on="0"/>
        <pt x="432" y="302" on="1"/>
        <pt x="516" y="246" on="1"/>
        <pt x="526" y="239" on="0"/>
        <pt x="532" y="227" on="1"/>
        <pt x="542" y="202" on="0"/>
        <pt x="528" y="182" on="1"/>
        <pt x="492" y="127" on="0"/>
        <pt x="414" y="65" on="1"/>
        <pt x="373" y="32" on="0"/>
        <pt x="318" y="-3" on="1"/>
        <pt x="291" y="-21" on="0"/>
        <pt x="258" y="-22" on="1"/>
        <pt x="208" y="-22" on="0"/>
        <pt x="121" y="22" on="1"/>
        <pt x="32" y="68" on="0"/>
        <pt x="9" y="126" on="1"/>
        <pt x="-17" y="193" on="0"/>
        <pt x="-17" y="281" on="1"/>
        <pt x="-17" y="412" on="0"/>
        <pt x="42" y="587" on="1"/>
        <pt x="97" y="754" on="0"/>
        <pt x="164" y="854" on="1"/>
        <pt x="322" y="1089" on="0"/>
        <pt x="470" y="1089" on="1"/>
        <pt x="528" y="1089" on="0"/>
      </contour>
    </TTGlyph>
    <TTGlyph name="caron" xMin="152" yMin="1130" xMax="723" yMax="1448">
      <contour>
        <pt x="405" y="1305" on="1"/>
        <pt x="526" y="1426" on="1"/>
        <pt x="546" y="1446" on="0"/>
        <pt x="568" y="1448" on="1"/>
        <pt x="574" y="1448" on="0"/>
        <pt x="582" y="1448" on="1"/>
        <pt x="696" y="1448" on="1"/>
        <pt x="723" y="1448" on="0"/>
        <pt x="723" y="1428" on="1"/>
        <pt x="722" y="1415" on="0"/>
        <pt x="708" y="1402" on="1"/>
        <pt x="442" y="1158" on="1"/>
        <pt x="408" y="1130" on="0"/>
        <pt x="391" y="1130" on="1"/>
        <pt x="388" y="1130" on="0"/>
        <pt x="386" y="1130" on="1"/>
        <pt x="350" y="1132" on="1"/>
        <pt x="322" y="1135" on="0"/>
        <pt x="304" y="1165" on="1"/>
        <pt x="303" y="1167" on="0"/>
        <pt x="302" y="1168" on="1"/>
        <pt x="166" y="1414" on="1"/>
        <pt x="152" y="1436" on="0"/>
        <pt x="170" y="1445" on="1"/>
        <pt x="177" y="1448" on="0"/>
        <pt x="186" y="1448" on="1"/>
        <pt x="310" y="1448" on="1"/>
        <pt x="339" y="1448" on="0"/>
        <pt x="347" y="1435" on="1"/>
        <pt x="349" y="1431" on="0"/>
        <pt x="352" y="1426" on="1"/>
      </contour>
    </TTGlyph>
    <TTGlyph name="ccaron" xMin="-17" yMin="-22" xMax="875" yMax="1448">
      <component glyphName="caron" x="152" y="0" flags="0x1004"/>
      <component glyphName="c" x="0" y="0" flags="0x1004"/>
    </TTGlyph>
    <TTGlyph name="ccedilla" xMin="-79" yMin="-411" xMax="742" yMax="1089">
      <component glyphName="cedilla" x="-186" y="0" flags="0x1004"/>
      <component glyphName="c" x="0" y="0" flags="0x1004"/>
    </TTGlyph>
    <TTGlyph name="cedilla" xMin="107" yMin="-411" xMax="554" yMax="-56">
      <contour>
        <pt x="394" y="-66" on="1"/>
        <pt x="394" y="-66" on="0"/>
        <pt x="520" y="-106" on="1"/>
        <pt x="521" y="-106" on="0"/>
        <pt x="523" y="-107" on="1"/>
        <pt x="554" y="-117" on="0"/>
        <pt x="542" y="-166" on="1"/>
        <pt x="521" y="-259" on="0"/>
        <pt x="441" y="-324" on="1"/>
        <pt x="333" y="-411" on="0"/>
        <pt x="180" y="-404" on="1"/>
        <pt x="153" y="-402" on="0"/>
        <pt x="144" y="-380" on="1"/>
        <pt x="120" y="-306" on="1"/>
        <pt x="107" y="-260" on="0"/>
        <pt x="146" y="-258" on="1"/>
        <pt x="227" y="-258" on="0"/>
        <pt x="282" y="-217" on="1"/>
        <pt x="344" y="-170" on="0"/>
        <pt x="344" y="-98" on="1"/>
        <pt x="344" y="-83" on="0"/>
        <pt x="352" y="-73" on="1"/>
        <pt x="367" y="-56" on="0"/>
      </contour>
    </TTGlyph>
    <TTGlyph name="cent" xMin="-13" yMin="-190" xMax="793" yMax="1280">
      <contour>
        <pt x="174" y="-190" on="1"/>
        <pt x="162" y="-190" on="0"/>
        <pt x="152" y="-187" on="1"/>
        <pt x="113" y="-175" on="0"/>
        <pt x="124" y="-128" on="1"/>
        <pt x="160" y="0" on="1"/>
        <pt x="123" y="16" on="0"/>
        <pt x="95" y="46" on="1"/>
        <pt x="-13" y="163" on="0"/>
        <pt x="38" y="460" on="1"/>
        <pt x="76" y="673" on="0"/>
        <pt x="164" y="825" on="1"/>
        <pt x="274" y="1012" on="0"/>
        <pt x="429" y="1056" on="1"/>
        <pt x="478" y="1238" on="1"/>
        <pt x="490" y="1279" on="0"/>
        <pt x="536" y="1280" on="1"/>
        <pt x="680" y="1280" on="1"/>
        <pt x="731" y="1279" on="0"/>
        <pt x="722" y="1236" on="1"/>
        <pt x="674" y="1051" on="1"/>
        <pt x="694" y="1042" on="0"/>
        <pt x="712" y="1029" on="1"/>
        <pt x="793" y="969" on="0"/>
        <pt x="793" y="847" on="1"/>
        <pt x="792" y="715" on="0"/>
        <pt x="700" y="596" on="1"/>
        <pt x="698" y="593" on="0"/>
        <pt x="696" y="590" on="1"/>
        <pt x="679" y="570" on="0"/>
        <pt x="644" y="576" on="1"/>
        <pt x="522" y="602" on="1"/>
        <pt x="514" y="603" on="0"/>
        <pt x="507" y="605" on="1"/>
        <pt x="470" y="616" on="0"/>
        <pt x="486" y="660" on="1"/>
        <pt x="508" y="725" on="0"/>
        <pt x="520" y="765" on="1"/>
        <pt x="554" y="884" on="0"/>
        <pt x="518" y="892" on="1"/>
        <pt x="497" y="895" on="0"/>
        <pt x="445" y="820" on="1"/>
        <pt x="353" y="687" on="0"/>
        <pt x="310" y="522" on="1"/>
        <pt x="287" y="437" on="0"/>
        <pt x="277" y="360" on="1"/>
        <pt x="257" y="205" on="0"/>
        <pt x="300" y="192" on="1"/>
        <pt x="316" y="196" on="0"/>
        <pt x="333" y="212" on="1"/>
        <pt x="363" y="241" on="0"/>
        <pt x="416" y="354" on="1"/>
        <pt x="432" y="388" on="0"/>
        <pt x="440" y="404" on="1"/>
        <pt x="454" y="428" on="0"/>
        <pt x="482" y="422" on="1"/>
        <pt x="628" y="358" on="1"/>
        <pt x="631" y="357" on="0"/>
        <pt x="635" y="355" on="1"/>
        <pt x="674" y="334" on="0"/>
        <pt x="652" y="290" on="1"/>
        <pt x="546" y="78" on="0"/>
        <pt x="408" y="11" on="1"/>
        <pt x="366" y="-148" on="1"/>
        <pt x="353" y="-189" on="0"/>
        <pt x="308" y="-190" on="1"/>
      </contour>
    </TTGlyph>
    <TTGlyph name="circumflex" xMin="157" yMin="1150" xMax="728" yMax="1468">
      <contour>
        <pt x="475" y="1293" on="1"/>
        <pt x="354" y="1172" on="1"/>
        <pt x="334" y="1152" on="0"/>
        <pt x="312" y="1150" on="1"/>
        <pt x="306" y="1150" on="0"/>
        <pt x="298" y="1150" on="1"/>
        <pt x="184" y="1150" on="1"/>
        <pt x="157" y="1150" on="0"/>
        <pt x="157" y="1170" on="1"/>
        <pt x="158" y="1183" on="0"/>
        <pt x="172" y="1196" on="1"/>
        <pt x="438" y="1440" on="1"/>
        <pt x="472" y="1468" on="0"/>
        <pt x="489" y="1468" on="1"/>
        <pt x="491" y="1468" on="0"/>
        <pt x="494" y="1468" on="1"/>
        <pt x="530" y="1466" on="1"/>
        <pt x="558" y="1463" on="0"/>
        <pt x="576" y="1433" on="1"/>
        <pt x="577" y="1431" on="0"/>
        <pt x="578" y="1430" on="1"/>
        <pt x="714" y="1184" on="1"/>
        <pt x="728" y="1162" on="0"/>
        <pt x="710" y="1153" on="1"/>
        <pt x="703" y="1150" on="0"/>
        <pt x="694" y="1150" on="1"/>
        <pt x="570" y="1150" on="1"/>
        <pt x="541" y="1150" on="0"/>
        <pt x="533" y="1163" on="1"/>
        <pt x="531" y="1167" on="0"/>
        <pt x="528" y="1172" on="1"/>
      </contour>
    </TTGlyph>
    <TTGlyph name="colon" xMin="60" yMin="-36" xMax="554" yMax="1088">
      <contour>
        <pt x="260" y="956" on="1"/>
        <pt x="260" y="996" on="0"/>
        <pt x="283" y="1030" on="1"/>
        <pt x="323" y="1088" on="0"/>
        <pt x="400" y="1088" on="1"/>
        <pt x="426" y="1088" on="1"/>
        <pt x="465" y="1088" on="0"/>
        <pt x="502" y="1058" on="1"/>
        <pt x="554" y="1015" on="0"/>
        <pt x="554" y="956" on="1"/>
        <pt x="554" y="915" on="0"/>
        <pt x="529" y="881" on="1"/>
        <pt x="487" y="824" on="0"/>
        <pt x="410" y="824" on="1"/>
        <pt x="386" y="824" on="1"/>
        <pt x="346" y="824" on="0"/>
        <pt x="311" y="851" on="1"/>
        <pt x="260" y="892" on="0"/>
      </contour>
      <contour>
        <pt x="60" y="96" on="1"/>
        <pt x="60" y="136" on="0"/>
        <pt x="83" y="170" on="1"/>
        <pt x="123" y="228" on="0"/>
        <pt x="200" y="228" on="1"/>
        <pt x="226" y="228" on="1"/>
        <pt x="265" y="228" on="0"/>
        <pt x="302" y="198" on="1"/>
        <pt x="354" y="155" on="0"/>
        <pt x="354" y="96" on="1"/>
        <pt x="354" y="54" on="0"/>
        <pt x="329" y="21" on="1"/>
        <pt x="287" y="-36" on="0"/>
        <pt x="210" y="-36" on="1"/>
        <pt x="186" y="-36" on="1"/>
        <pt x="146" y="-36" on="0"/>
        <pt x="111" y="-9" on="1"/>
        <pt x="60" y="32" on="0"/>
      </contour>
    </TTGlyph>
    <TTGlyph name="comma" xMin="-70" yMin="-354" xMax="282" yMax="256">
      <contour>
        <pt x="282" y="214" on="1"/>
        <pt x="282" y="113" on="0"/>
        <pt x="235" y="-7" on="1"/>
        <pt x="178" y="-150" on="0"/>
        <pt x="84" y="-268" on="1"/>
        <pt x="66" y="-290" on="1"/>
        <pt x="48" y="-312" on="0"/>
        <pt x="-7" y="-354" on="0"/>
        <pt x="-26" y="-354" on="1"/>
        <pt x="-66" y="-352" on="0"/>
        <pt x="-70" y="-312" on="1"/>
        <pt x="-70" y="-260" on="0"/>
        <pt x="-50" y="-179" on="1"/>
        <pt x="-20" y="-57" on="0"/>
        <pt x="-12" y="-7" on="0"/>
        <pt x="-10" y="27" on="1"/>
        <pt x="0" y="154" on="0"/>
        <pt x="4" y="180" on="1"/>
        <pt x="5" y="216" on="0"/>
        <pt x="54" y="218" on="1"/>
        <pt x="234" y="256" on="1"/>
        <pt x="280" y="255" on="0"/>
      </contour>
    </TTGlyph>
    <TTGlyph name="copyright" xMin="43" yMin="-30" xMax="1585" yMax="1476">
      <contour>
        <pt x="730" y="440" on="1"/>
        <pt x="745" y="448" on="0"/>
        <pt x="760" y="463" on="1"/>
        <pt x="791" y="494" on="0"/>
        <pt x="848" y="606" on="1"/>
        <pt x="860" y="630" on="0"/>
        <pt x="886" y="624" on="1"/>
        <pt x="1024" y="564" on="1"/>
        <pt x="1029" y="561" on="0"/>
        <pt x="1034" y="559" on="1"/>
        <pt x="1067" y="539" on="0"/>
        <pt x="1046" y="500" on="1"/>
        <pt x="1014" y="435" on="0"/>
        <pt x="980" y="388" on="1"/>
        <pt x="872" y="240" on="0"/>
        <pt x="700" y="240" on="1"/>
        <pt x="554" y="241" on="0"/>
        <pt x="498" y="374" on="1"/>
        <pt x="448" y="494" on="0"/>
        <pt x="480" y="674" on="1"/>
        <pt x="527" y="939" on="0"/>
        <pt x="666" y="1079" on="1"/>
        <pt x="788" y="1200" on="0"/>
        <pt x="942" y="1192" on="1"/>
        <pt x="1005" y="1195" on="0"/>
        <pt x="1060" y="1168" on="1"/>
        <pt x="1143" y="1125" on="0"/>
        <pt x="1167" y="1037" on="1"/>
        <pt x="1200" y="918" on="0"/>
        <pt x="1102" y="794" on="1"/>
        <pt x="1101" y="792" on="0"/>
        <pt x="1099" y="790" on="1"/>
        <pt x="1084" y="768" on="0"/>
        <pt x="1050" y="774" on="1"/>
        <pt x="936" y="798" on="1"/>
        <pt x="931" y="799" on="0"/>
        <pt x="926" y="800" on="1"/>
        <pt x="886" y="811" on="0"/>
        <pt x="902" y="854" on="1"/>
        <pt x="933" y="947" on="0"/>
        <pt x="938" y="982" on="1"/>
        <pt x="944" y="1024" on="0"/>
        <pt x="916" y="1030" on="1"/>
        <pt x="898" y="1032" on="0"/>
        <pt x="860" y="989" on="1"/>
        <pt x="777" y="893" on="0"/>
        <pt x="736" y="732" on="1"/>
        <pt x="717" y="661" on="0"/>
        <pt x="707" y="598" on="1"/>
        <pt x="686" y="452" on="0"/>
      </contour>
      <contour>
        <pt x="362" y="800" on="1"/>
        <pt x="358" y="784" on="0"/>
        <pt x="354" y="767" on="1"/>
        <pt x="288" y="482" on="0"/>
        <pt x="382" y="307" on="1"/>
        <pt x="483" y="120" on="0"/>
        <pt x="742" y="120" on="1"/>
        <pt x="897" y="120" on="0"/>
        <pt x="1020" y="215" on="1"/>
        <pt x="1194" y="350" on="0"/>
        <pt x="1268" y="640" on="1"/>
        <pt x="1279" y="685" on="0"/>
        <pt x="1287" y="729" on="1"/>
        <pt x="1329" y="982" on="0"/>
        <pt x="1238" y="1146" on="1"/>
        <pt x="1137" y="1328" on="0"/>
        <pt x="900" y="1328" on="1"/>
        <pt x="736" y="1328" on="0"/>
        <pt x="605" y="1220" on="1"/>
        <pt x="436" y="1080" on="0"/>
      </contour>
      <contour>
        <pt x="150" y="886" on="1"/>
        <pt x="220" y="1125" on="0"/>
        <pt x="374" y="1275" on="1"/>
        <pt x="582" y="1476" on="0"/>
        <pt x="896" y="1476" on="1"/>
        <pt x="962" y="1476" on="0"/>
        <pt x="1021" y="1470" on="1"/>
        <pt x="1251" y="1445" on="0"/>
        <pt x="1386" y="1304" on="1"/>
        <pt x="1451" y="1237" on="0"/>
        <pt x="1489" y="1146" on="1"/>
        <pt x="1585" y="913" on="0"/>
        <pt x="1488" y="578" on="1"/>
        <pt x="1455" y="464" on="0"/>
        <pt x="1406" y="370" on="1"/>
        <pt x="1199" y="-30" on="0"/>
        <pt x="732" y="-30" on="1"/>
        <pt x="689" y="-30" on="0"/>
        <pt x="646" y="-26" on="1"/>
        <pt x="400" y="-2" on="0"/>
        <pt x="258" y="140" on="1"/>
        <pt x="202" y="197" on="0"/>
        <pt x="164" y="273" on="1"/>
        <pt x="43" y="519" on="0"/>
      </contour>
    </TTGlyph>
    <TTGlyph name="currency" xMin="48" yMin="-67" xMax="1091" yMax="1208">
      <contour>
        <pt x="676" y="618" on="1"/>
        <pt x="691" y="660" on="0"/>
        <pt x="698" y="727" on="1"/>
        <pt x="712" y="866" on="0"/>
        <pt x="648" y="866" on="1"/>
        <pt x="630" y="866" on="0"/>
        <pt x="612" y="859" on="1"/>
        <pt x="559" y="839" on="0"/>
        <pt x="499" y="721" on="1"/>
        <pt x="414" y="550" on="0"/>
        <pt x="414" y="438" on="1"/>
        <pt x="414" y="394" on="0"/>
        <pt x="419" y="375" on="1"/>
        <pt x="434" y="318" on="0"/>
        <pt x="503" y="341" on="1"/>
        <pt x="552" y="359" on="0"/>
        <pt x="607" y="456" on="1"/>
        <pt x="658" y="544" on="0"/>
      </contour>
      <contour>
        <pt x="282" y="832" on="1"/>
        <pt x="289" y="846" on="0"/>
        <pt x="299" y="861" on="1"/>
        <pt x="246" y="1032" on="1"/>
        <pt x="231" y="1082" on="0"/>
        <pt x="244" y="1103" on="1"/>
        <pt x="259" y="1126" on="0"/>
        <pt x="282" y="1138" on="1"/>
        <pt x="402" y="1198" on="1"/>
        <pt x="422" y="1208" on="0"/>
        <pt x="435" y="1206" on="1"/>
        <pt x="468" y="1202" on="0"/>
        <pt x="484" y="1146" on="1"/>
        <pt x="516" y="1035" on="1"/>
        <pt x="586" y="1060" on="0"/>
        <pt x="668" y="1060" on="1"/>
        <pt x="730" y="1060" on="0"/>
        <pt x="775" y="1047" on="1"/>
        <pt x="850" y="1160" on="1"/>
        <pt x="864" y="1182" on="0"/>
        <pt x="881" y="1190" on="1"/>
        <pt x="898" y="1197" on="0"/>
        <pt x="918" y="1186" on="1"/>
        <pt x="1048" y="1110" on="1"/>
        <pt x="1070" y="1097" on="0"/>
        <pt x="1080" y="1082" on="1"/>
        <pt x="1091" y="1063" on="0"/>
        <pt x="1064" y="1026" on="1"/>
        <pt x="934" y="859" on="1"/>
        <pt x="938" y="832" on="0"/>
        <pt x="938" y="752" on="1"/>
        <pt x="938" y="713" on="0"/>
        <pt x="932" y="672" on="1"/>
        <pt x="905" y="495" on="0"/>
        <pt x="788" y="338" on="1"/>
        <pt x="770" y="315" on="1"/>
        <pt x="840" y="98" on="1"/>
        <pt x="847" y="77" on="0"/>
        <pt x="844" y="63" on="1"/>
        <pt x="839" y="45" on="0"/>
        <pt x="798" y="22" on="1"/>
        <pt x="684" y="-42" on="1"/>
        <pt x="670" y="-50" on="0"/>
        <pt x="655" y="-54" on="1"/>
        <pt x="600" y="-67" on="0"/>
        <pt x="584" y="2" on="1"/>
        <pt x="548" y="149" on="1"/>
        <pt x="503" y="134" on="0"/>
        <pt x="456" y="134" on="1"/>
        <pt x="413" y="134" on="0"/>
        <pt x="382" y="138" on="1"/>
        <pt x="382" y="138" on="0"/>
        <pt x="283" y="-23" on="1"/>
        <pt x="275" y="-36" on="0"/>
        <pt x="256" y="-39" on="1"/>
        <pt x="239" y="-41" on="0"/>
        <pt x="224" y="-34" on="1"/>
        <pt x="62" y="71" on="1"/>
        <pt x="53" y="78" on="0"/>
        <pt x="51" y="90" on="1"/>
        <pt x="48" y="113" on="0"/>
        <pt x="60" y="129" on="1"/>
        <pt x="181" y="303" on="1"/>
        <pt x="158" y="366" on="0"/>
        <pt x="158" y="438" on="1"/>
        <pt x="158" y="588" on="0"/>
      </contour>
    </TTGlyph>
    <TTGlyph name="d" xMin="14" yMin="-12" xMax="1015" yMax="1518">
      <contour>
        <pt x="1006" y="1472" on="1"/>
        <pt x="1006" y="1472" on="0"/>
        <pt x="673" y="298" on="1"/>
        <pt x="694" y="319" on="0"/>
        <pt x="710" y="342" on="1"/>
        <pt x="732" y="373" on="0"/>
        <pt x="760" y="352" on="1"/>
        <pt x="844" y="290" on="1"/>
        <pt x="872" y="267" on="0"/>
        <pt x="856" y="242" on="1"/>
        <pt x="835" y="216" on="0"/>
        <pt x="812" y="190" on="1"/>
        <pt x="642" y="3" on="0"/>
        <pt x="482" y="-10" on="1"/>
        <pt x="459" y="-12" on="0"/>
        <pt x="446" y="12" on="1"/>
        <pt x="440" y="26" on="1"/>
        <pt x="429" y="54" on="1"/>
        <pt x="394" y="138" on="1"/>
        <pt x="395" y="138" on="1"/>
        <pt x="391" y="147" on="1"/>
        <pt x="372" y="124" on="1"/>
        <pt x="336" y="81" on="0"/>
        <pt x="310" y="53" on="1"/>
        <pt x="252" y="-6" on="0"/>
        <pt x="206" y="-6" on="1"/>
        <pt x="195" y="-6" on="1"/>
        <pt x="155" y="-6" on="0"/>
        <pt x="92" y="60" on="1"/>
        <pt x="14" y="141" on="0"/>
        <pt x="14" y="225" on="1"/>
        <pt x="14" y="388" on="0"/>
        <pt x="139" y="739" on="1"/>
        <pt x="216" y="955" on="0"/>
        <pt x="306" y="1024" on="1"/>
        <pt x="374" y="1076" on="0"/>
        <pt x="466" y="1076" on="1"/>
        <pt x="554" y="1076" on="0"/>
        <pt x="633" y="1018" on="1"/>
        <pt x="756" y="1474" on="1"/>
        <pt x="767" y="1516" on="0"/>
        <pt x="816" y="1518" on="1"/>
        <pt x="962" y="1518" on="1"/>
        <pt x="1015" y="1518" on="0"/>
      </contour>
      <contour>
        <pt x="588" y="854" on="1"/>
        <pt x="549" y="867" on="0"/>
        <pt x="520" y="867" on="1"/>
        <pt x="497" y="867" on="0"/>
        <pt x="482" y="858" on="1"/>
        <pt x="448" y="833" on="0"/>
        <pt x="391" y="690" on="1"/>
        <pt x="316" y="501" on="0"/>
        <pt x="290" y="358" on="1"/>
        <pt x="284" y="325" on="0"/>
        <pt x="284" y="315" on="1"/>
        <pt x="284" y="298" on="0"/>
        <pt x="298" y="298" on="1"/>
        <pt x="304" y="298" on="0"/>
        <pt x="308" y="300" on="1"/>
        <pt x="345" y="317" on="0"/>
        <pt x="406" y="418" on="1"/>
        <pt x="512" y="601" on="0"/>
        <pt x="578" y="824" on="1"/>
      </contour>
    </TTGlyph>
    <TTGlyph name="degree" xMin="252" yMin="1048" xMax="848" yMax="1630">
      <contour>
        <pt x="402" y="1308" on="1"/>
        <pt x="402" y="1240" on="0"/>
        <pt x="454" y="1208" on="1"/>
        <pt x="482" y="1192" on="0"/>
        <pt x="516" y="1192" on="1"/>
        <pt x="590" y="1192" on="0"/>
        <pt x="646" y="1248" on="1"/>
        <pt x="698" y="1300" on="0"/>
        <pt x="698" y="1370" on="1"/>
        <pt x="698" y="1442" on="0"/>
        <pt x="641" y="1472" on="1"/>
        <pt x="614" y="1486" on="0"/>
        <pt x="582" y="1486" on="1"/>
        <pt x="506" y="1486" on="0"/>
        <pt x="450" y="1424" on="1"/>
        <pt x="402" y="1372" on="0"/>
      </contour>
      <contour>
        <pt x="600" y="1630" on="1"/>
        <pt x="728" y="1630" on="0"/>
        <pt x="798" y="1539" on="1"/>
        <pt x="848" y="1472" on="0"/>
        <pt x="848" y="1380" on="1"/>
        <pt x="848" y="1226" on="0"/>
        <pt x="730" y="1130" on="1"/>
        <pt x="627" y="1051" on="0"/>
        <pt x="504" y="1048" on="1"/>
        <pt x="377" y="1048" on="0"/>
        <pt x="305" y="1139" on="1"/>
        <pt x="252" y="1207" on="0"/>
        <pt x="252" y="1300" on="1"/>
        <pt x="252" y="1445" on="0"/>
        <pt x="365" y="1542" on="1"/>
        <pt x="462" y="1625" on="0"/>
        <pt x="586" y="1630" on="1"/>
        <pt x="594" y="1630" on="0"/>
      </contour>
    </TTGlyph>
    <TTGlyph name="dieresis" xMin="246" yMin="1192" xMax="940" yMax="1456">
      <contour>
        <pt x="246" y="1324" on="1"/>
        <pt x="246" y="1364" on="0"/>
        <pt x="269" y="1398" on="1"/>
        <pt x="309" y="1456" on="0"/>
        <pt x="386" y="1456" on="1"/>
        <pt x="412" y="1456" on="1"/>
        <pt x="451" y="1456" on="0"/>
        <pt x="488" y="1426" on="1"/>
        <pt x="540" y="1383" on="0"/>
        <pt x="540" y="1324" on="1"/>
        <pt x="540" y="1283" on="0"/>
        <pt x="515" y="1249" on="1"/>
        <pt x="473" y="1192" on="0"/>
        <pt x="396" y="1192" on="1"/>
        <pt x="372" y="1192" on="1"/>
        <pt x="332" y="1192" on="0"/>
        <pt x="297" y="1219" on="1"/>
        <pt x="246" y="1260" on="0"/>
      </contour>
      <contour>
        <pt x="646" y="1324" on="1"/>
        <pt x="646" y="1364" on="0"/>
        <pt x="669" y="1398" on="1"/>
        <pt x="709" y="1456" on="0"/>
        <pt x="786" y="1456" on="1"/>
        <pt x="812" y="1456" on="1"/>
        <pt x="851" y="1456" on="0"/>
        <pt x="888" y="1426" on="1"/>
        <pt x="940" y="1383" on="0"/>
        <pt x="940" y="1324" on="1"/>
        <pt x="940" y="1283" on="0"/>
        <pt x="915" y="1249" on="1"/>
        <pt x="873" y="1192" on="0"/>
        <pt x="796" y="1192" on="1"/>
        <pt x="772" y="1192" on="1"/>
        <pt x="732" y="1192" on="0"/>
        <pt x="697" y="1219" on="1"/>
        <pt x="646" y="1260" on="0"/>
      </contour>
    </TTGlyph>
    <TTGlyph name="dieresiscomb" xMin="246" yMin="1192" xMax="824" yMax="1456">
      <contour>
        <pt x="246" y="1324" on="1"/>
        <pt x="246" y="1364" on="0"/>
        <pt x="267" y="1398" on="1"/>
        <pt x="303" y="1456" on="0"/>
        <pt x="370" y="1456" on="1"/>
        <pt x="392" y="1456" on="1"/>
        <pt x="424" y="1456" on="0"/>
        <pt x="456" y="1428" on="1"/>
        <pt x="504" y="1385" on="0"/>
        <pt x="504" y="1324" on="1"/>
        <pt x="504" y="1283" on="0"/>
        <pt x="483" y="1249" on="1"/>
        <pt x="446" y="1192" on="0"/>
        <pt x="378" y="1192" on="1"/>
        <pt x="356" y="1192" on="1"/>
        <pt x="323" y="1192" on="0"/>
        <pt x="293" y="1218" on="1"/>
        <pt x="246" y="1259" on="0"/>
      </contour>
      <contour>
        <pt x="566" y="1324" on="1"/>
        <pt x="566" y="1363" on="0"/>
        <pt x="585" y="1397" on="1"/>
        <pt x="620" y="1456" on="0"/>
        <pt x="688" y="1456" on="1"/>
        <pt x="712" y="1456" on="1"/>
        <pt x="744" y="1456" on="0"/>
        <pt x="776" y="1428" on="1"/>
        <pt x="824" y="1385" on="0"/>
        <pt x="824" y="1324" on="1"/>
        <pt x="824" y="1283" on="0"/>
        <pt x="803" y="1249" on="1"/>
        <pt x="766" y="1192" on="0"/>
        <pt x="698" y="1192" on="1"/>
        <pt x="676" y="1192" on="1"/>
        <pt x="642" y="1192" on="0"/>
        <pt x="613" y="1217" on="1"/>
        <pt x="566" y="1257" on="0"/>
      </contour>
    </TTGlyph>
    <TTGlyph name="divide" xMin="-39" yMin="102" xMax="1083" yMax="1234">
      <contour>
        <pt x="42" y="806" on="1"/>
        <pt x="42" y="806" on="0"/>
        <pt x="1024" y="806" on="1"/>
        <pt x="1083" y="805" on="0"/>
        <pt x="1070" y="742" on="1"/>
        <pt x="1044" y="624" on="1"/>
        <pt x="1041" y="612" on="0"/>
        <pt x="1033" y="600" on="1"/>
        <pt x="1010" y="568" on="0"/>
        <pt x="976" y="568" on="1"/>
        <pt x="16" y="568" on="1"/>
        <pt x="8" y="568" on="0"/>
        <pt x="1" y="569" on="1"/>
        <pt x="-39" y="576" on="0"/>
        <pt x="-22" y="640" on="1"/>
        <pt x="10" y="766" on="1"/>
        <pt x="13" y="781" on="0"/>
        <pt x="17" y="791" on="1"/>
        <pt x="23" y="806" on="0"/>
      </contour>
      <contour>
        <pt x="444" y="1102" on="1"/>
        <pt x="444" y="1142" on="0"/>
        <pt x="467" y="1176" on="1"/>
        <pt x="507" y="1234" on="0"/>
        <pt x="584" y="1234" on="1"/>
        <pt x="610" y="1234" on="1"/>
        <pt x="649" y="1234" on="0"/>
        <pt x="686" y="1204" on="1"/>
        <pt x="738" y="1161" on="0"/>
        <pt x="738" y="1102" on="1"/>
        <pt x="738" y="1061" on="0"/>
        <pt x="713" y="1027" on="1"/>
        <pt x="671" y="970" on="0"/>
        <pt x="594" y="970" on="1"/>
        <pt x="570" y="970" on="1"/>
        <pt x="530" y="970" on="0"/>
        <pt x="495" y="997" on="1"/>
        <pt x="444" y="1038" on="0"/>
      </contour>
      <contour>
        <pt x="242" y="234" on="1"/>
        <pt x="242" y="274" on="0"/>
        <pt x="265" y="308" on="1"/>
        <pt x="305" y="366" on="0"/>
        <pt x="382" y="366" on="1"/>
        <pt x="408" y="366" on="1"/>
        <pt x="447" y="366" on="0"/>
        <pt x="484" y="336" on="1"/>
        <pt x="536" y="293" on="0"/>
        <pt x="536" y="234" on="1"/>
        <pt x="536" y="193" on="0"/>
        <pt x="511" y="159" on="1"/>
        <pt x="469" y="102" on="0"/>
        <pt x="392" y="102" on="1"/>
        <pt x="368" y="102" on="1"/>
        <pt x="328" y="102" on="0"/>
        <pt x="293" y="129" on="1"/>
        <pt x="242" y="170" on="0"/>
      </contour>
    </TTGlyph>
    <TTGlyph name="dollar" xMin="-24" yMin="-80" xMax="844" yMax="1526">
      <contour>
        <pt x="124" y="-80" on="1"/>
        <pt x="112" y="-80" on="0"/>
        <pt x="102" y="-77" on="1"/>
        <pt x="63" y="-65" on="0"/>
        <pt x="74" y="-18" on="1"/>
        <pt x="101" y="79" on="1"/>
        <pt x="-23" y="146" on="0"/>
        <pt x="-24" y="392" on="1"/>
        <pt x="-23" y="439" on="0"/>
        <pt x="18" y="474" on="1"/>
        <pt x="164" y="556" on="1"/>
        <pt x="187" y="568" on="0"/>
        <pt x="206" y="563" on="1"/>
        <pt x="232" y="556" on="0"/>
        <pt x="232" y="528" on="1"/>
        <pt x="224" y="258" on="0"/>
        <pt x="264" y="256" on="1"/>
        <pt x="297" y="261" on="0"/>
        <pt x="337" y="311" on="1"/>
        <pt x="392" y="384" on="0"/>
        <pt x="392" y="458" on="1"/>
        <pt x="392" y="464" on="0"/>
        <pt x="392" y="473" on="1"/>
        <pt x="393" y="553" on="0"/>
        <pt x="388" y="574" on="1"/>
        <pt x="373" y="631" on="0"/>
        <pt x="292" y="642" on="1"/>
        <pt x="261" y="647" on="0"/>
        <pt x="234" y="657" on="1"/>
        <pt x="120" y="699" on="0"/>
        <pt x="120" y="808" on="1"/>
        <pt x="120" y="966" on="0"/>
        <pt x="208" y="1124" on="1"/>
        <pt x="295" y="1279" on="0"/>
        <pt x="421" y="1346" on="1"/>
        <pt x="458" y="1484" on="1"/>
        <pt x="470" y="1525" on="0"/>
        <pt x="516" y="1526" on="1"/>
        <pt x="660" y="1526" on="1"/>
        <pt x="711" y="1525" on="0"/>
        <pt x="702" y="1482" on="1"/>
        <pt x="672" y="1367" on="1"/>
        <pt x="844" y="1304" on="0"/>
        <pt x="806" y="1018" on="1"/>
        <pt x="805" y="1013" on="0"/>
        <pt x="804" y="1008" on="1"/>
        <pt x="798" y="987" on="0"/>
        <pt x="762" y="958" on="1"/>
        <pt x="596" y="904" on="1"/>
        <pt x="587" y="903" on="0"/>
        <pt x="580" y="903" on="1"/>
        <pt x="548" y="904" on="0"/>
        <pt x="552" y="946" on="1"/>
        <pt x="552" y="957" on="0"/>
        <pt x="554" y="982" on="1"/>
        <pt x="556" y="1014" on="0"/>
        <pt x="556" y="1030" on="1"/>
        <pt x="559" y="1149" on="0"/>
        <pt x="508" y="1156" on="1"/>
        <pt x="490" y="1146" on="0"/>
        <pt x="464" y="1103" on="1"/>
        <pt x="412" y="1013" on="0"/>
        <pt x="412" y="932" on="1"/>
        <pt x="413" y="842" on="0"/>
        <pt x="506" y="826" on="1"/>
        <pt x="563" y="816" on="0"/>
        <pt x="596" y="796" on="1"/>
        <pt x="684" y="744" on="0"/>
        <pt x="684" y="576" on="1"/>
        <pt x="684" y="418" on="0"/>
        <pt x="579" y="269" on="1"/>
        <pt x="481" y="131" on="0"/>
        <pt x="346" y="77" on="1"/>
        <pt x="316" y="-38" on="1"/>
        <pt x="303" y="-79" on="0"/>
        <pt x="258" y="-80" on="1"/>
      </contour>
    </TTGlyph>
    <TTGlyph name="dotaccent" xMin="246" yMin="1192" xMax="540" yMax="1456">
      <contour>
        <pt x="246" y="1324" on="1"/>
        <pt x="246" y="1364" on="0"/>
        <pt x="269" y="1398" on="1"/>
        <pt x="309" y="1456" on="0"/>
        <pt x="386" y="1456" on="1"/>
        <pt x="412" y="1456" on="1"/>
        <pt x="451" y="1456" on="0"/>
        <pt x="488" y="1426" on="1"/>
        <pt x="540" y="1383" on="0"/>
        <pt x="540" y="1324" on="1"/>
        <pt x="540" y="1283" on="0"/>
        <pt x="515" y="1249" on="1"/>
        <pt x="473" y="1192" on="0"/>
        <pt x="396" y="1192" on="1"/>
        <pt x="372" y="1192" on="1"/>
        <pt x="332" y="1192" on="0"/>
        <pt x="297" y="1219" on="1"/>
        <pt x="246" y="1260" on="0"/>
      </contour>
    </TTGlyph>
    <TTGlyph name="dotlessi" xMin="-13" yMin="0" xMax="531" yMax="1080">
      <contour>
        <pt x="522" y="1034" on="1"/>
        <pt x="522" y="1034" on="0"/>
        <pt x="262" y="44" on="1"/>
        <pt x="250" y="1" on="0"/>
        <pt x="202" y="0" on="1"/>
        <pt x="40" y="0" on="1"/>
        <pt x="-13" y="1" on="0"/>
        <pt x="-4" y="46" on="1"/>
        <pt x="256" y="1036" on="1"/>
        <pt x="268" y="1079" on="0"/>
        <pt x="316" y="1080" on="1"/>
        <pt x="478" y="1080" on="1"/>
        <pt x="531" y="1079" on="0"/>
      </contour>
    </TTGlyph>
    <TTGlyph name="e" xMin="0" yMin="-28" xMax="682" yMax="1084">
      <contour>
        <pt x="296" y="522" on="1"/>
        <pt x="354" y="559" on="0"/>
        <pt x="401" y="635" on="1"/>
        <pt x="466" y="740" on="0"/>
        <pt x="466" y="834" on="1"/>
        <pt x="466" y="852" on="0"/>
        <pt x="464" y="864" on="1"/>
        <pt x="460" y="888" on="0"/>
        <pt x="440" y="888" on="1"/>
        <pt x="435" y="888" on="0"/>
        <pt x="429" y="884" on="1"/>
        <pt x="402" y="864" on="0"/>
        <pt x="376" y="794" on="1"/>
        <pt x="337" y="694" on="0"/>
      </contour>
      <contour>
        <pt x="249" y="304" on="1"/>
        <pt x="243" y="273" on="0"/>
        <pt x="243" y="257" on="1"/>
        <pt x="243" y="236" on="0"/>
        <pt x="270" y="224" on="1"/>
        <pt x="270" y="224" on="0"/>
        <pt x="288" y="230" on="1"/>
        <pt x="321" y="244" on="0"/>
        <pt x="391" y="324" on="1"/>
        <pt x="400" y="333" on="0"/>
        <pt x="409" y="341" on="1"/>
        <pt x="424" y="356" on="0"/>
        <pt x="446" y="342" on="1"/>
        <pt x="544" y="282" on="1"/>
        <pt x="558" y="274" on="0"/>
        <pt x="562" y="261" on="1"/>
        <pt x="567" y="246" on="0"/>
        <pt x="562" y="238" on="1"/>
        <pt x="555" y="226" on="0"/>
        <pt x="545" y="212" on="1"/>
        <pt x="494" y="142" on="0"/>
        <pt x="394" y="62" on="1"/>
        <pt x="280" y="-28" on="0"/>
        <pt x="235" y="-28" on="1"/>
        <pt x="224" y="-28" on="1"/>
        <pt x="30" y="22" on="0"/>
        <pt x="6" y="136" on="1"/>
        <pt x="0" y="164" on="0"/>
        <pt x="0" y="229" on="1"/>
        <pt x="0" y="400" on="0"/>
        <pt x="79" y="643" on="1"/>
        <pt x="161" y="901" on="0"/>
        <pt x="244" y="978" on="1"/>
        <pt x="272" y="1005" on="0"/>
        <pt x="303" y="1026" on="1"/>
        <pt x="387" y="1084" on="0"/>
        <pt x="464" y="1084" on="1"/>
        <pt x="505" y="1084" on="0"/>
        <pt x="548" y="1066" on="1"/>
        <pt x="682" y="1005" on="0"/>
        <pt x="682" y="862" on="1"/>
        <pt x="682" y="832" on="0"/>
        <pt x="675" y="798" on="1"/>
        <pt x="647" y="651" on="0"/>
        <pt x="520" y="504" on="1"/>
        <pt x="394" y="359" on="0"/>
      </contour>
    </TTGlyph>
    <TTGlyph name="eacute" xMin="20" yMin="-28" xMax="901" yMax="1446">
      <component glyphName="acute" x="332" y="-2" flags="0x1004"/>
      <component glyphName="e" x="20" y="0" flags="0x1004"/>
    </TTGlyph>
    <TTGlyph name="ecircumflex" xMin="20" yMin="-28" xMax="840" yMax="1468">
      <component glyphName="circumflex" x="112" y="0" flags="0x1004"/>
      <component glyphName="e" x="20" y="0" flags="0x1004"/>
    </TTGlyph>
    <TTGlyph name="edieresis" xMin="20" yMin="-28" xMax="894" yMax="1462">
      <component glyphName="dieresiscomb" x="70" y="6" flags="0x1004"/>
      <component glyphName="e" x="20" y="0" flags="0x1004"/>
    </TTGlyph>
    <TTGlyph name="egrave" xMin="20" yMin="-28" xMax="702" yMax="1452">
      <component glyphName="grave" x="88" y="4" flags="0x1004"/>
      <component glyphName="e" x="20" y="0" flags="0x1004"/>
    </TTGlyph>
    <TTGlyph name="eight" xMin="36" yMin="-26" xMax="934" yMax="1390">
      <contour>
        <pt x="516" y="836" on="1"/>
        <pt x="555" y="848" on="0"/>
        <pt x="594" y="881" on="1"/>
        <pt x="657" y="936" on="0"/>
        <pt x="664" y="998" on="1"/>
        <pt x="668" y="1034" on="0"/>
        <pt x="667" y="1047" on="1"/>
        <pt x="658" y="1152" on="0"/>
        <pt x="566" y="1153" on="1"/>
        <pt x="530" y="1153" on="0"/>
        <pt x="500" y="1127" on="1"/>
        <pt x="442" y="1078" on="0"/>
        <pt x="442" y="980" on="1"/>
        <pt x="446" y="893" on="0"/>
      </contour>
      <contour>
        <pt x="476" y="569" on="1"/>
        <pt x="431" y="539" on="0"/>
        <pt x="391" y="496" on="1"/>
        <pt x="306" y="404" on="0"/>
        <pt x="306" y="328" on="1"/>
        <pt x="306" y="192" on="0"/>
        <pt x="390" y="192" on="1"/>
        <pt x="444" y="192" on="0"/>
        <pt x="489" y="258" on="1"/>
        <pt x="538" y="335" on="0"/>
        <pt x="538" y="440" on="1"/>
        <pt x="538" y="528" on="0"/>
      </contour>
      <contour>
        <pt x="265" y="669" on="1"/>
        <pt x="243" y="690" on="0"/>
        <pt x="224" y="718" on="1"/>
        <pt x="160" y="813" on="0"/>
        <pt x="160" y="928" on="1"/>
        <pt x="160" y="963" on="0"/>
        <pt x="167" y="1001" on="1"/>
        <pt x="194" y="1150" on="0"/>
        <pt x="304" y="1260" on="1"/>
        <pt x="435" y="1390" on="0"/>
        <pt x="612" y="1390" on="1"/>
        <pt x="734" y="1390" on="0"/>
        <pt x="819" y="1325" on="1"/>
        <pt x="934" y="1238" on="0"/>
        <pt x="934" y="1078" on="1"/>
        <pt x="934" y="943" on="0"/>
        <pt x="837" y="825" on="1"/>
        <pt x="805" y="787" on="0"/>
        <pt x="727" y="716" on="1"/>
        <pt x="730" y="714" on="0"/>
        <pt x="734" y="711" on="1"/>
        <pt x="834" y="629" on="0"/>
        <pt x="834" y="446" on="1"/>
        <pt x="834" y="404" on="0"/>
        <pt x="823" y="358" on="1"/>
        <pt x="789" y="214" on="0"/>
        <pt x="673" y="106" on="1"/>
        <pt x="532" y="-26" on="0"/>
        <pt x="348" y="-26" on="1"/>
        <pt x="235" y="-26" on="0"/>
        <pt x="157" y="25" on="1"/>
        <pt x="36" y="105" on="0"/>
        <pt x="36" y="280" on="1"/>
        <pt x="36" y="380" on="0"/>
        <pt x="80" y="466" on="1"/>
        <pt x="131" y="566" on="0"/>
      </contour>
    </TTGlyph>
    <TTGlyph name="ellipsis" xMin="60" yMin="-36" xMax="1286" yMax="228">
      <contour>
        <pt x="992" y="96" on="1"/>
        <pt x="992" y="136" on="0"/>
        <pt x="1015" y="170" on="1"/>
        <pt x="1055" y="228" on="0"/>
        <pt x="1132" y="228" on="1"/>
        <pt x="1158" y="228" on="1"/>
        <pt x="1197" y="228" on="0"/>
        <pt x="1234" y="198" on="1"/>
        <pt x="1286" y="155" on="0"/>
        <pt x="1286" y="96" on="1"/>
        <pt x="1286" y="55" on="0"/>
        <pt x="1261" y="21" on="1"/>
        <pt x="1219" y="-36" on="0"/>
        <pt x="1142" y="-36" on="1"/>
        <pt x="1118" y="-36" on="1"/>
        <pt x="1078" y="-36" on="0"/>
        <pt x="1043" y="-9" on="1"/>
        <pt x="992" y="32" on="0"/>
      </contour>
      <contour>
        <pt x="526" y="96" on="1"/>
        <pt x="526" y="136" on="0"/>
        <pt x="549" y="170" on="1"/>
        <pt x="589" y="228" on="0"/>
        <pt x="666" y="228" on="1"/>
        <pt x="692" y="228" on="1"/>
        <pt x="731" y="228" on="0"/>
        <pt x="768" y="198" on="1"/>
        <pt x="820" y="155" on="0"/>
        <pt x="820" y="96" on="1"/>
        <pt x="820" y="55" on="0"/>
        <pt x="795" y="21" on="1"/>
        <pt x="753" y="-36" on="0"/>
        <pt x="676" y="-36" on="1"/>
        <pt x="652" y="-36" on="1"/>
        <pt x="612" y="-36" on="0"/>
        <pt x="577" y="-9" on="1"/>
        <pt x="526" y="32" on="0"/>
      </contour>
      <contour>
        <pt x="60" y="96" on="1"/>
        <pt x="60" y="136" on="0"/>
        <pt x="83" y="170" on="1"/>
        <pt x="123" y="228" on="0"/>
        <pt x="200" y="228" on="1"/>
        <pt x="226" y="228" on="1"/>
        <pt x="265" y="228" on="0"/>
        <pt x="302" y="198" on="1"/>
        <pt x="354" y="155" on="0"/>
        <pt x="354" y="96" on="1"/>
        <pt x="354" y="54" on="0"/>
        <pt x="329" y="21" on="1"/>
        <pt x="287" y="-36" on="0"/>
        <pt x="210" y="-36" on="1"/>
        <pt x="186" y="-36" on="1"/>
        <pt x="146" y="-36" on="0"/>
        <pt x="111" y="-9" on="1"/>
        <pt x="60" y="32" on="0"/>
      </contour>
    </TTGlyph>
    <TTGlyph name="emdash" xMin="91" yMin="524" xMax="1791" yMax="762">
      <contour>
        <pt x="172" y="762" on="1"/>
        <pt x="172" y="762" on="0"/>
        <pt x="1732" y="762" on="1"/>
        <pt x="1791" y="761" on="0"/>
        <pt x="1778" y="698" on="1"/>
        <pt x="1752" y="580" on="1"/>
        <pt x="1749" y="568" on="0"/>
        <pt x="1741" y="556" on="1"/>
        <pt x="1718" y="524" on="0"/>
        <pt x="1684" y="524" on="1"/>
        <pt x="146" y="524" on="1"/>
        <pt x="138" y="524" on="0"/>
        <pt x="131" y="525" on="1"/>
        <pt x="91" y="532" on="0"/>
        <pt x="108" y="596" on="1"/>
        <pt x="140" y="722" on="1"/>
        <pt x="143" y="737" on="0"/>
        <pt x="147" y="747" on="1"/>
        <pt x="153" y="762" on="0"/>
      </contour>
    </TTGlyph>
    <TTGlyph name="endash" xMin="91" yMin="524" xMax="1213" yMax="762">
      <contour>
        <pt x="172" y="762" on="1"/>
        <pt x="172" y="762" on="0"/>
        <pt x="1154" y="762" on="1"/>
        <pt x="1213" y="761" on="0"/>
        <pt x="1200" y="698" on="1"/>
        <pt x="1174" y="580" on="1"/>
        <pt x="1171" y="568" on="0"/>
        <pt x="1163" y="556" on="1"/>
        <pt x="1140" y="524" on="0"/>
        <pt x="1106" y="524" on="1"/>
        <pt x="146" y="524" on="1"/>
        <pt x="138" y="524" on="0"/>
        <pt x="131" y="525" on="1"/>
        <pt x="91" y="532" on="0"/>
        <pt x="108" y="596" on="1"/>
        <pt x="140" y="722" on="1"/>
        <pt x="143" y="737" on="0"/>
        <pt x="147" y="747" on="1"/>
        <pt x="153" y="762" on="0"/>
      </contour>
    </TTGlyph>
    <TTGlyph name="equal" xMin="19" yMin="336" xMax="1011" yMax="976">
      <contour>
        <pt x="804" y="336" on="1"/>
        <pt x="804" y="336" on="0"/>
        <pt x="74" y="336" on="1"/>
        <pt x="66" y="336" on="0"/>
        <pt x="59" y="337" on="1"/>
        <pt x="19" y="344" on="0"/>
        <pt x="36" y="408" on="1"/>
        <pt x="62" y="516" on="1"/>
        <pt x="65" y="529" on="0"/>
        <pt x="70" y="540" on="1"/>
        <pt x="85" y="574" on="0"/>
        <pt x="128" y="574" on="1"/>
        <pt x="852" y="574" on="1"/>
        <pt x="911" y="573" on="0"/>
        <pt x="898" y="510" on="1"/>
        <pt x="872" y="392" on="1"/>
        <pt x="869" y="380" on="0"/>
        <pt x="861" y="368" on="1"/>
        <pt x="839" y="336" on="0"/>
      </contour>
      <contour>
        <pt x="904" y="738" on="1"/>
        <pt x="174" y="738" on="1"/>
        <pt x="166" y="738" on="0"/>
        <pt x="159" y="739" on="1"/>
        <pt x="119" y="746" on="0"/>
        <pt x="136" y="810" on="1"/>
        <pt x="162" y="918" on="1"/>
        <pt x="165" y="931" on="0"/>
        <pt x="170" y="942" on="1"/>
        <pt x="185" y="976" on="0"/>
        <pt x="228" y="976" on="1"/>
        <pt x="952" y="976" on="1"/>
        <pt x="1011" y="975" on="0"/>
        <pt x="998" y="912" on="1"/>
        <pt x="972" y="794" on="1"/>
        <pt x="969" y="782" on="0"/>
        <pt x="961" y="770" on="1"/>
        <pt x="939" y="738" on="0"/>
      </contour>
    </TTGlyph>
    <TTGlyph name="eth" xMin="0" yMin="-16" xMax="905" yMax="1520">
      <contour>
        <pt x="298" y="1342" on="1"/>
        <pt x="298" y="1342" on="0"/>
        <pt x="454" y="1374" on="1"/>
        <pt x="442" y="1410" on="0"/>
        <pt x="418" y="1472" on="1"/>
        <pt x="414" y="1483" on="0"/>
        <pt x="415" y="1493" on="1"/>
        <pt x="419" y="1520" on="0"/>
        <pt x="454" y="1520" on="1"/>
        <pt x="640" y="1520" on="1"/>
        <pt x="646" y="1520" on="0"/>
        <pt x="652" y="1519" on="1"/>
        <pt x="690" y="1512" on="0"/>
        <pt x="698" y="1470" on="1"/>
        <pt x="708" y="1426" on="1"/>
        <pt x="796" y="1444" on="1"/>
        <pt x="830" y="1449" on="0"/>
        <pt x="848" y="1420" on="1"/>
        <pt x="898" y="1326" on="1"/>
        <pt x="903" y="1317" on="0"/>
        <pt x="903" y="1306" on="1"/>
        <pt x="905" y="1270" on="0"/>
        <pt x="862" y="1262" on="1"/>
        <pt x="744" y="1237" on="1"/>
        <pt x="757" y="1163" on="0"/>
        <pt x="764" y="1092" on="1"/>
        <pt x="783" y="916" on="0"/>
        <pt x="765" y="739" on="1"/>
        <pt x="735" y="432" on="0"/>
        <pt x="616" y="245" on="1"/>
        <pt x="606" y="228" on="1"/>
        <pt x="587" y="196" on="0"/>
        <pt x="566" y="166" on="1"/>
        <pt x="434" y="-16" on="0"/>
        <pt x="286" y="-16" on="1"/>
        <pt x="256" y="-16" on="0"/>
        <pt x="235" y="-14" on="1"/>
        <pt x="152" y="-5" on="0"/>
        <pt x="88" y="62" on="1"/>
        <pt x="75" y="76" on="0"/>
        <pt x="63" y="94" on="1"/>
        <pt x="0" y="191" on="0"/>
        <pt x="0" y="350" on="1"/>
        <pt x="0" y="568" on="0"/>
        <pt x="120" y="822" on="1"/>
        <pt x="146" y="882" on="0"/>
        <pt x="183" y="932" on="1"/>
        <pt x="305" y="1098" on="0"/>
        <pt x="490" y="1098" on="1"/>
        <pt x="508" y="1098" on="0"/>
        <pt x="523" y="1095" on="1"/>
        <pt x="522" y="1102" on="1"/>
        <pt x="517" y="1130" on="0"/>
        <pt x="505" y="1188" on="1"/>
        <pt x="402" y="1166" on="1"/>
        <pt x="354" y="1156" on="0"/>
        <pt x="330" y="1198" on="1"/>
        <pt x="288" y="1294" on="1"/>
        <pt x="266" y="1331" on="0"/>
      </contour>
      <contour>
        <pt x="498" y="566" on="1"/>
        <pt x="513" y="616" on="0"/>
        <pt x="520" y="699" on="1"/>
        <pt x="533" y="864" on="0"/>
        <pt x="472" y="864" on="1"/>
        <pt x="452" y="864" on="0"/>
        <pt x="433" y="853" on="1"/>
        <pt x="386" y="825" on="0"/>
        <pt x="336" y="698" on="1"/>
        <pt x="335" y="696" on="0"/>
        <pt x="334" y="693" on="1"/>
        <pt x="246" y="468" on="0"/>
        <pt x="246" y="350" on="1"/>
        <pt x="246" y="295" on="0"/>
        <pt x="251" y="271" on="1"/>
        <pt x="260" y="232" on="0"/>
        <pt x="300" y="224" on="1"/>
        <pt x="318" y="227" on="0"/>
        <pt x="333" y="233" on="1"/>
        <pt x="370" y="250" on="0"/>
        <pt x="410" y="324" on="1"/>
        <pt x="418" y="339" on="0"/>
        <pt x="426" y="356" on="1"/>
        <pt x="476" y="464" on="0"/>
      </contour>
    </TTGlyph>
    <TTGlyph name="exclam" xMin="-6" yMin="-22" xMax="681" yMax="1466">
      <contour>
        <pt x="304" y="118" on="1"/>
        <pt x="304" y="75" on="0"/>
        <pt x="279" y="38" on="1"/>
        <pt x="237" y="-22" on="0"/>
        <pt x="156" y="-22" on="1"/>
        <pt x="128" y="-22" on="1"/>
        <pt x="87" y="-22" on="0"/>
        <pt x="47" y="11" on="1"/>
        <pt x="-6" y="57" on="0"/>
        <pt x="-6" y="118" on="1"/>
        <pt x="-6" y="162" on="0"/>
        <pt x="21" y="198" on="1"/>
        <pt x="65" y="256" on="0"/>
        <pt x="146" y="256" on="1"/>
        <pt x="172" y="256" on="1"/>
        <pt x="216" y="256" on="0"/>
        <pt x="252" y="225" on="1"/>
        <pt x="304" y="182" on="0"/>
      </contour>
      <contour>
        <pt x="118" y="432" on="1"/>
        <pt x="118" y="432" on="0"/>
        <pt x="338" y="1422" on="1"/>
        <pt x="348" y="1465" on="0"/>
        <pt x="398" y="1466" on="1"/>
        <pt x="628" y="1466" on="1"/>
        <pt x="681" y="1465" on="0"/>
        <pt x="672" y="1420" on="1"/>
        <pt x="332" y="430" on="1"/>
        <pt x="318" y="386" on="0"/>
        <pt x="272" y="386" on="1"/>
        <pt x="162" y="386" on="1"/>
        <pt x="109" y="387" on="0"/>
      </contour>
    </TTGlyph>
    <TTGlyph name="exclamdown" xMin="-7" yMin="-22" xMax="680" yMax="1466">
      <contour>
        <pt x="370" y="1326" on="1"/>
        <pt x="370" y="1370" on="0"/>
        <pt x="395" y="1406" on="1"/>
        <pt x="438" y="1466" on="0"/>
        <pt x="518" y="1466" on="1"/>
        <pt x="546" y="1466" on="1"/>
        <pt x="588" y="1466" on="0"/>
        <pt x="627" y="1433" on="1"/>
        <pt x="680" y="1387" on="0"/>
        <pt x="680" y="1326" on="1"/>
        <pt x="680" y="1282" on="0"/>
        <pt x="653" y="1246" on="1"/>
        <pt x="609" y="1188" on="0"/>
        <pt x="528" y="1188" on="1"/>
        <pt x="502" y="1188" on="1"/>
        <pt x="459" y="1188" on="0"/>
        <pt x="422" y="1219" on="1"/>
        <pt x="370" y="1262" on="0"/>
      </contour>
      <contour>
        <pt x="556" y="1012" on="1"/>
        <pt x="556" y="1012" on="0"/>
        <pt x="336" y="22" on="1"/>
        <pt x="324" y="-21" on="0"/>
        <pt x="276" y="-22" on="1"/>
        <pt x="46" y="-22" on="1"/>
        <pt x="-7" y="-21" on="0"/>
        <pt x="2" y="24" on="1"/>
        <pt x="342" y="1014" on="1"/>
        <pt x="354" y="1057" on="0"/>
        <pt x="402" y="1058" on="1"/>
        <pt x="512" y="1058" on="1"/>
        <pt x="565" y="1057" on="0"/>
      </contour>
    </TTGlyph>
    <TTGlyph name="f" xMin="16" yMin="0" xMax="936" yMax="1546">
      <contour>
        <pt x="220" y="0" on="1"/>
        <pt x="220" y="0" on="0"/>
        <pt x="68" y="0" on="1"/>
        <pt x="58" y="0" on="0"/>
        <pt x="48" y="3" on="1"/>
        <pt x="16" y="13" on="0"/>
        <pt x="24" y="46" on="1"/>
        <pt x="246" y="880" on="1"/>
        <pt x="150" y="880" on="1"/>
        <pt x="116" y="882" on="0"/>
        <pt x="124" y="928" on="1"/>
        <pt x="156" y="1042" on="1"/>
        <pt x="158" y="1049" on="0"/>
        <pt x="162" y="1058" on="1"/>
        <pt x="173" y="1080" on="0"/>
        <pt x="200" y="1080" on="1"/>
        <pt x="299" y="1080" on="1"/>
        <pt x="312" y="1130" on="1"/>
        <pt x="320" y="1162" on="0"/>
        <pt x="333" y="1201" on="1"/>
        <pt x="424" y="1473" on="0"/>
        <pt x="618" y="1529" on="1"/>
        <pt x="671" y="1546" on="0"/>
        <pt x="708" y="1534" on="1"/>
        <pt x="892" y="1486" on="1"/>
        <pt x="908" y="1482" on="0"/>
        <pt x="918" y="1467" on="1"/>
        <pt x="936" y="1435" on="0"/>
        <pt x="912" y="1390" on="1"/>
        <pt x="860" y="1292" on="1"/>
        <pt x="845" y="1264" on="0"/>
        <pt x="790" y="1282" on="1"/>
        <pt x="666" y="1322" on="1"/>
        <pt x="665" y="1321" on="0"/>
        <pt x="663" y="1319" on="1"/>
        <pt x="601" y="1247" on="0"/>
        <pt x="580" y="1170" on="1"/>
        <pt x="555" y="1080" on="1"/>
        <pt x="664" y="1080" on="1"/>
        <pt x="699" y="1077" on="0"/>
        <pt x="694" y="1036" on="1"/>
        <pt x="660" y="924" on="1"/>
        <pt x="647" y="882" on="0"/>
        <pt x="608" y="880" on="1"/>
        <pt x="501" y="880" on="1"/>
        <pt x="278" y="44" on="1"/>
        <pt x="267" y="2" on="0"/>
      </contour>
    </TTGlyph>
    <TTGlyph name="five" xMin="0" yMin="-23" xMax="979" yMax="1360">
      <contour>
        <pt x="420" y="899" on="1"/>
        <pt x="478" y="916" on="0"/>
        <pt x="538" y="916" on="1"/>
        <pt x="630" y="916" on="0"/>
        <pt x="688" y="875" on="1"/>
        <pt x="779" y="809" on="0"/>
        <pt x="779" y="649" on="1"/>
        <pt x="779" y="583" on="0"/>
        <pt x="764" y="502" on="1"/>
        <pt x="709" y="233" on="0"/>
        <pt x="569" y="99" on="1"/>
        <pt x="441" y="-22" on="0"/>
        <pt x="268" y="-23" on="1"/>
        <pt x="160" y="-23" on="0"/>
        <pt x="92" y="17" on="1"/>
        <pt x="0" y="72" on="0"/>
        <pt x="0" y="196" on="1"/>
        <pt x="0" y="302" on="0"/>
        <pt x="80" y="394" on="1"/>
        <pt x="81" y="395" on="0"/>
        <pt x="83" y="397" on="1"/>
        <pt x="100" y="416" on="0"/>
        <pt x="134" y="412" on="1"/>
        <pt x="254" y="388" on="1"/>
        <pt x="261" y="387" on="0"/>
        <pt x="267" y="386" on="1"/>
        <pt x="304" y="377" on="0"/>
        <pt x="288" y="338" on="1"/>
        <pt x="267" y="278" on="0"/>
        <pt x="266" y="229" on="1"/>
        <pt x="266" y="163" on="0"/>
        <pt x="299" y="163" on="1"/>
        <pt x="334" y="163" on="0"/>
        <pt x="391" y="240" on="1"/>
        <pt x="468" y="344" on="0"/>
        <pt x="498" y="448" on="1"/>
        <pt x="532" y="562" on="0"/>
        <pt x="532" y="643" on="1"/>
        <pt x="531" y="722" on="0"/>
        <pt x="494" y="722" on="1"/>
        <pt x="462" y="722" on="0"/>
        <pt x="416" y="685" on="1"/>
        <pt x="351" y="634" on="0"/>
        <pt x="308" y="560" on="1"/>
        <pt x="294" y="538" on="0"/>
        <pt x="266" y="544" on="1"/>
        <pt x="124" y="600" on="1"/>
        <pt x="107" y="607" on="0"/>
        <pt x="99" y="621" on="1"/>
        <pt x="94" y="632" on="0"/>
        <pt x="102" y="665" on="1"/>
        <pt x="266" y="1318" on="1"/>
        <pt x="276" y="1358" on="0"/>
        <pt x="326" y="1360" on="1"/>
        <pt x="924" y="1360" on="1"/>
        <pt x="931" y="1360" on="0"/>
        <pt x="939" y="1359" on="1"/>
        <pt x="979" y="1352" on="0"/>
        <pt x="962" y="1288" on="1"/>
        <pt x="930" y="1160" on="1"/>
        <pt x="925" y="1140" on="0"/>
        <pt x="921" y="1133" on="1"/>
        <pt x="914" y="1120" on="0"/>
        <pt x="890" y="1120" on="1"/>
        <pt x="477" y="1129" on="1"/>
      </contour>
    </TTGlyph>
    <TTGlyph name="four" xMin="-48" yMin="0" xMax="949" yMax="1360">
      <contour>
        <pt x="828" y="294" on="1"/>
        <pt x="828" y="294" on="0"/>
        <pt x="737" y="294" on="1"/>
        <pt x="674" y="44" on="1"/>
        <pt x="663" y="2" on="0"/>
        <pt x="614" y="0" on="1"/>
        <pt x="444" y="0" on="1"/>
        <pt x="432" y="0" on="0"/>
        <pt x="421" y="6" on="1"/>
        <pt x="395" y="23" on="0"/>
        <pt x="404" y="62" on="1"/>
        <pt x="462" y="294" on="1"/>
        <pt x="74" y="294" on="1"/>
        <pt x="-12" y="294" on="0"/>
        <pt x="-31" y="357" on="1"/>
        <pt x="-48" y="419" on="0"/>
        <pt x="6" y="498" on="1"/>
        <pt x="570" y="1334" on="1"/>
        <pt x="579" y="1348" on="0"/>
        <pt x="591" y="1353" on="1"/>
        <pt x="606" y="1360" on="0"/>
        <pt x="630" y="1360" on="1"/>
        <pt x="826" y="1360" on="1"/>
        <pt x="850" y="1360" on="0"/>
        <pt x="862" y="1346" on="1"/>
        <pt x="880" y="1322" on="0"/>
        <pt x="850" y="1286" on="1"/>
        <pt x="305" y="512" on="1"/>
        <pt x="517" y="513" on="1"/>
        <pt x="574" y="738" on="1"/>
        <pt x="585" y="780" on="0"/>
        <pt x="634" y="782" on="1"/>
        <pt x="804" y="782" on="1"/>
        <pt x="816" y="782" on="0"/>
        <pt x="827" y="776" on="1"/>
        <pt x="853" y="759" on="0"/>
        <pt x="844" y="720" on="1"/>
        <pt x="792" y="514" on="1"/>
        <pt x="890" y="514" on="1"/>
        <pt x="949" y="516" on="0"/>
        <pt x="936" y="454" on="1"/>
        <pt x="896" y="352" on="1"/>
        <pt x="895" y="347" on="0"/>
        <pt x="893" y="342" on="1"/>
        <pt x="874" y="294" on="0"/>
      </contour>
    </TTGlyph>
    <TTGlyph name="fourinferior" xMin="-50" yMin="0" xMax="716" yMax="884">
      <contour>
        <pt x="620" y="192" on="1"/>
        <pt x="620" y="192" on="0"/>
        <pt x="554" y="192" on="1"/>
        <pt x="506" y="28" on="1"/>
        <pt x="496" y="1" on="0"/>
        <pt x="460" y="0" on="1"/>
        <pt x="310" y="0" on="1"/>
        <pt x="302" y="0" on="0"/>
        <pt x="295" y="3" on="1"/>
        <pt x="272" y="13" on="0"/>
        <pt x="280" y="40" on="1"/>
        <pt x="324" y="192" on="1"/>
        <pt x="56" y="192" on="1"/>
        <pt x="-10" y="193" on="0"/>
        <pt x="-30" y="232" on="1"/>
        <pt x="-50" y="274" on="0"/>
        <pt x="-10" y="324" on="1"/>
        <pt x="404" y="856" on="1"/>
        <pt x="407" y="860" on="0"/>
        <pt x="411" y="863" on="1"/>
        <pt x="431" y="884" on="0"/>
        <pt x="458" y="884" on="1"/>
        <pt x="620" y="884" on="1"/>
        <pt x="634" y="884" on="0"/>
        <pt x="644" y="873" on="1"/>
        <pt x="662" y="853" on="0"/>
        <pt x="644" y="830" on="1"/>
        <pt x="252" y="348" on="1"/>
        <pt x="370" y="348" on="1"/>
        <pt x="412" y="492" on="1"/>
        <pt x="422" y="519" on="0"/>
        <pt x="458" y="520" on="1"/>
        <pt x="608" y="520" on="1"/>
        <pt x="617" y="520" on="0"/>
        <pt x="625" y="516" on="1"/>
        <pt x="645" y="505" on="0"/>
        <pt x="638" y="480" on="1"/>
        <pt x="599" y="348" on="1"/>
        <pt x="670" y="348" on="1"/>
        <pt x="672" y="348" on="0"/>
        <pt x="675" y="348" on="1"/>
        <pt x="716" y="348" on="0"/>
        <pt x="704" y="310" on="1"/>
        <pt x="672" y="228" on="1"/>
        <pt x="671" y="225" on="0"/>
        <pt x="669" y="221" on="1"/>
        <pt x="655" y="192" on="0"/>
      </contour>
    </TTGlyph>
    <TTGlyph name="foursuperior" xMin="32" yMin="640" xMax="798" yMax="1524">
      <contour>
        <pt x="702" y="832" on="1"/>
        <pt x="702" y="832" on="0"/>
        <pt x="636" y="832" on="1"/>
        <pt x="588" y="668" on="1"/>
        <pt x="578" y="641" on="0"/>
        <pt x="542" y="640" on="1"/>
        <pt x="392" y="640" on="1"/>
        <pt x="384" y="640" on="0"/>
        <pt x="377" y="643" on="1"/>
        <pt x="354" y="653" on="0"/>
        <pt x="362" y="680" on="1"/>
        <pt x="406" y="832" on="1"/>
        <pt x="138" y="832" on="1"/>
        <pt x="72" y="833" on="0"/>
        <pt x="52" y="872" on="1"/>
        <pt x="32" y="914" on="0"/>
        <pt x="72" y="964" on="1"/>
        <pt x="486" y="1496" on="1"/>
        <pt x="489" y="1500" on="0"/>
        <pt x="493" y="1503" on="1"/>
        <pt x="513" y="1524" on="0"/>
        <pt x="540" y="1524" on="1"/>
        <pt x="702" y="1524" on="1"/>
        <pt x="715" y="1524" on="0"/>
        <pt x="726" y="1513" on="1"/>
        <pt x="744" y="1493" on="0"/>
        <pt x="726" y="1470" on="1"/>
        <pt x="334" y="988" on="1"/>
        <pt x="452" y="988" on="1"/>
        <pt x="494" y="1132" on="1"/>
        <pt x="504" y="1159" on="0"/>
        <pt x="540" y="1160" on="1"/>
        <pt x="690" y="1160" on="1"/>
        <pt x="699" y="1160" on="0"/>
        <pt x="707" y="1156" on="1"/>
        <pt x="727" y="1145" on="0"/>
        <pt x="720" y="1120" on="1"/>
        <pt x="681" y="988" on="1"/>
        <pt x="752" y="988" on="1"/>
        <pt x="754" y="988" on="0"/>
        <pt x="757" y="988" on="1"/>
        <pt x="798" y="988" on="0"/>
        <pt x="786" y="950" on="1"/>
        <pt x="754" y="868" on="1"/>
        <pt x="753" y="865" on="0"/>
        <pt x="751" y="861" on="1"/>
        <pt x="737" y="832" on="0"/>
      </contour>
    </TTGlyph>
    <TTGlyph name="fraction" xMin="-111" yMin="-54" xMax="1697" yMax="1528">
      <contour>
        <pt x="124" y="-54" on="1"/>
        <pt x="124" y="-54" on="0"/>
        <pt x="-68" y="-52" on="1"/>
        <pt x="-89" y="-51" on="0"/>
        <pt x="-99" y="-30" on="1"/>
        <pt x="-111" y="-1" on="0"/>
        <pt x="-90" y="20" on="1"/>
        <pt x="1366" y="1482" on="1"/>
        <pt x="1411" y="1527" on="0"/>
        <pt x="1462" y="1528" on="1"/>
        <pt x="1656" y="1528" on="1"/>
        <pt x="1677" y="1527" on="0"/>
        <pt x="1686" y="1506" on="1"/>
        <pt x="1697" y="1477" on="0"/>
        <pt x="1676" y="1456" on="1"/>
        <pt x="208" y="-18" on="1"/>
        <pt x="197" y="-29" on="0"/>
        <pt x="187" y="-37" on="1"/>
        <pt x="164" y="-54" on="0"/>
      </contour>
    </TTGlyph>
    <TTGlyph name="g" xMin="-86" yMin="-380" xMax="852" yMax="1080">
      <contour>
        <pt x="802" y="1080" on="1"/>
        <pt x="852" y="1078" on="0"/>
        <pt x="844" y="1026" on="1"/>
        <pt x="777" y="756" on="0"/>
        <pt x="571" y="48" on="1"/>
        <pt x="526" y="-106" on="0"/>
        <pt x="520" y="-130" on="1"/>
        <pt x="478" y="-283" on="0"/>
        <pt x="382" y="-336" on="1"/>
        <pt x="319" y="-370" on="0"/>
        <pt x="286" y="-378" on="1"/>
        <pt x="274" y="-380" on="0"/>
        <pt x="262" y="-380" on="1"/>
        <pt x="216" y="-380" on="0"/>
        <pt x="158" y="-346" on="1"/>
        <pt x="-46" y="-230" on="1"/>
        <pt x="-61" y="-222" on="0"/>
        <pt x="-68" y="-213" on="1"/>
        <pt x="-86" y="-187" on="0"/>
        <pt x="-62" y="-158" on="1"/>
        <pt x="2" y="-72" on="1"/>
        <pt x="2" y="-72" on="0"/>
        <pt x="6" y="-68" on="1"/>
        <pt x="35" y="-38" on="0"/>
        <pt x="68" y="-56" on="1"/>
        <pt x="242" y="-150" on="1"/>
        <pt x="249" y="-154" on="0"/>
        <pt x="256" y="-154" on="1"/>
        <pt x="280" y="-154" on="0"/>
        <pt x="296" y="-104" on="1"/>
        <pt x="366" y="141" on="1"/>
        <pt x="352" y="124" on="1"/>
        <pt x="317" y="81" on="0"/>
        <pt x="290" y="53" on="1"/>
        <pt x="232" y="-6" on="0"/>
        <pt x="186" y="-6" on="1"/>
        <pt x="172" y="-6" on="1"/>
        <pt x="138" y="-4" on="0"/>
        <pt x="72" y="60" on="1"/>
        <pt x="-5" y="142" on="0"/>
        <pt x="-5" y="232" on="1"/>
        <pt x="-5" y="259" on="0"/>
        <pt x="12" y="372" on="1"/>
        <pt x="29" y="479" on="0"/>
        <pt x="119" y="739" on="1"/>
        <pt x="195" y="954" on="0"/>
        <pt x="286" y="1024" on="1"/>
        <pt x="356" y="1076" on="0"/>
        <pt x="536" y="1076" on="0"/>
        <pt x="617" y="1016" on="1"/>
        <pt x="617" y="1017" on="0"/>
        <pt x="618" y="1018" on="1"/>
        <pt x="636" y="1077" on="0"/>
        <pt x="680" y="1078" on="1"/>
      </contour>
      <contour>
        <pt x="568" y="854" on="1"/>
        <pt x="564" y="855" on="0"/>
        <pt x="560" y="857" on="1"/>
        <pt x="523" y="868" on="0"/>
        <pt x="498" y="867" on="1"/>
        <pt x="475" y="867" on="0"/>
        <pt x="462" y="858" on="1"/>
        <pt x="427" y="831" on="0"/>
        <pt x="371" y="690" on="1"/>
        <pt x="292" y="492" on="0"/>
        <pt x="270" y="358" on="1"/>
        <pt x="264" y="321" on="0"/>
        <pt x="264" y="313" on="1"/>
        <pt x="265" y="298" on="0"/>
        <pt x="280" y="298" on="1"/>
        <pt x="284" y="298" on="0"/>
        <pt x="288" y="300" on="1"/>
        <pt x="325" y="317" on="0"/>
        <pt x="386" y="418" on="1"/>
        <pt x="492" y="601" on="0"/>
        <pt x="558" y="824" on="1"/>
      </contour>
    </TTGlyph>
    <TTGlyph name="germandbls" xMin="-66" yMin="-32" xMax="1006" yMax="1544">
      <contour>
        <pt x="138" y="0" on="1"/>
        <pt x="138" y="0" on="0"/>
        <pt x="-14" y="0" on="1"/>
        <pt x="-24" y="0" on="0"/>
        <pt x="-34" y="3" on="1"/>
        <pt x="-66" y="13" on="0"/>
        <pt x="-58" y="46" on="1"/>
        <pt x="222" y="1100" on="1"/>
        <pt x="261" y="1248" on="0"/>
        <pt x="348" y="1361" on="1"/>
        <pt x="489" y="1544" on="0"/>
        <pt x="692" y="1544" on="1"/>
        <pt x="816" y="1544" on="0"/>
        <pt x="903" y="1461" on="1"/>
        <pt x="996" y="1373" on="0"/>
        <pt x="1000" y="1241" on="1"/>
        <pt x="1006" y="1075" on="0"/>
        <pt x="866" y="932" on="1"/>
        <pt x="856" y="920" on="0"/>
        <pt x="834" y="895" on="1"/>
        <pt x="819" y="878" on="0"/>
        <pt x="812" y="869" on="1"/>
        <pt x="748" y="793" on="0"/>
        <pt x="748" y="742" on="1"/>
        <pt x="748" y="724" on="0"/>
        <pt x="754" y="705" on="1"/>
        <pt x="765" y="674" on="0"/>
        <pt x="816" y="619" on="1"/>
        <pt x="840" y="593" on="0"/>
        <pt x="852" y="579" on="1"/>
        <pt x="932" y="482" on="0"/>
        <pt x="932" y="354" on="1"/>
        <pt x="932" y="338" on="0"/>
        <pt x="930" y="321" on="1"/>
        <pt x="917" y="189" on="0"/>
        <pt x="823" y="89" on="1"/>
        <pt x="708" y="-32" on="0"/>
        <pt x="538" y="-32" on="1"/>
        <pt x="505" y="-32" on="0"/>
        <pt x="474" y="-26" on="1"/>
        <pt x="291" y="11" on="0"/>
        <pt x="294" y="258" on="1"/>
        <pt x="294" y="265" on="0"/>
        <pt x="295" y="272" on="1"/>
        <pt x="302" y="318" on="0"/>
        <pt x="334" y="328" on="1"/>
        <pt x="492" y="378" on="1"/>
        <pt x="508" y="383" on="0"/>
        <pt x="523" y="382" on="1"/>
        <pt x="555" y="379" on="0"/>
        <pt x="554" y="350" on="1"/>
        <pt x="554" y="339" on="0"/>
        <pt x="553" y="326" on="1"/>
        <pt x="552" y="176" on="0"/>
        <pt x="592" y="176" on="1"/>
        <pt x="607" y="178" on="0"/>
        <pt x="620" y="195" on="1"/>
        <pt x="648" y="237" on="0"/>
        <pt x="648" y="328" on="1"/>
        <pt x="648" y="385" on="0"/>
        <pt x="626" y="425" on="1"/>
        <pt x="608" y="456" on="0"/>
        <pt x="556" y="498" on="1"/>
        <pt x="532" y="517" on="0"/>
        <pt x="520" y="528" on="1"/>
        <pt x="460" y="585" on="0"/>
        <pt x="460" y="678" on="1"/>
        <pt x="461" y="842" on="0"/>
        <pt x="664" y="1060" on="1"/>
        <pt x="703" y="1102" on="0"/>
        <pt x="726" y="1143" on="1"/>
        <pt x="754" y="1195" on="0"/>
        <pt x="753" y="1238" on="1"/>
        <pt x="753" y="1326" on="0"/>
        <pt x="666" y="1326" on="1"/>
        <pt x="620" y="1326" on="0"/>
        <pt x="571" y="1276" on="1"/>
        <pt x="509" y="1214" on="0"/>
        <pt x="476" y="1092" on="1"/>
        <pt x="196" y="44" on="1"/>
        <pt x="185" y="2" on="0"/>
      </contour>
    </TTGlyph>
    <TTGlyph name="grave" xMin="108" yMin="1150" xMax="563" yMax="1448">
      <contour>
        <pt x="346" y="1448" on="1"/>
        <pt x="386" y="1447" on="0"/>
        <pt x="408" y="1414" on="1"/>
        <pt x="544" y="1194" on="1"/>
        <pt x="563" y="1165" on="0"/>
        <pt x="536" y="1153" on="1"/>
        <pt x="527" y="1150" on="0"/>
        <pt x="518" y="1150" on="1"/>
        <pt x="432" y="1150" on="1"/>
        <pt x="392" y="1151" on="0"/>
        <pt x="364" y="1178" on="1"/>
        <pt x="128" y="1412" on="1"/>
        <pt x="108" y="1430" on="0"/>
        <pt x="123" y="1443" on="1"/>
        <pt x="128" y="1447" on="0"/>
        <pt x="134" y="1448" on="1"/>
      </contour>
    </TTGlyph>
    <TTGlyph name="greater" xMin="15" yMin="207" xMax="981" yMax="1034">
      <contour>
        <pt x="675" y="622" on="1"/>
        <pt x="204" y="796" on="1"/>
        <pt x="197" y="798" on="0"/>
        <pt x="190" y="803" on="1"/>
        <pt x="157" y="824" on="0"/>
        <pt x="166" y="870" on="1"/>
        <pt x="192" y="984" on="1"/>
        <pt x="195" y="999" on="0"/>
        <pt x="200" y="1010" on="1"/>
        <pt x="213" y="1034" on="0"/>
        <pt x="254" y="1016" on="1"/>
        <pt x="930" y="732" on="1"/>
        <pt x="938" y="728" on="0"/>
        <pt x="946" y="723" on="1"/>
        <pt x="981" y="696" on="0"/>
        <pt x="970" y="654" on="1"/>
        <pt x="950" y="560" on="1"/>
        <pt x="948" y="551" on="0"/>
        <pt x="944" y="542" on="1"/>
        <pt x="925" y="501" on="0"/>
        <pt x="882" y="488" on="1"/>
        <pt x="82" y="214" on="1"/>
        <pt x="61" y="207" on="0"/>
        <pt x="47" y="210" on="1"/>
        <pt x="15" y="217" on="0"/>
        <pt x="28" y="268" on="1"/>
        <pt x="52" y="382" on="1"/>
        <pt x="54" y="390" on="0"/>
        <pt x="58" y="399" on="1"/>
        <pt x="78" y="441" on="0"/>
        <pt x="120" y="454" on="1"/>
      </contour>
    </TTGlyph>
    <TTGlyph name="guillemotleft" xMin="173" yMin="162" xMax="1040" yMax="940">
      <contour>
        <pt x="760" y="536" on="1"/>
        <pt x="866" y="210" on="1"/>
        <pt x="878" y="176" on="0"/>
        <pt x="850" y="165" on="1"/>
        <pt x="841" y="162" on="0"/>
        <pt x="832" y="162" on="1"/>
        <pt x="736" y="162" on="1"/>
        <pt x="693" y="162" on="0"/>
        <pt x="673" y="197" on="1"/>
        <pt x="670" y="203" on="0"/>
        <pt x="668" y="208" on="1"/>
        <pt x="556" y="522" on="1"/>
        <pt x="541" y="566" on="0"/>
        <pt x="570" y="605" on="1"/>
        <pt x="572" y="607" on="0"/>
        <pt x="572" y="608" on="1"/>
        <pt x="828" y="902" on="1"/>
        <pt x="863" y="939" on="0"/>
        <pt x="910" y="940" on="1"/>
        <pt x="1006" y="940" on="1"/>
        <pt x="1036" y="940" on="0"/>
        <pt x="1039" y="918" on="1"/>
        <pt x="1040" y="904" on="0"/>
        <pt x="1028" y="888" on="1"/>
      </contour>
      <contour>
        <pt x="392" y="536" on="1"/>
        <pt x="498" y="210" on="1"/>
        <pt x="510" y="176" on="0"/>
        <pt x="482" y="165" on="1"/>
        <pt x="473" y="162" on="0"/>
        <pt x="464" y="162" on="1"/>
        <pt x="368" y="162" on="1"/>
        <pt x="325" y="162" on="0"/>
        <pt x="305" y="197" on="1"/>
        <pt x="302" y="203" on="0"/>
        <pt x="300" y="208" on="1"/>
        <pt x="188" y="522" on="1"/>
        <pt x="173" y="566" on="0"/>
        <pt x="202" y="605" on="1"/>
        <pt x="204" y="607" on="0"/>
        <pt x="204" y="608" on="1"/>
        <pt x="460" y="902" on="1"/>
        <pt x="495" y="939" on="0"/>
        <pt x="542" y="940" on="1"/>
        <pt x="638" y="940" on="1"/>
        <pt x="669" y="940" on="0"/>
        <pt x="671" y="918" on="1"/>
        <pt x="672" y="904" on="0"/>
        <pt x="660" y="888" on="1"/>
      </contour>
    </TTGlyph>
    <TTGlyph name="guillemotright" xMin="46" yMin="162" xMax="921" yMax="940">
      <contour>
        <pt x="702" y="566" on="1"/>
        <pt x="596" y="892" on="1"/>
        <pt x="584" y="926" on="0"/>
        <pt x="612" y="937" on="1"/>
        <pt x="621" y="940" on="0"/>
        <pt x="630" y="940" on="1"/>
        <pt x="726" y="940" on="1"/>
        <pt x="769" y="940" on="0"/>
        <pt x="789" y="905" on="1"/>
        <pt x="792" y="899" on="0"/>
        <pt x="794" y="894" on="1"/>
        <pt x="906" y="580" on="1"/>
        <pt x="921" y="536" on="0"/>
        <pt x="892" y="497" on="1"/>
        <pt x="890" y="495" on="0"/>
        <pt x="890" y="494" on="1"/>
        <pt x="634" y="200" on="1"/>
        <pt x="599" y="163" on="0"/>
        <pt x="552" y="162" on="1"/>
        <pt x="456" y="162" on="1"/>
        <pt x="425" y="162" on="0"/>
        <pt x="423" y="184" on="1"/>
        <pt x="422" y="198" on="0"/>
        <pt x="434" y="214" on="1"/>
      </contour>
      <contour>
        <pt x="326" y="566" on="1"/>
        <pt x="220" y="892" on="1"/>
        <pt x="208" y="926" on="0"/>
        <pt x="236" y="937" on="1"/>
        <pt x="245" y="940" on="0"/>
        <pt x="254" y="940" on="1"/>
        <pt x="350" y="940" on="1"/>
        <pt x="393" y="940" on="0"/>
        <pt x="413" y="905" on="1"/>
        <pt x="416" y="899" on="0"/>
        <pt x="418" y="894" on="1"/>
        <pt x="530" y="580" on="1"/>
        <pt x="545" y="536" on="0"/>
        <pt x="516" y="497" on="1"/>
        <pt x="514" y="495" on="0"/>
        <pt x="514" y="494" on="1"/>
        <pt x="258" y="200" on="1"/>
        <pt x="223" y="163" on="0"/>
        <pt x="176" y="162" on="1"/>
        <pt x="80" y="162" on="1"/>
        <pt x="49" y="162" on="0"/>
        <pt x="47" y="184" on="1"/>
        <pt x="46" y="198" on="0"/>
        <pt x="58" y="214" on="1"/>
      </contour>
    </TTGlyph>
    <TTGlyph name="guilsinglleft" xMin="173" yMin="162" xMax="672" yMax="940">
      <contour>
        <pt x="392" y="536" on="1"/>
        <pt x="498" y="210" on="1"/>
        <pt x="510" y="176" on="0"/>
        <pt x="482" y="165" on="1"/>
        <pt x="473" y="162" on="0"/>
        <pt x="464" y="162" on="1"/>
        <pt x="368" y="162" on="1"/>
        <pt x="325" y="162" on="0"/>
        <pt x="305" y="197" on="1"/>
        <pt x="302" y="203" on="0"/>
        <pt x="300" y="208" on="1"/>
        <pt x="188" y="522" on="1"/>
        <pt x="173" y="566" on="0"/>
        <pt x="202" y="605" on="1"/>
        <pt x="204" y="607" on="0"/>
        <pt x="204" y="608" on="1"/>
        <pt x="460" y="902" on="1"/>
        <pt x="495" y="939" on="0"/>
        <pt x="542" y="940" on="1"/>
        <pt x="638" y="940" on="1"/>
        <pt x="669" y="940" on="0"/>
        <pt x="671" y="918" on="1"/>
        <pt x="672" y="904" on="0"/>
        <pt x="660" y="888" on="1"/>
      </contour>
    </TTGlyph>
    <TTGlyph name="guilsinglright" xMin="46" yMin="162" xMax="545" yMax="940">
      <contour>
        <pt x="326" y="566" on="1"/>
        <pt x="220" y="892" on="1"/>
        <pt x="208" y="926" on="0"/>
        <pt x="236" y="937" on="1"/>
        <pt x="245" y="940" on="0"/>
        <pt x="254" y="940" on="1"/>
        <pt x="350" y="940" on="1"/>
        <pt x="393" y="940" on="0"/>
        <pt x="413" y="905" on="1"/>
        <pt x="416" y="899" on="0"/>
        <pt x="418" y="894" on="1"/>
        <pt x="530" y="580" on="1"/>
        <pt x="545" y="536" on="0"/>
        <pt x="516" y="497" on="1"/>
        <pt x="514" y="495" on="0"/>
        <pt x="514" y="494" on="1"/>
        <pt x="258" y="200" on="1"/>
        <pt x="223" y="163" on="0"/>
        <pt x="176" y="162" on="1"/>
        <pt x="80" y="162" on="1"/>
        <pt x="49" y="162" on="0"/>
        <pt x="47" y="184" on="1"/>
        <pt x="46" y="198" on="0"/>
        <pt x="58" y="214" on="1"/>
      </contour>
    </TTGlyph>
    <TTGlyph name="h" xMin="-38" yMin="0" xMax="915" yMax="1518">
      <contour>
        <pt x="604" y="1472" on="1"/>
        <pt x="604" y="1472" on="0"/>
        <pt x="437" y="819" on="1"/>
        <pt x="560" y="990" on="1"/>
        <pt x="567" y="1000" on="0"/>
        <pt x="578" y="1014" on="1"/>
        <pt x="636" y="1082" on="0"/>
        <pt x="710" y="1082" on="1"/>
        <pt x="804" y="1082" on="1"/>
        <pt x="821" y="1082" on="0"/>
        <pt x="837" y="1078" on="1"/>
        <pt x="915" y="1057" on="0"/>
        <pt x="888" y="954" on="1"/>
        <pt x="644" y="28" on="1"/>
        <pt x="635" y="0" on="0"/>
        <pt x="594" y="0" on="1"/>
        <pt x="432" y="0" on="1"/>
        <pt x="424" y="0" on="0"/>
        <pt x="412" y="10" on="1"/>
        <pt x="402" y="18" on="0"/>
        <pt x="408" y="40" on="1"/>
        <pt x="514" y="406" on="0"/>
        <pt x="562" y="600" on="1"/>
        <pt x="577" y="660" on="0"/>
        <pt x="571" y="634" on="1"/>
        <pt x="578" y="660" on="0"/>
        <pt x="564" y="660" on="1"/>
        <pt x="553" y="660" on="0"/>
        <pt x="532" y="626" on="1"/>
        <pt x="448" y="487" on="0"/>
        <pt x="332" y="264" on="1"/>
        <pt x="283" y="169" on="0"/>
        <pt x="262" y="130" on="1"/>
        <pt x="240" y="44" on="1"/>
        <pt x="228" y="1" on="0"/>
        <pt x="180" y="0" on="1"/>
        <pt x="148" y="0" on="1"/>
        <pt x="26" y="0" on="1"/>
        <pt x="14" y="0" on="0"/>
        <pt x="2" y="3" on="1"/>
        <pt x="-38" y="16" on="0"/>
        <pt x="-26" y="64" on="1"/>
        <pt x="334" y="1474" on="1"/>
        <pt x="346" y="1517" on="0"/>
        <pt x="394" y="1518" on="1"/>
        <pt x="560" y="1518" on="1"/>
        <pt x="613" y="1518" on="0"/>
      </contour>
    </TTGlyph>
    <TTGlyph name="hungarumlaut" xMin="7" yMin="1150" xMax="693" yMax="1448">
      <contour>
        <pt x="354" y="1448" on="1"/>
        <pt x="364" y="1448" on="0"/>
        <pt x="373" y="1444" on="1"/>
        <pt x="397" y="1431" on="0"/>
        <pt x="368" y="1398" on="1"/>
        <pt x="188" y="1178" on="1"/>
        <pt x="160" y="1151" on="0"/>
        <pt x="120" y="1150" on="1"/>
        <pt x="42" y="1150" on="1"/>
        <pt x="34" y="1150" on="0"/>
        <pt x="28" y="1152" on="1"/>
        <pt x="7" y="1160" on="0"/>
        <pt x="22" y="1184" on="1"/>
        <pt x="160" y="1414" on="1"/>
        <pt x="182" y="1447" on="0"/>
        <pt x="222" y="1448" on="1"/>
      </contour>
      <contour>
        <pt x="650" y="1448" on="1"/>
        <pt x="662" y="1448" on="0"/>
        <pt x="671" y="1442" on="1"/>
        <pt x="693" y="1427" on="0"/>
        <pt x="664" y="1398" on="1"/>
        <pt x="464" y="1178" on="1"/>
        <pt x="436" y="1151" on="0"/>
        <pt x="396" y="1150" on="1"/>
        <pt x="318" y="1150" on="1"/>
        <pt x="310" y="1150" on="0"/>
        <pt x="304" y="1152" on="1"/>
        <pt x="283" y="1160" on="0"/>
        <pt x="298" y="1184" on="1"/>
        <pt x="456" y="1414" on="1"/>
        <pt x="478" y="1447" on="0"/>
        <pt x="518" y="1448" on="1"/>
      </contour>
    </TTGlyph>
    <TTGlyph name="hyphen" xMin="91" yMin="524" xMax="853" yMax="762">
      <contour>
        <pt x="172" y="762" on="1"/>
        <pt x="172" y="762" on="0"/>
        <pt x="794" y="762" on="1"/>
        <pt x="853" y="761" on="0"/>
        <pt x="840" y="698" on="1"/>
        <pt x="814" y="580" on="1"/>
        <pt x="811" y="568" on="0"/>
        <pt x="803" y="556" on="1"/>
        <pt x="780" y="524" on="0"/>
        <pt x="746" y="524" on="1"/>
        <pt x="146" y="524" on="1"/>
        <pt x="138" y="524" on="0"/>
        <pt x="131" y="525" on="1"/>
        <pt x="91" y="532" on="0"/>
        <pt x="108" y="596" on="1"/>
        <pt x="140" y="722" on="1"/>
        <pt x="143" y="737" on="0"/>
        <pt x="147" y="747" on="1"/>
        <pt x="153" y="762" on="0"/>
      </contour>
    </TTGlyph>
    <TTGlyph name="i" xMin="-39" yMin="0" xMax="590" yMax="1488">
      <contour>
        <pt x="290" y="1080" on="1"/>
        <pt x="452" y="1080" on="1"/>
        <pt x="505" y="1079" on="0"/>
        <pt x="496" y="1034" on="1"/>
        <pt x="236" y="44" on="1"/>
        <pt x="224" y="1" on="0"/>
        <pt x="176" y="0" on="1"/>
        <pt x="14" y="0" on="1"/>
        <pt x="-39" y="1" on="0"/>
        <pt x="-30" y="46" on="1"/>
        <pt x="230" y="1036" on="1"/>
        <pt x="242" y="1079" on="0"/>
      </contour>
      <contour>
        <pt x="280" y="1348" on="1"/>
        <pt x="280" y="1392" on="0"/>
        <pt x="305" y="1428" on="1"/>
        <pt x="348" y="1488" on="0"/>
        <pt x="428" y="1488" on="1"/>
        <pt x="456" y="1488" on="1"/>
        <pt x="498" y="1488" on="0"/>
        <pt x="537" y="1455" on="1"/>
        <pt x="590" y="1409" on="0"/>
        <pt x="590" y="1348" on="1"/>
        <pt x="590" y="1304" on="0"/>
        <pt x="563" y="1268" on="1"/>
        <pt x="519" y="1210" on="0"/>
        <pt x="438" y="1210" on="1"/>
        <pt x="412" y="1210" on="1"/>
        <pt x="369" y="1210" on="0"/>
        <pt x="332" y="1241" on="1"/>
        <pt x="280" y="1284" on="0"/>
      </contour>
    </TTGlyph>
    <TTGlyph name="iacute" xMin="-13" yMin="0" xMax="757" yMax="1448">
      <component glyphName="acute" x="188" y="0" flags="0x1004"/>
      <component glyphName="dotlessi" x="0" y="0" flags="0x1004"/>
    </TTGlyph>
    <TTGlyph name="icircumflex" xMin="-13" yMin="0" xMax="702" yMax="1472">
      <component glyphName="circumflex" x="-26" y="4" flags="0x1004"/>
      <component glyphName="dotlessi" x="0" y="0" flags="0x1004"/>
    </TTGlyph>
    <TTGlyph name="idieresis" xMin="-13" yMin="0" xMax="746" yMax="1468">
      <component glyphName="dieresiscomb" x="-78" y="12" flags="0x1004"/>
      <component glyphName="dotlessi" x="0" y="0" flags="0x1004"/>
    </TTGlyph>
    <TTGlyph name="igrave" xMin="-13" yMin="0" xMax="595" yMax="1448">
      <component glyphName="grave" x="32" y="0" flags="0x1004"/>
      <component glyphName="dotlessi" x="0" y="0" flags="0x1004"/>
    </TTGlyph>
    <TTGlyph name="j" xMin="-261" yMin="-375" xMax="620" yMax="1488">
      <contour>
        <pt x="310" y="1348" on="1"/>
        <pt x="310" y="1392" on="0"/>
        <pt x="335" y="1428" on="1"/>
        <pt x="378" y="1488" on="0"/>
        <pt x="458" y="1488" on="1"/>
        <pt x="486" y="1488" on="1"/>
        <pt x="528" y="1488" on="0"/>
        <pt x="567" y="1455" on="1"/>
        <pt x="620" y="1409" on="0"/>
        <pt x="620" y="1348" on="1"/>
        <pt x="620" y="1304" on="0"/>
        <pt x="593" y="1268" on="1"/>
        <pt x="549" y="1210" on="0"/>
        <pt x="468" y="1210" on="1"/>
        <pt x="442" y="1210" on="1"/>
        <pt x="399" y="1210" on="0"/>
        <pt x="362" y="1241" on="1"/>
        <pt x="310" y="1284" on="0"/>
      </contour>
      <contour>
        <pt x="-188" y="-350" on="1"/>
        <pt x="-252" y="-252" on="1"/>
        <pt x="-261" y="-238" on="0"/>
        <pt x="-261" y="-222" on="1"/>
        <pt x="-261" y="-196" on="0"/>
        <pt x="-236" y="-186" on="1"/>
        <pt x="-187" y="-166" on="0"/>
        <pt x="-142" y="-130" on="1"/>
        <pt x="-37" y="-44" on="0"/>
        <pt x="-4" y="82" on="1"/>
        <pt x="248" y="1036" on="1"/>
        <pt x="260" y="1080" on="0"/>
        <pt x="300" y="1080" on="1"/>
        <pt x="470" y="1080" on="1"/>
        <pt x="492" y="1080" on="0"/>
        <pt x="502" y="1072" on="1"/>
        <pt x="521" y="1059" on="0"/>
        <pt x="514" y="1034" on="1"/>
        <pt x="254" y="44" on="1"/>
        <pt x="211" y="-122" on="0"/>
        <pt x="88" y="-238" on="1"/>
        <pt x="-12" y="-332" on="0"/>
        <pt x="-126" y="-366" on="1"/>
        <pt x="-172" y="-375" on="0"/>
      </contour>
    </TTGlyph>
    <TTGlyph name="k" xMin="-35" yMin="0" xMax="976" yMax="1518">
      <contour>
        <pt x="419" y="746" on="1"/>
        <pt x="664" y="1054" on="1"/>
        <pt x="685" y="1080" on="0"/>
        <pt x="724" y="1080" on="1"/>
        <pt x="934" y="1080" on="1"/>
        <pt x="956" y="1080" on="0"/>
        <pt x="965" y="1065" on="1"/>
        <pt x="976" y="1042" on="0"/>
        <pt x="944" y="1006" on="1"/>
        <pt x="559" y="568" on="1"/>
        <pt x="724" y="60" on="1"/>
        <pt x="743" y="0" on="0"/>
        <pt x="678" y="0" on="1"/>
        <pt x="520" y="0" on="1"/>
        <pt x="491" y="0" on="0"/>
        <pt x="474" y="11" on="1"/>
        <pt x="454" y="24" on="0"/>
        <pt x="446" y="50" on="1"/>
        <pt x="337" y="424" on="1"/>
        <pt x="240" y="44" on="1"/>
        <pt x="229" y="0" on="0"/>
        <pt x="180" y="0" on="1"/>
        <pt x="26" y="0" on="1"/>
        <pt x="0" y="0" on="0"/>
        <pt x="-14" y="12" on="1"/>
        <pt x="-35" y="30" on="0"/>
        <pt x="-26" y="64" on="1"/>
        <pt x="334" y="1474" on="1"/>
        <pt x="345" y="1518" on="0"/>
        <pt x="394" y="1518" on="1"/>
        <pt x="560" y="1518" on="1"/>
        <pt x="616" y="1518" on="0"/>
        <pt x="604" y="1472" on="1"/>
      </contour>
    </TTGlyph>
    <TTGlyph name="l" xMin="-35" yMin="0" xMax="616" yMax="1518">
      <contour>
        <pt x="394" y="1518" on="1"/>
        <pt x="560" y="1518" on="1"/>
        <pt x="616" y="1517" on="0"/>
        <pt x="604" y="1472" on="1"/>
        <pt x="240" y="44" on="1"/>
        <pt x="227" y="0" on="0"/>
        <pt x="180" y="0" on="1"/>
        <pt x="26" y="0" on="1"/>
        <pt x="4" y="0" on="0"/>
        <pt x="-10" y="10" on="1"/>
        <pt x="-35" y="29" on="0"/>
        <pt x="-26" y="64" on="1"/>
        <pt x="334" y="1474" on="1"/>
        <pt x="346" y="1517" on="0"/>
      </contour>
    </TTGlyph>
    <TTGlyph name="less" xMin="15" yMin="194" xMax="981" yMax="1021">
      <contour>
        <pt x="321" y="608" on="1"/>
        <pt x="792" y="434" on="1"/>
        <pt x="799" y="432" on="0"/>
        <pt x="806" y="427" on="1"/>
        <pt x="839" y="406" on="0"/>
        <pt x="830" y="360" on="1"/>
        <pt x="804" y="244" on="1"/>
        <pt x="801" y="229" on="0"/>
        <pt x="796" y="218" on="1"/>
        <pt x="783" y="194" on="0"/>
        <pt x="742" y="212" on="1"/>
        <pt x="66" y="496" on="1"/>
        <pt x="58" y="500" on="0"/>
        <pt x="50" y="505" on="1"/>
        <pt x="15" y="532" on="0"/>
        <pt x="26" y="574" on="1"/>
        <pt x="46" y="668" on="1"/>
        <pt x="48" y="677" on="0"/>
        <pt x="52" y="686" on="1"/>
        <pt x="71" y="727" on="0"/>
        <pt x="114" y="740" on="1"/>
        <pt x="914" y="1014" on="1"/>
        <pt x="935" y="1021" on="0"/>
        <pt x="949" y="1018" on="1"/>
        <pt x="981" y="1011" on="0"/>
        <pt x="968" y="960" on="1"/>
        <pt x="944" y="848" on="1"/>
        <pt x="942" y="840" on="0"/>
        <pt x="938" y="831" on="1"/>
        <pt x="918" y="789" on="0"/>
        <pt x="876" y="776" on="1"/>
      </contour>
    </TTGlyph>
    <TTGlyph name="logicalnot" xMin="229" yMin="348" xMax="1555" yMax="992">
      <contour>
        <pt x="1240" y="754" on="1"/>
        <pt x="284" y="754" on="1"/>
        <pt x="276" y="754" on="0"/>
        <pt x="269" y="755" on="1"/>
        <pt x="229" y="762" on="0"/>
        <pt x="246" y="826" on="1"/>
        <pt x="274" y="936" on="1"/>
        <pt x="281" y="961" on="0"/>
        <pt x="292" y="975" on="1"/>
        <pt x="306" y="992" on="0"/>
        <pt x="348" y="992" on="1"/>
        <pt x="348" y="992" on="0"/>
        <pt x="1478" y="992" on="1"/>
        <pt x="1555" y="991" on="0"/>
        <pt x="1534" y="906" on="1"/>
        <pt x="1398" y="392" on="1"/>
        <pt x="1386" y="349" on="0"/>
        <pt x="1338" y="348" on="1"/>
        <pt x="1188" y="348" on="1"/>
        <pt x="1135" y="349" on="0"/>
        <pt x="1144" y="394" on="1"/>
      </contour>
    </TTGlyph>
    <TTGlyph name="m" xMin="-33" yMin="0" xMax="1317" yMax="1082">
      <contour>
        <pt x="392" y="785" on="1"/>
        <pt x="538" y="988" on="1"/>
        <pt x="545" y="998" on="0"/>
        <pt x="556" y="1012" on="1"/>
        <pt x="614" y="1080" on="0"/>
        <pt x="688" y="1080" on="1"/>
        <pt x="786" y="1080" on="1"/>
        <pt x="803" y="1080" on="0"/>
        <pt x="819" y="1076" on="1"/>
        <pt x="897" y="1055" on="0"/>
        <pt x="870" y="952" on="1"/>
        <pt x="831" y="804" on="1"/>
        <pt x="970" y="982" on="1"/>
        <pt x="989" y="1008" on="0"/>
        <pt x="1007" y="1027" on="1"/>
        <pt x="1061" y="1082" on="0"/>
        <pt x="1132" y="1082" on="1"/>
        <pt x="1206" y="1082" on="1"/>
        <pt x="1216" y="1082" on="0"/>
        <pt x="1227" y="1080" on="1"/>
        <pt x="1317" y="1065" on="0"/>
        <pt x="1284" y="940" on="1"/>
        <pt x="1044" y="28" on="1"/>
        <pt x="1037" y="0" on="0"/>
        <pt x="994" y="0" on="1"/>
        <pt x="846" y="0" on="1"/>
        <pt x="822" y="0" on="0"/>
        <pt x="812" y="11" on="1"/>
        <pt x="806" y="16" on="0"/>
        <pt x="806" y="32" on="1"/>
        <pt x="806" y="53" on="0"/>
        <pt x="824" y="114" on="1"/>
        <pt x="824" y="114" on="0"/>
        <pt x="940" y="504" on="1"/>
        <pt x="947" y="528" on="0"/>
        <pt x="952" y="548" on="1"/>
        <pt x="984" y="656" on="0"/>
        <pt x="970" y="656" on="1"/>
        <pt x="961" y="656" on="0"/>
        <pt x="949" y="643" on="1"/>
        <pt x="941" y="634" on="0"/>
        <pt x="900" y="562" on="1"/>
        <pt x="854" y="480" on="0"/>
        <pt x="772" y="314" on="1"/>
        <pt x="649" y="63" on="0"/>
        <pt x="626" y="28" on="1"/>
        <pt x="612" y="0" on="0"/>
        <pt x="576" y="0" on="1"/>
        <pt x="414" y="0" on="1"/>
        <pt x="405" y="0" on="0"/>
        <pt x="394" y="10" on="1"/>
        <pt x="386" y="18" on="0"/>
        <pt x="394" y="48" on="1"/>
        <pt x="518" y="504" on="1"/>
        <pt x="518" y="504" on="0"/>
        <pt x="528" y="537" on="1"/>
        <pt x="562" y="656" on="0"/>
        <pt x="540" y="656" on="1"/>
        <pt x="530" y="656" on="0"/>
        <pt x="516" y="638" on="1"/>
        <pt x="515" y="637" on="0"/>
        <pt x="474" y="570" on="1"/>
        <pt x="422" y="484" on="0"/>
        <pt x="328" y="300" on="1"/>
        <pt x="212" y="72" on="0"/>
        <pt x="188" y="38" on="1"/>
        <pt x="158" y="0" on="0"/>
        <pt x="126" y="0" on="1"/>
        <pt x="4" y="0" on="1"/>
        <pt x="-13" y="0" on="0"/>
        <pt x="-23" y="15" on="1"/>
        <pt x="-33" y="32" on="0"/>
        <pt x="-28" y="52" on="1"/>
        <pt x="232" y="1024" on="1"/>
        <pt x="245" y="1078" on="0"/>
        <pt x="292" y="1080" on="1"/>
        <pt x="420" y="1080" on="1"/>
        <pt x="440" y="1080" on="0"/>
        <pt x="453" y="1076" on="1"/>
        <pt x="483" y="1066" on="0"/>
        <pt x="470" y="1018" on="1"/>
      </contour>
    </TTGlyph>
    <TTGlyph name="m.alt1" xMin="-36" yMin="-2" xMax="1177" yMax="1082">
      <contour>
        <pt x="392" y="785" on="1"/>
        <pt x="538" y="990" on="1"/>
        <pt x="547" y="1002" on="0"/>
        <pt x="556" y="1014" on="1"/>
        <pt x="614" y="1082" on="0"/>
        <pt x="688" y="1082" on="1"/>
        <pt x="746" y="1082" on="1"/>
        <pt x="763" y="1082" on="0"/>
        <pt x="779" y="1078" on="1"/>
        <pt x="857" y="1057" on="0"/>
        <pt x="830" y="954" on="1"/>
        <pt x="818" y="909" on="1"/>
        <pt x="870" y="982" on="1"/>
        <pt x="889" y="1008" on="0"/>
        <pt x="907" y="1027" on="1"/>
        <pt x="961" y="1082" on="0"/>
        <pt x="1032" y="1082" on="1"/>
        <pt x="1066" y="1082" on="1"/>
        <pt x="1077" y="1082" on="0"/>
        <pt x="1087" y="1080" on="1"/>
        <pt x="1177" y="1065" on="0"/>
        <pt x="1144" y="940" on="1"/>
        <pt x="904" y="28" on="1"/>
        <pt x="894" y="-1" on="0"/>
        <pt x="854" y="-2" on="1"/>
        <pt x="692" y="0" on="1"/>
        <pt x="689" y="0" on="0"/>
        <pt x="685" y="2" on="1"/>
        <pt x="664" y="11" on="0"/>
        <pt x="666" y="32" on="1"/>
        <pt x="668" y="55" on="0"/>
        <pt x="696" y="147" on="1"/>
        <pt x="766" y="375" on="0"/>
        <pt x="774" y="406" on="1"/>
        <pt x="776" y="412" on="0"/>
        <pt x="779" y="424" on="1"/>
        <pt x="782" y="435" on="0"/>
        <pt x="783" y="440" on="1"/>
        <pt x="790" y="466" on="0"/>
        <pt x="776" y="466" on="1"/>
        <pt x="762" y="465" on="0"/>
        <pt x="746" y="432" on="1"/>
        <pt x="721" y="382" on="0"/>
        <pt x="667" y="255" on="1"/>
        <pt x="631" y="170" on="0"/>
        <pt x="614" y="133" on="1"/>
        <pt x="586" y="28" on="1"/>
        <pt x="576" y="-1" on="0"/>
        <pt x="536" y="-2" on="1"/>
        <pt x="374" y="0" on="1"/>
        <pt x="371" y="0" on="0"/>
        <pt x="367" y="2" on="1"/>
        <pt x="346" y="11" on="0"/>
        <pt x="348" y="32" on="1"/>
        <pt x="350" y="56" on="0"/>
        <pt x="384" y="173" on="1"/>
        <pt x="468" y="465" on="0"/>
        <pt x="472" y="482" on="1"/>
        <pt x="474" y="488" on="0"/>
        <pt x="477" y="500" on="1"/>
        <pt x="480" y="511" on="0"/>
        <pt x="481" y="516" on="1"/>
        <pt x="488" y="542" on="0"/>
        <pt x="474" y="542" on="1"/>
        <pt x="466" y="541" on="0"/>
        <pt x="450" y="520" on="1"/>
        <pt x="445" y="512" on="0"/>
        <pt x="442" y="508" on="1"/>
        <pt x="394" y="437" on="0"/>
        <pt x="307" y="266" on="1"/>
        <pt x="206" y="66" on="0"/>
        <pt x="188" y="38" on="1"/>
        <pt x="159" y="1" on="0"/>
        <pt x="126" y="0" on="1"/>
        <pt x="4" y="0" on="1"/>
        <pt x="-4" y="0" on="0"/>
        <pt x="-12" y="5" on="1"/>
        <pt x="-36" y="19" on="0"/>
        <pt x="-28" y="52" on="1"/>
        <pt x="232" y="1026" on="1"/>
        <pt x="245" y="1080" on="0"/>
        <pt x="292" y="1082" on="1"/>
        <pt x="420" y="1082" on="1"/>
        <pt x="440" y="1082" on="0"/>
        <pt x="453" y="1078" on="1"/>
        <pt x="483" y="1068" on="0"/>
        <pt x="470" y="1020" on="1"/>
      </contour>
    </TTGlyph>
    <TTGlyph name="macron" xMin="88" yMin="1526" xMax="893" yMax="1718">
      <contour>
        <pt x="160" y="1718" on="1"/>
        <pt x="160" y="1718" on="0"/>
        <pt x="862" y="1718" on="1"/>
        <pt x="893" y="1715" on="0"/>
        <pt x="880" y="1674" on="1"/>
        <pt x="852" y="1582" on="1"/>
        <pt x="849" y="1572" on="0"/>
        <pt x="848" y="1568" on="1"/>
        <pt x="834" y="1526" on="0"/>
        <pt x="810" y="1526" on="1"/>
        <pt x="122" y="1526" on="1"/>
        <pt x="91" y="1526" on="0"/>
        <pt x="88" y="1541" on="1"/>
        <pt x="88" y="1544" on="0"/>
        <pt x="98" y="1582" on="1"/>
        <pt x="130" y="1694" on="1"/>
        <pt x="131" y="1698" on="0"/>
        <pt x="133" y="1703" on="1"/>
        <pt x="140" y="1718" on="0"/>
      </contour>
    </TTGlyph>
    <TTGlyph name="middot" xMin="172" yMin="568" xMax="466" yMax="832">
      <contour>
        <pt x="172" y="700" on="1"/>
        <pt x="172" y="740" on="0"/>
        <pt x="195" y="774" on="1"/>
        <pt x="235" y="832" on="0"/>
        <pt x="312" y="832" on="1"/>
        <pt x="338" y="832" on="1"/>
        <pt x="377" y="832" on="0"/>
        <pt x="414" y="802" on="1"/>
        <pt x="466" y="759" on="0"/>
        <pt x="466" y="700" on="1"/>
        <pt x="466" y="659" on="0"/>
        <pt x="441" y="625" on="1"/>
        <pt x="399" y="568" on="0"/>
        <pt x="322" y="568" on="1"/>
        <pt x="298" y="568" on="1"/>
        <pt x="258" y="568" on="0"/>
        <pt x="223" y="595" on="1"/>
        <pt x="172" y="636" on="0"/>
      </contour>
    </TTGlyph>
    <TTGlyph name="minus" xMin="55" yMin="524" xMax="947" yMax="762">
      <contour>
        <pt x="840" y="524" on="1"/>
        <pt x="840" y="524" on="0"/>
        <pt x="110" y="524" on="1"/>
        <pt x="102" y="524" on="0"/>
        <pt x="95" y="525" on="1"/>
        <pt x="55" y="532" on="0"/>
        <pt x="72" y="596" on="1"/>
        <pt x="98" y="704" on="1"/>
        <pt x="101" y="717" on="0"/>
        <pt x="106" y="728" on="1"/>
        <pt x="121" y="762" on="0"/>
        <pt x="164" y="762" on="1"/>
        <pt x="888" y="762" on="1"/>
        <pt x="947" y="761" on="0"/>
        <pt x="934" y="698" on="1"/>
        <pt x="908" y="580" on="1"/>
        <pt x="905" y="568" on="0"/>
        <pt x="897" y="556" on="1"/>
        <pt x="875" y="524" on="0"/>
      </contour>
    </TTGlyph>
</ttFont>
